<svg width="182" height="40" viewBox="0 0 182 40" fill="none" xmlns="http://www.w3.org/2000/svg">
<path d="M53.4796 34.2374C50.3532 34.2374 47.5038 32.8128 45.8021 30.28L47.5434 28.3012C49.0473 30.5174 51.0656 31.7047 53.5192 31.7047C56.9226 31.7047 58.6639 29.6863 58.6639 25.6101V8.83043H48.5328V6.29765H61.5529V25.4914C61.5529 31.3485 58.7827 34.2374 53.4796 34.2374ZM91.8551 34.2374C84.7712 34.2374 80.4576 30.1217 80.4576 22.1671V6.29765H83.3861V22.0484C83.3861 28.6178 86.4729 31.6255 91.8551 31.6255C97.2769 31.6255 100.364 28.6178 100.364 22.0484V6.29765H103.213V22.1671C103.213 30.1217 98.939 34.2374 91.8551 34.2374ZM144.518 34H141.312L134.98 25.0957C134.268 25.1748 133.556 25.2144 132.764 25.2144H125.324V34H122.395V6.29765H132.764C139.808 6.29765 144.082 9.85938 144.082 15.7956C144.082 20.1488 141.787 23.1961 137.75 24.5021L144.518 34ZM132.685 22.7212C138.225 22.7212 141.154 20.1488 141.154 15.7956C141.154 11.3632 138.225 8.83043 132.685 8.83043H125.324V22.7212H132.685ZM181.931 6.29765L170.85 24.4229V34H167.961V24.4229L156.88 6.29765H160.006L169.504 21.8505L179.002 6.29765H181.931Z" fill="white"/>
<path d="M24.8493 28.4419H20.7492L15.2823 16.7006L9.81547 28.4419H4.5557C2.20883 26.3021 1.03539 23.5411 1.03539 20.1588C1.03539 16.7903 2.20883 14.0293 4.5557 11.8757H7.86894C5.52206 13.9741 4.34862 16.7351 4.34862 20.1588C4.34862 22.6299 5.06649 24.8042 6.50223 26.6817L13.4186 11.8757H17.146L24.8493 28.4419Z" fill="#FFDE06"/>
</svg>
