<svg width="65" height="65" viewBox="0 0 65 65" fill="none" xmlns="http://www.w3.org/2000/svg">
<g filter="url(#filter0_d_76_10086)">
<path d="M21.2417 10.2972C26.7361 7.04341 29.4833 5.4165 32.5 5.4165C35.5167 5.4165 38.2639 7.04341 43.7583 10.2972L45.6167 11.3977C51.1111 14.6516 53.8583 16.2785 55.3667 18.9582C56.875 21.6379 56.875 24.8917 56.875 31.3993V33.6003C56.875 40.108 56.875 43.3618 55.3667 46.0415C53.8583 48.7212 51.1111 50.3481 45.6167 53.6019L43.7583 54.7025C38.2639 57.9563 35.5167 59.5832 32.5 59.5832C29.4833 59.5832 26.7361 57.9563 21.2417 54.7024L19.3833 53.6019C13.8889 50.3481 11.1417 48.7212 9.63333 46.0415C8.125 43.3618 8.125 40.108 8.125 33.6003V31.3993C8.125 24.8917 8.125 21.6379 9.63333 18.9582C11.1417 16.2785 13.8889 14.6516 19.3833 11.3977L21.2417 10.2972Z" stroke="#DBBFFF" stroke-width="1.5"/>
<path d="M30.321 27.7017V25.6997L31.7126 24.5767H33.8611V41.6665H31.7126V27.7017H30.321Z" fill="#DBBFFF"/>
</g>
<defs>
<filter id="filter0_d_76_10086" x="-2" y="0" width="69" height="69" filterUnits="userSpaceOnUse" color-interpolation-filters="sRGB">
<feFlood flood-opacity="0" result="BackgroundImageFix"/>
<feColorMatrix in="SourceAlpha" type="matrix" values="0 0 0 0 0 0 0 0 0 0 0 0 0 0 0 0 0 0 127 0" result="hardAlpha"/>
<feOffset dy="2"/>
<feGaussianBlur stdDeviation="1"/>
<feComposite in2="hardAlpha" operator="out"/>
<feColorMatrix type="matrix" values="0 0 0 0 0.635294 0 0 0 0 0.427451 0 0 0 0 0.968627 0 0 0 1 0"/>
<feBlend mode="normal" in2="BackgroundImageFix" result="effect1_dropShadow_76_10086"/>
<feBlend mode="normal" in="SourceGraphic" in2="effect1_dropShadow_76_10086" result="shape"/>
</filter>
</defs>
</svg>
