<svg width="222" height="143" viewBox="0 0 222 143" fill="none" xmlns="http://www.w3.org/2000/svg">
<path d="M2.33963 2.24609C2.33963 8.59206 0.951586 16.6541 3.61267 22.5677C4.86454 25.3496 6.28456 31.1018 9.97789 31.1018" stroke="#FB4298" stroke-width="3" stroke-linecap="round"/>
<path d="M15.9187 37.043C18.8368 37.043 20.3297 39.2984 22.8969 40.2492C25.33 41.1503 28.486 42.225 30.7709 43.4553C35.4298 45.964 41.1524 48.9247 46.4718 48.9247" stroke="#FB4298" stroke-width="3" stroke-linecap="round"/>
<path d="M57.5049 55.7139C69.868 55.7139 81.8342 58.26 93.9988 58.26" stroke="#FB4298" stroke-width="3" stroke-linecap="round"/>
<path d="M107.578 62.5039C116.564 62.5039 125.224 65.8987 133.887 65.8987" stroke="#FB4298" stroke-width="3" stroke-linecap="round"/>
<path d="M150.861 68.4445C158.131 68.4445 164.991 68.3382 171.89 70.802C175.203 71.9853 179.662 75.2341 183.112 75.2341" stroke="#FB4298" stroke-width="3" stroke-linecap="round"/>
<path d="M194.145 83.7212C203.13 83.7212 216.45 94.3826 220.454 102.393" stroke="#FB4298" stroke-width="3" stroke-linecap="round"/>
<path d="M220.455 114.274C220.455 121.835 218.599 128.485 212.156 132.946C207.83 135.941 202.879 137.591 198.388 140.584" stroke="#FB4298" stroke-width="3" stroke-linecap="round"/>
</svg>
