<svg width="150" height="90" viewBox="0 0 150 90" fill="none" xmlns="http://www.w3.org/2000/svg">
<path d="M0.339943 14.4061L0.680221 14.7724L0.682425 14.7704L0.690102 14.7633L0.721487 14.7344C0.749459 14.7087 0.791424 14.6703 0.846771 14.62C0.957466 14.5194 1.12168 14.3714 1.33451 14.1827C1.76021 13.8052 2.38025 13.2652 3.15555 12.6168C4.70671 11.3196 6.8766 9.5908 9.35291 7.86311C11.8307 6.13436 14.606 4.41328 17.3685 3.12604C20.1384 1.83535 22.8553 1 25.2274 1C29.9517 1 33.55 4.30856 37.3309 7.81944L37.4053 7.88852C41.09 11.3102 44.9622 14.9061 50.1149 14.9061C55.2675 14.9061 59.1398 11.3102 62.8245 7.88852L62.8988 7.81944C66.6798 4.30856 70.278 1 75.0023 1C79.7267 1 83.3249 4.30856 87.1059 7.81944L87.1803 7.88854C90.8649 11.3102 94.7372 14.9061 99.8898 14.9061C105.042 14.9061 108.915 11.3102 112.599 7.88854L112.674 7.81944C116.455 4.30856 120.053 1 124.777 1C127.149 1 129.866 1.83535 132.636 3.12604C135.399 4.41328 138.174 6.13436 140.652 7.86311C143.128 9.5908 145.298 11.3196 146.849 12.6168C147.624 13.2652 148.245 13.8052 148.67 14.1827C148.883 14.3714 149.047 14.5194 149.158 14.62C149.213 14.6703 149.255 14.7087 149.283 14.7344L149.315 14.7633L149.324 14.7721L149.665 14.4061L149.973 14.0738C150.005 14.0396 150.005 14.0394 150.005 14.0394L150.002 14.0367L149.993 14.0287L149.96 13.998C149.93 13.9711 149.887 13.9314 149.83 13.8798C149.717 13.7767 149.55 13.626 149.334 13.4344C148.902 13.0514 148.274 12.505 147.491 11.8497C145.924 10.5396 143.731 8.79181 141.224 7.04299C138.719 5.29521 135.892 3.53977 133.059 2.21961C130.233 0.902913 127.361 0 124.777 0C119.625 0 115.752 3.59591 112.068 7.01758L111.993 7.08665C108.212 10.5975 104.614 13.9061 99.8898 13.9061C95.1655 13.9061 91.5673 10.5975 87.7863 7.08665L87.7119 7.01759C84.0273 3.59591 80.155 0 75.0023 0C69.8497 0 65.9774 3.59591 62.2928 7.01758L62.2184 7.08665C58.4374 10.5975 54.8392 13.9061 50.1149 13.9061C45.3906 13.9061 41.7923 10.5975 38.0114 7.08665L37.937 7.01757C34.2523 3.5959 30.3801 0 25.2274 0C22.6437 0 19.7718 0.902913 16.9461 2.21961C14.113 3.53977 11.2858 5.29521 8.78072 7.04299C6.27412 8.79181 4.08057 10.5396 2.51402 11.8497C1.73047 12.505 1.10309 13.0514 0.67108 13.4344C0.45506 13.626 0.287843 13.7767 0.174327 13.8798C0.117567 13.9314 0.0742294 13.9711 0.044925 13.998L0.0115685 14.0287L0.00063957 14.0388C0.00063957 14.0388 -0.000281781 14.0397 0.339943 14.4061Z" fill="#D8C3F9"/>
<path d="M0.339943 39.4375L0.680221 39.8039L0.682425 39.8018L0.690102 39.7947L0.721487 39.7658C0.749459 39.7401 0.791424 39.7017 0.846771 39.6514C0.957466 39.5509 1.12168 39.4028 1.33451 39.2141C1.76021 38.8367 2.38025 38.2966 3.15555 37.6482C4.70671 36.351 6.8766 34.6222 9.35291 32.8945C11.8307 31.1658 14.606 29.4447 17.3685 28.1575C20.1384 26.8668 22.8553 26.0314 25.2274 26.0314C29.9517 26.0314 33.55 29.34 37.3309 32.8509L37.4053 32.92C41.09 36.3416 44.9622 39.9375 50.1149 39.9375C55.2675 39.9375 59.1398 36.3416 62.8245 32.92L62.8988 32.8509C66.6798 29.34 70.278 26.0314 75.0023 26.0314C79.7267 26.0314 83.3249 29.34 87.1059 32.8509L87.1803 32.92C90.8649 36.3416 94.7372 39.9375 99.8898 39.9375C105.042 39.9375 108.915 36.3416 112.599 32.92L112.674 32.8509C116.455 29.34 120.053 26.0314 124.777 26.0314C127.149 26.0314 129.866 26.8668 132.636 28.1575C135.399 29.4447 138.174 31.1658 140.652 32.8945C143.128 34.6222 145.298 36.351 146.849 37.6482C147.624 38.2966 148.245 38.8367 148.67 39.2141C148.883 39.4028 149.047 39.5509 149.158 39.6514C149.213 39.7017 149.255 39.7401 149.283 39.7658L149.315 39.7947L149.324 39.8035L149.665 39.4375C150.005 39.0711 150.005 39.0709 150.005 39.0709L150.002 39.0682L149.993 39.0602L149.96 39.0294C149.93 39.0025 149.887 38.9628 149.83 38.9113C149.717 38.8081 149.55 38.6574 149.334 38.4659C148.902 38.0828 148.274 37.5364 147.491 36.8811C145.924 35.571 143.731 33.8232 141.224 32.0744C138.719 30.3266 135.892 28.5712 133.059 27.251C130.233 25.9343 127.361 25.0314 124.777 25.0314C119.625 25.0314 115.752 28.6273 112.068 32.049L111.993 32.1181C108.212 35.629 104.614 38.9375 99.8898 38.9375C95.1655 38.9375 91.5673 35.629 87.7863 32.1181L87.7119 32.049C84.0273 28.6273 80.155 25.0314 75.0023 25.0314C69.8497 25.0314 65.9774 28.6273 62.2928 32.049L62.2184 32.1181C58.4374 35.629 54.8392 38.9375 50.1149 38.9375C45.3906 38.9375 41.7923 35.629 38.0114 32.1181L37.937 32.049C34.2523 28.6273 30.3801 25.0314 25.2274 25.0314C22.6437 25.0314 19.7718 25.9343 16.9461 27.251C14.113 28.5712 11.2858 30.3266 8.78072 32.0744C6.27412 33.8232 4.08057 35.571 2.51402 36.8811C1.73047 37.5364 1.10309 38.0828 0.67108 38.4659C0.45506 38.6574 0.287843 38.8081 0.174327 38.9113C0.117567 38.9628 0.0742294 39.0025 0.044925 39.0294L0.0115685 39.0602L0.00292648 39.0682L0.00063957 39.0703C0.00063957 39.0703 -0.000281781 39.0711 0.339943 39.4375Z" fill="#D8C3F9"/>
<path d="M0.680221 64.8351L0.339943 64.4688C-0.000281781 64.1024 7.73141e-06 64.1021 7.73141e-06 64.1021L0.00292648 64.0994L0.0115685 64.0914L0.044925 64.0607C0.0742294 64.0338 0.117567 63.9941 0.174327 63.9425C0.287843 63.8394 0.45506 63.6887 0.67108 63.4971C1.10309 63.1141 1.73047 62.5677 2.51402 61.9124C4.08057 60.6023 6.27412 58.8545 8.78072 57.1057C11.2858 55.3579 14.113 53.6025 16.9461 52.2823C19.7718 50.9656 22.6437 50.0627 25.2274 50.0627C30.3801 50.0627 34.2523 53.6586 37.937 57.0803L38.0114 57.1493C41.7923 60.6602 45.3906 63.9688 50.1149 63.9688C54.8392 63.9688 58.4374 60.6602 62.2184 57.1493L62.2928 57.0803C65.9774 53.6586 69.8497 50.0627 75.0023 50.0627C80.155 50.0627 84.0273 53.6586 87.7119 57.0803L87.7863 57.1493C91.5673 60.6602 95.1655 63.9688 99.8898 63.9688C104.614 63.9688 108.212 60.6602 111.993 57.1493L112.068 57.0803C115.752 53.6586 119.625 50.0627 124.777 50.0627C127.361 50.0627 130.233 50.9656 133.059 52.2823C135.892 53.6025 138.719 55.3579 141.224 57.1057C143.731 58.8545 145.924 60.6023 147.491 61.9124C148.274 62.5677 148.902 63.1141 149.334 63.4971C149.55 63.6887 149.717 63.8394 149.83 63.9425C149.887 63.9941 149.93 64.0338 149.96 64.0607L149.993 64.0914L150.004 64.1015C150.004 64.1015 150.005 64.1024 149.665 64.4688L149.324 64.8351L149.322 64.8331L149.315 64.826L149.283 64.7971L149.263 64.7783L149.222 64.7411C149.203 64.7239 149.182 64.7044 149.158 64.6827C149.047 64.5821 148.883 64.4341 148.67 64.2454C148.245 63.8679 147.624 63.3279 146.849 62.6795C145.298 61.3822 143.128 59.6535 140.652 57.9258C138.174 56.197 135.399 54.476 132.636 53.1887C129.866 51.898 127.149 51.0627 124.777 51.0627C120.053 51.0627 116.455 54.3712 112.674 57.8821L112.599 57.9512C108.915 61.3729 105.042 64.9688 99.8898 64.9688C94.7372 64.9688 90.8649 61.3729 87.1803 57.9512L87.1059 57.8821C83.3249 54.3712 79.7267 51.0627 75.0023 51.0627C70.278 51.0627 66.6798 54.3712 62.8988 57.8821L62.8245 57.9512C59.1398 61.3729 55.2675 64.9688 50.1149 64.9688C44.9622 64.9688 41.09 61.3729 37.4053 57.9512L37.3309 57.8821C33.55 54.3712 29.9517 51.0627 25.2274 51.0627C22.8553 51.0627 20.1384 51.898 17.3685 53.1887C14.606 54.476 11.8307 56.197 9.35291 57.9258C6.8766 59.6535 4.70671 61.3822 3.15555 62.6795C2.38025 63.3279 1.76021 63.8679 1.33451 64.2454C1.12168 64.4341 0.957466 64.5821 0.846771 64.6827C0.791424 64.733 0.749459 64.7714 0.721487 64.7971L0.690102 64.826L0.680221 64.8351Z" fill="#D8C3F9"/>
<path d="M0.339943 89.4994L0.680221 89.8658L0.690102 89.8566L0.721487 89.8277C0.749459 89.802 0.791424 89.7636 0.846771 89.7133C0.957466 89.6127 1.12168 89.4647 1.33451 89.276C1.76021 88.8986 2.38025 88.3585 3.15555 87.7101C4.70671 86.4129 6.8766 84.6841 9.35291 82.9564C11.8307 81.2277 14.606 79.5066 17.3685 78.2194C20.1384 76.9287 22.8553 76.0933 25.2274 76.0933C29.9517 76.0933 33.55 79.4019 37.3309 82.9128L37.4053 82.9818C41.09 86.4035 44.9622 89.9994 50.1149 89.9994C55.2675 89.9994 59.1398 86.4035 62.8245 82.9818L62.8988 82.9128C66.6798 79.4019 70.278 76.0933 75.0023 76.0933C79.7267 76.0933 83.3249 79.4019 87.1059 82.9128L87.1803 82.9819C90.8649 86.4035 94.7372 89.9994 99.8898 89.9994C105.042 89.9994 108.915 86.4035 112.599 82.9819L112.674 82.9128C116.455 79.4019 120.053 76.0933 124.777 76.0933C127.149 76.0933 129.866 76.9287 132.636 78.2194C135.399 79.5066 138.174 81.2277 140.652 82.9564C143.128 84.6841 145.298 86.4129 146.849 87.7101C147.624 88.3585 148.245 88.8986 148.67 89.276C148.883 89.4647 149.047 89.6127 149.158 89.7133C149.213 89.7636 149.255 89.802 149.283 89.8277L149.315 89.8566L149.322 89.8637L149.324 89.8654L149.665 89.4994C150.005 89.133 150.005 89.1328 150.005 89.1328L150.002 89.13L149.993 89.1221L149.96 89.0913C149.93 89.0644 149.887 89.0247 149.83 88.9732C149.717 88.87 149.55 88.7193 149.334 88.5278C148.902 88.1447 148.274 87.5983 147.491 86.943C145.924 85.6329 143.731 83.8851 141.224 82.1363C138.719 80.3885 135.892 78.6331 133.059 77.3129C130.233 75.9962 127.361 75.0933 124.777 75.0933C119.625 75.0933 115.752 78.6892 112.068 82.1109L111.993 82.18C108.212 85.6908 104.614 88.9994 99.8898 88.9994C95.1655 88.9994 91.5673 85.6908 87.7863 82.18L87.7119 82.1109C84.0273 78.6892 80.155 75.0933 75.0023 75.0933C69.8497 75.0933 65.9774 78.6892 62.2928 82.1109L62.2184 82.18C58.4374 85.6908 54.8392 88.9994 50.1149 88.9994C45.3906 88.9994 41.7923 85.6908 38.0114 82.18L37.937 82.1109C34.2523 78.6892 30.3801 75.0933 25.2274 75.0933C22.6437 75.0933 19.7718 75.9962 16.9461 77.3129C14.113 78.6331 11.2858 80.3885 8.78072 82.1363C6.27412 83.8851 4.08057 85.6329 2.51402 86.943C1.73047 87.5983 1.10309 88.1447 0.67108 88.5278C0.45506 88.7193 0.287843 88.87 0.174327 88.9732C0.117567 89.0247 0.0742294 89.0644 0.044925 89.0913L0.0115685 89.1221L0.00292648 89.13L0.00063957 89.1322C0.00063957 89.1322 -0.000281781 89.133 0.339943 89.4994Z" fill="#D8C3F9"/>
</svg>
