<svg width="65" height="65" viewBox="0 0 65 65" fill="none" xmlns="http://www.w3.org/2000/svg">
<path d="M21.2417 10.2972C26.7361 7.04341 29.4833 5.4165 32.5 5.4165C35.5167 5.4165 38.2639 7.04341 43.7583 10.2972L45.6167 11.3977C51.1111 14.6516 53.8583 16.2785 55.3667 18.9582C56.875 21.6379 56.875 24.8917 56.875 31.3993V33.6003C56.875 40.108 56.875 43.3618 55.3667 46.0415C53.8583 48.7212 51.1111 50.3481 45.6167 53.6019L43.7583 54.7025C38.2639 57.9563 35.5167 59.5832 32.5 59.5832C29.4833 59.5832 26.7361 57.9563 21.2417 54.7024L19.3833 53.6019C13.8889 50.3481 11.1417 48.7212 9.63333 46.0415C8.125 43.3618 8.125 40.108 8.125 33.6003V31.3993C8.125 24.8917 8.125 21.6379 9.63333 18.9582C11.1417 16.2785 13.8889 14.6516 19.3833 11.3977L21.2417 10.2972Z" stroke="#DBBFFF" stroke-width="1.5"/>
<path d="M32.5918 42.0488V40.0713C33.959 40.0225 34.8542 39.4854 35.2773 38.46C35.4076 38.1019 35.4727 37.7113 35.4727 37.2881C35.4727 35.5628 34.4798 34.627 32.4941 34.4805C32.2988 34.4642 32.1035 34.4561 31.9082 34.4561V32.5029C34.2682 32.4867 35.4564 31.5508 35.4727 29.6953C35.4727 28.3281 34.8704 27.4492 33.666 27.0586C33.3242 26.9609 32.9661 26.904 32.5918 26.8877V24.9102C34.252 24.9102 35.5459 25.4717 36.4736 26.5947C37.141 27.4411 37.4746 28.4583 37.4746 29.6465C37.4583 31.4043 36.8561 32.682 35.668 33.4795C36.8724 34.3096 37.4746 35.5872 37.4746 37.3125C37.4746 39.1029 36.7747 40.4294 35.375 41.292C34.5612 41.7965 33.6335 42.0488 32.5918 42.0488ZM26.8789 37.6787L28.7344 37.3125C28.9134 38.7122 29.5726 39.5993 30.7119 39.9736C30.9235 40.0387 31.1025 40.0713 31.249 40.0713V42.0488C29.8167 41.9837 28.6611 41.349 27.7822 40.1445C27.2288 39.3796 26.9277 38.5576 26.8789 37.6787ZM26.8789 29.3047C26.9603 28.0026 27.5055 26.904 28.5146 26.0088C29.3285 25.3252 30.2399 24.959 31.249 24.9102V26.8877C30.126 27.0342 29.361 27.6445 28.9541 28.7188C28.8564 29.028 28.7832 29.3454 28.7344 29.6709L26.8789 29.3047Z" fill="#DBBFFF"/>
</svg>
