<svg width="283" height="283" viewBox="0 0 283 283" fill="none" xmlns="http://www.w3.org/2000/svg">
<rect x="91.5" y="41.5" width="99" height="199" rx="49.5" stroke="#D8C3F9"/>
<path d="M91 91V91C63.3858 91 41 113.386 41 141V141C41 168.614 63.3858 191 91 191H191C218.614 191 241 168.614 241 141V141C241 113.386 218.614 91 191 91V91" stroke="#D8C3F9"/>
<rect x="36.0625" y="106.066" width="99" height="199" rx="49.5" transform="rotate(-45 36.0625 106.066)" stroke="#D8C3F9"/>
<path d="M70.7107 141.421V141.421C51.1845 160.948 51.1845 192.606 70.7107 212.132V212.132C90.2369 231.658 121.895 231.658 141.421 212.132L212.132 141.421C231.658 121.895 231.658 90.2368 212.132 70.7106V70.7106C192.606 51.1844 160.948 51.1844 141.421 70.7106V70.7106" stroke="#D8C3F9"/>
</svg>
