<svg width="65" height="65" viewBox="0 0 65 65" fill="none" xmlns="http://www.w3.org/2000/svg">
<path d="M21.2417 10.2972C26.7361 7.04341 29.4833 5.4165 32.5 5.4165C35.5167 5.4165 38.2639 7.04341 43.7583 10.2972L45.6167 11.3977C51.1111 14.6516 53.8583 16.2785 55.3667 18.9582C56.875 21.6379 56.875 24.8917 56.875 31.3993V33.6003C56.875 40.108 56.875 43.3618 55.3667 46.0415C53.8583 48.7212 51.1111 50.3481 45.6167 53.6019L43.7583 54.7025C38.2639 57.9563 35.5167 59.5832 32.5 59.5832C29.4833 59.5832 26.7361 57.9563 21.2417 54.7024L19.3833 53.6019C13.8889 50.3481 11.1417 48.7212 9.63333 46.0415C8.125 43.3618 8.125 40.108 8.125 33.6003V31.3993C8.125 24.8917 8.125 21.6379 9.63333 18.9582C11.1417 16.2785 13.8889 14.6516 19.3833 11.3977L21.2417 10.2972Z" stroke="#DBBFFF" stroke-width="1.5"/>
<path d="M26.8789 29.3047C26.9603 28.0026 27.5055 26.904 28.5146 26.0088C29.3285 25.3252 30.2399 24.959 31.249 24.9102V26.8877C30.7445 26.8877 30.248 27.0993 29.7598 27.5225C29.1901 28.0433 28.8483 28.7594 28.7344 29.6709L26.8789 29.3047ZM27.3672 42V39.9248H37.2305V42H27.3672ZM27.3672 38.7773C27.3672 37.0358 28.5146 35.4733 30.8096 34.0898C31.0212 33.9596 31.3141 33.7969 31.6885 33.6016C32.0465 33.39 32.2907 33.2435 32.4209 33.1621C33.5602 32.4622 34.2926 31.9414 34.6182 31.5996C35.139 31.0462 35.3994 30.4603 35.3994 29.8418C35.3994 28.263 34.7402 27.3109 33.4219 26.9854C33.1289 26.9202 32.8115 26.8877 32.4697 26.8877V24.9102C34.7809 24.9102 36.3027 25.7972 37.0352 27.5713C37.2956 28.2549 37.4258 29.0036 37.4258 29.8174C37.4095 31.1846 36.8643 32.332 35.79 33.2598C35.4482 33.5365 35.0251 33.8376 34.5205 34.1631C34.3089 34.2933 33.9508 34.4886 33.4463 34.749C31.9652 35.5465 30.9723 36.2383 30.4678 36.8242C29.9469 37.4264 29.6865 38.0775 29.6865 38.7773H27.3672Z" fill="#DBBFFF"/>
</svg>
