<svg width="77" height="63" viewBox="0 0 77 63" fill="none" xmlns="http://www.w3.org/2000/svg">
<path d="M75.2904 2C74.9674 5.2303 69.4539 11.7738 66.4836 12.7638" stroke="#FB4298" stroke-width="3" stroke-linecap="round"/>
<path d="M59.4077 19.1167C58.4149 19.3153 57.5864 20.5638 56.7982 21.1331C55.9238 21.7646 54.9516 22.3867 54.1888 23.1495C53.1524 24.1858 51.5352 25.062 50.156 25.5217" stroke="#FB4298" stroke-width="3" stroke-linecap="round"/>
<path d="M41.3788 31.2148C39.108 31.2148 36.5913 33.462 34.4994 34.2987" stroke="#FB4298" stroke-width="3" stroke-linecap="round"/>
<path d="M23.5872 40.2295C22.0745 40.2295 20.2754 42.193 19.3172 43.1948C18.994 43.5326 16.4639 46.1469 16.2333 45.6856" stroke="#FB4298" stroke-width="3" stroke-linecap="round"/>
<path d="M6.74444 53.751C5.88002 53.859 4.31614 56.9814 3.91096 57.6651C3.4047 58.5194 2.87012 60.907 2 61.3421" stroke="#FB4298" stroke-width="3" stroke-linecap="round"/>
</svg>
