<svg width="249" height="157" viewBox="0 0 249 157" fill="none" xmlns="http://www.w3.org/2000/svg">
<path d="M247.312 1.62354C247.312 12.7614 246.799 16.5392 240.32 26.2572C237.172 30.9804 234.156 38.084 227.317 38.084" stroke="#FB4298" stroke-width="3" stroke-linecap="round"/>
<path d="M213.204 45.1406C206.268 45.1406 200.755 52.2021 194.32 54.6151C188.93 56.6363 185.112 60.4305 179.095 60.4305" stroke="#FB4298" stroke-width="3" stroke-linecap="round"/>
<path d="M163.806 68.6641C157.585 68.6641 152.534 72.149 146.751 73.434C142.487 74.3816 136.917 76.2274 133.226 78.0732" stroke="#FB4298" stroke-width="3" stroke-linecap="round"/>
<path d="M108.527 88.6582C96.9836 88.6582 88.5734 93.3491 77.947 96.8912" stroke="#FB4298" stroke-width="3" stroke-linecap="round"/>
<path d="M53.248 108.652C42.134 108.652 34.3552 123.183 25.0205 126.295" stroke="#FB4298" stroke-width="3" stroke-linecap="round"/>
<path d="M9.73069 135.704C9.32222 142.648 3.62094 148.153 1.49768 154.522" stroke="#FB4298" stroke-width="3" stroke-linecap="round"/>
</svg>
