<svg width="263" height="253" viewBox="0 0 263 253" fill="none" xmlns="http://www.w3.org/2000/svg">
<path d="M1.56909 5.90866C10.0331 5.90866 18.9616 6.71242 27.3573 5.64818C34.6699 4.72123 40.9806 2.39209 48.4567 2.39209" stroke="#FB4298" stroke-width="3" stroke-linecap="round"/>
<path d="M61.3508 3.56445H91.8278" stroke="#FB4298" stroke-width="3" stroke-linecap="round"/>
<path d="M115.272 4.73665C122.738 4.73665 130.168 4.39589 137.543 5.64836C141.734 6.35996 146.208 8.25322 150.437 8.25322" stroke="#FB4298" stroke-width="3" stroke-linecap="round"/>
<path d="M171.537 16.4585C177.334 16.4585 181.397 17.0253 186.775 19.7146C189.886 21.2698 195.091 24.6638 198.497 24.6638" stroke="#FB4298" stroke-width="3" stroke-linecap="round"/>
<path d="M216.08 32.8691C222.405 32.8691 228.833 32.229 234.575 35.474C236.589 36.6124 248.263 45.2293 248.901 44.591" stroke="#FB4298" stroke-width="3" stroke-linecap="round"/>
<path d="M259.451 56.313C259.451 62.9535 263.632 74.0616 258.279 78.6497C254.199 82.1472 246.135 90.3065 240.696 90.3065" stroke="#FB4298" stroke-width="3" stroke-linecap="round"/>
<path d="M225.458 93.8232C216.537 93.8232 208.277 97.0715 200.842 102.029" stroke="#FB4298" stroke-width="3" stroke-linecap="round"/>
<path d="M178.57 110.233C169.097 110.233 163.92 114.628 156.298 118.439" stroke="#FB4298" stroke-width="3" stroke-linecap="round"/>
<path d="M136.371 130.161C132.001 130.161 128.698 134.318 125.821 137.194" stroke="#FB4298" stroke-width="3" stroke-linecap="round"/>
<path d="M112.927 147.744C104.348 147.744 99.4454 156.341 93 160.638" stroke="#FB4298" stroke-width="3" stroke-linecap="round"/>
<path d="M88.3113 174.704C88.3113 179.344 89.1653 181.806 90.6557 185.905C91.8085 189.075 95.1668 190.759 96.5166 193.459" stroke="#FB4298" stroke-width="3" stroke-linecap="round"/>
<path d="M109.411 202.837C109.657 204.805 121.168 208.13 123.477 209.284C128.109 211.6 133.771 212.911 138.715 214.559" stroke="#FB4298" stroke-width="3" stroke-linecap="round"/>
<path d="M152.782 219.248C162 219.708 171.98 223.565 179.156 229.146C185.521 234.097 185.603 240.845 185.603 248.552" stroke="#FB4298" stroke-width="3" stroke-linecap="round"/>
<path d="M176.77 239.65C178.296 239.803 179.189 241.366 180.242 242.259C181.344 243.195 182.544 243.969 183.407 245.164C184.314 246.419 185.213 247.567 186.039 248.897C186.418 249.506 186.586 250.502 187.026 251.041C187.292 251.365 186.981 250.787 186.981 250.474C186.981 248.802 186.915 247.123 187.299 245.482C187.851 243.124 189.18 241 190.544 239.037C191.142 238.175 192.075 235.705 193.108 235.361" stroke="#FB4298" stroke-width="3" stroke-linecap="round"/>
</svg>
