<svg width="922" height="943" viewBox="0 0 922 943" fill="none" xmlns="http://www.w3.org/2000/svg">
<path fill-rule="evenodd" clip-rule="evenodd" d="M319.311 207.492C395.087 147.587 417.592 -2.53239 514.125 0.956548C613.796 4.55891 630.347 157.984 707.232 221.513C766.507 270.491 871.151 258.367 907.593 326.074C943.991 393.7 897.822 474.997 884.359 550.606C871.981 620.12 868.538 691.054 831.862 751.388C791.961 817.028 738.378 876.012 667.934 906.641C594.4 938.613 505.061 959.909 432.958 924.829C361.984 890.299 369.194 778.017 306.096 730.6C220.812 666.509 66.6566 705.412 16.0288 611.508C-30.3954 525.402 33.7144 412.554 92.4424 334.319C145.53 263.599 249.941 262.333 319.311 207.492Z" fill="#36D4CC" fill-opacity="0.8"/>
</svg>
