<svg width="532" height="270" viewBox="0 0 532 270" fill="none" xmlns="http://www.w3.org/2000/svg">
<mask id="path-1-outside-1_666_2317" maskUnits="userSpaceOnUse" x="9.32617" y="70.0529" width="514" height="143" fill="black">
<rect fill="white" x="9.32617" y="70.0529" width="514" height="143"/>
<path d="M202.997 134.053H179.819V111.261H160.503V134.053H137.325V91.5592H129.599V72.2439H160.503V95.036H179.819V72.2439H202.997V134.053ZM276.395 134.053H252.444L250.436 126.327H232.82L230.811 134.053H206.86L217.986 91.5592H199.134V72.2439H260.17L276.395 134.053ZM246.341 110.875L241.628 92.8727L236.915 110.875H246.341ZM341.162 91.5592H308.326C305.184 91.5592 302.403 92.7181 299.982 95.036C297.561 97.3023 296.35 100.006 296.35 103.148C296.35 106.29 297.535 109.02 299.904 111.338C302.325 113.604 305.132 114.738 308.326 114.738H333.436V134.053H308.326C299.57 134.053 291.972 131.117 285.534 125.245C278.838 119.167 275.49 111.802 275.49 103.148C275.49 94.4952 278.838 87.1296 285.534 81.0517C292.024 75.1798 299.621 72.2439 308.326 72.2439H341.162V91.5592ZM403.001 134.053H386.776C381.626 134.053 376.475 131.478 371.324 126.327L360.508 115.51V134.053H337.329V91.5592H329.603V72.2439H360.508V92.4864L374.724 72.2439H403.001L380.441 104.539L389.712 113.81C390.33 114.429 391.592 114.738 393.498 114.738H403.001V134.053ZM88.7046 211.053H64.7536L62.7448 203.327H45.1292L43.1204 211.053H19.1694L30.2951 168.559H11.4433V149.244H72.4797L88.7046 211.053ZM58.65 187.875L53.937 169.873L49.2241 187.875H58.65ZM154.196 180.148C154.196 188.802 150.848 196.167 144.152 202.245C137.662 208.117 130.064 211.053 121.36 211.053C112.603 211.053 105.006 208.117 98.5675 202.245C91.8715 196.167 88.5235 188.802 88.5235 180.148V168.559H80.7974V149.244H109.384V180.148C109.384 183.29 110.569 186.02 112.938 188.338C115.359 190.604 118.166 191.738 121.36 191.738C124.502 191.738 127.283 190.604 129.704 188.338C132.125 186.02 133.335 183.29 133.335 180.148V149.244H154.196V180.148ZM223.731 193.051C223.731 198.356 221.387 202.76 216.7 206.263C212.425 209.456 207.557 211.053 202.098 211.053H158.059V168.559H150.333V149.244H198.235C203.694 149.244 208.588 150.866 212.914 154.111C217.55 157.665 219.868 162.095 219.868 167.4C219.868 171.521 218.606 175.178 216.082 178.371C221.181 181.822 223.731 186.716 223.731 193.051ZM199.78 169.332C199.78 168.096 199.316 167.014 198.389 166.087C197.462 165.16 196.38 164.696 195.144 164.696H179.692V173.968H195.144C196.38 173.968 197.462 173.504 198.389 172.577C199.316 171.65 199.78 170.568 199.78 169.332ZM200.552 190.965C200.552 189.729 200.089 188.647 199.162 187.72C198.235 186.793 197.153 186.329 195.917 186.329H179.692V195.601H195.917C197.153 195.601 198.235 195.137 199.162 194.21C200.089 193.283 200.552 192.201 200.552 190.965ZM300.992 168.559H260.43C257.288 168.559 254.507 169.718 252.086 172.036C249.665 174.302 248.454 177.006 248.454 180.148C248.454 183.29 249.639 186.02 252.008 188.338C254.429 190.604 257.236 191.738 260.43 191.738H270.088V180.148H293.266V211.053H260.43C251.674 211.053 244.076 208.117 237.638 202.245C230.942 196.167 227.594 188.802 227.594 180.148C227.594 171.495 230.942 164.13 237.638 158.052C244.076 152.18 251.674 149.244 260.43 149.244H300.992V168.559ZM432.336 149.244L391.388 211.053H366.664L395.869 167.014H366.664V149.244H432.336ZM451.652 203.327C451.652 205.439 450.879 207.267 449.334 208.812C447.84 210.306 446.037 211.053 443.926 211.053C441.814 211.053 439.985 210.306 438.44 208.812C436.946 207.267 436.199 205.439 436.199 203.327C436.199 201.215 436.946 199.412 438.44 197.919C439.985 196.373 441.814 195.601 443.926 195.601C446.037 195.601 447.84 196.373 449.334 197.919C450.879 199.412 451.652 201.215 451.652 203.327ZM521.157 180.148C521.157 188.802 517.809 196.167 511.113 202.245C504.674 208.117 497.077 211.053 488.321 211.053C479.564 211.053 471.967 208.117 465.529 202.245C458.833 196.167 455.485 188.802 455.485 180.148C455.485 171.495 458.833 164.13 465.529 158.052C471.967 152.18 479.564 149.244 488.321 149.244C497.077 149.244 504.674 152.18 511.113 158.052C517.809 164.13 521.157 171.495 521.157 180.148ZM500.296 180.148C500.296 177.006 499.086 174.302 496.665 172.036C494.244 169.718 491.463 168.559 488.321 168.559C485.179 168.559 482.397 169.718 479.976 172.036C477.556 174.302 476.345 177.006 476.345 180.148C476.345 183.29 477.53 186.02 479.899 188.338C482.32 190.604 485.127 191.738 488.321 191.738C491.463 191.738 494.244 190.604 496.665 188.338C499.086 186.02 500.296 183.29 500.296 180.148Z"/>
</mask>
<path d="M202.997 134.053V136.053H204.997V134.053H202.997ZM179.819 134.053H177.819V136.053H179.819V134.053ZM179.819 111.261H181.819V109.261H179.819V111.261ZM160.503 111.261V109.261H158.503V111.261H160.503ZM160.503 134.053V136.053H162.503V134.053H160.503ZM137.325 134.053H135.325V136.053H137.325V134.053ZM137.325 91.5592H139.325V89.5592H137.325V91.5592ZM129.599 91.5592H127.599V93.5592H129.599V91.5592ZM129.599 72.2439V70.2439H127.599V72.2439H129.599ZM160.503 72.2439H162.503V70.2439H160.503V72.2439ZM160.503 95.036H158.503V97.036H160.503V95.036ZM179.819 95.036V97.036H181.819V95.036H179.819ZM179.819 72.2439V70.2439H177.819V72.2439H179.819ZM202.997 72.2439H204.997V70.2439H202.997V72.2439ZM202.997 132.053H179.819V136.053H202.997V132.053ZM181.819 134.053V111.261H177.819V134.053H181.819ZM179.819 109.261H160.503V113.261H179.819V109.261ZM158.503 111.261V134.053H162.503V111.261H158.503ZM160.503 132.053H137.325V136.053H160.503V132.053ZM139.325 134.053V91.5592H135.325V134.053H139.325ZM137.325 89.5592H129.599V93.5592H137.325V89.5592ZM131.599 91.5592V72.2439H127.599V91.5592H131.599ZM129.599 74.2439H160.503V70.2439H129.599V74.2439ZM158.503 72.2439V95.036H162.503V72.2439H158.503ZM160.503 97.036H179.819V93.036H160.503V97.036ZM181.819 95.036V72.2439H177.819V95.036H181.819ZM179.819 74.2439H202.997V70.2439H179.819V74.2439ZM200.997 72.2439V134.053H204.997V72.2439H200.997ZM276.395 134.053V136.053H278.988L278.33 133.545L276.395 134.053ZM252.444 134.053L250.509 134.556L250.898 136.053H252.444V134.053ZM250.436 126.327L252.371 125.824L251.982 124.327H250.436V126.327ZM232.82 126.327V124.327H231.273L230.884 125.824L232.82 126.327ZM230.811 134.053V136.053H232.358L232.747 134.556L230.811 134.053ZM206.86 134.053L204.925 133.546L204.269 136.053H206.86V134.053ZM217.986 91.5592L219.921 92.0658L220.577 89.5592H217.986V91.5592ZM199.134 91.5592H197.134V93.5592H199.134V91.5592ZM199.134 72.2439V70.2439H197.134V72.2439H199.134ZM260.17 72.2439L262.105 71.7361L261.713 70.2439H260.17V72.2439ZM246.341 110.875V112.875H248.932L248.275 110.368L246.341 110.875ZM241.628 92.8727L243.563 92.3661L241.628 84.9759L239.693 92.3661L241.628 92.8727ZM236.915 110.875L234.98 110.368L234.324 112.875H236.915V110.875ZM276.395 132.053H252.444V136.053H276.395V132.053ZM254.38 133.55L252.371 125.824L248.5 126.83L250.509 134.556L254.38 133.55ZM250.436 124.327H232.82V128.327H250.436V124.327ZM230.884 125.824L228.875 133.55L232.747 134.556L234.756 126.83L230.884 125.824ZM230.811 132.053H206.86V136.053H230.811V132.053ZM208.795 134.56L219.921 92.0658L216.051 91.0527L204.925 133.546L208.795 134.56ZM217.986 89.5592H199.134V93.5592H217.986V89.5592ZM201.134 91.5592V72.2439H197.134V91.5592H201.134ZM199.134 74.2439H260.17V70.2439H199.134V74.2439ZM258.236 72.7517L274.461 134.561L278.33 133.545L262.105 71.7361L258.236 72.7517ZM248.275 110.368L243.563 92.3661L239.693 93.3792L244.406 111.381L248.275 110.368ZM239.693 92.3661L234.98 110.368L238.85 111.381L243.563 93.3792L239.693 92.3661ZM236.915 112.875H246.341V108.875H236.915V112.875ZM341.162 91.5592V93.5592H343.162V91.5592H341.162ZM299.982 95.036L301.349 96.496L301.357 96.4884L301.365 96.4806L299.982 95.036ZM299.904 111.338L298.506 112.768L298.522 112.783L298.538 112.798L299.904 111.338ZM333.436 114.738H335.436V112.738H333.436V114.738ZM333.436 134.053V136.053H335.436V134.053H333.436ZM285.534 125.245L286.882 123.767L286.878 123.764L285.534 125.245ZM285.534 81.0517L284.192 79.5686L284.19 79.5708L285.534 81.0517ZM341.162 72.2439H343.162V70.2439H341.162V72.2439ZM341.162 89.5592H308.326V93.5592H341.162V89.5592ZM308.326 89.5592C304.632 89.5592 301.364 90.9433 298.599 93.5914L301.365 96.4806C303.441 94.493 305.736 93.5592 308.326 93.5592V89.5592ZM298.615 93.5759C295.815 96.1969 294.35 99.4196 294.35 103.148H298.35C298.35 100.593 299.306 98.4078 301.349 96.496L298.615 93.5759ZM294.35 103.148C294.35 106.861 295.775 110.097 298.506 112.768L301.303 109.908C299.295 107.944 298.35 105.72 298.35 103.148H294.35ZM298.538 112.798C301.313 115.397 304.604 116.738 308.326 116.738V112.738C305.661 112.738 303.337 111.812 301.271 109.878L298.538 112.798ZM308.326 116.738H333.436V112.738H308.326V116.738ZM331.436 114.738V134.053H335.436V114.738H331.436ZM333.436 132.053H308.326V136.053H333.436V132.053ZM308.326 132.053C300.066 132.053 292.95 129.301 286.882 123.767L284.186 126.723C290.995 132.933 299.074 136.053 308.326 136.053V132.053ZM286.878 123.764C280.578 118.046 277.49 111.21 277.49 103.148H273.49C273.49 112.394 277.097 120.288 284.19 126.726L286.878 123.764ZM277.49 103.148C277.49 95.0873 280.578 88.2507 286.878 82.5326L284.19 79.5708C277.097 86.0084 273.49 93.903 273.49 103.148H277.49ZM286.876 82.5348C293 76.9936 300.12 74.2439 308.326 74.2439V70.2439C299.122 70.2439 291.047 73.3661 284.192 79.5686L286.876 82.5348ZM308.326 74.2439H341.162V70.2439H308.326V74.2439ZM339.162 72.2439V91.5592H343.162V72.2439H339.162ZM403.001 134.053V136.053H405.001V134.053H403.001ZM371.324 126.327L372.738 124.913L372.738 124.913L371.324 126.327ZM360.508 115.51L361.922 114.096L358.508 110.682V115.51H360.508ZM360.508 134.053V136.053H362.508V134.053H360.508ZM337.329 134.053H335.329V136.053H337.329V134.053ZM337.329 91.5592H339.329V89.5592H337.329V91.5592ZM329.603 91.5592H327.603V93.5592H329.603V91.5592ZM329.603 72.2439V70.2439H327.603V72.2439H329.603ZM360.508 72.2439H362.508V70.2439H360.508V72.2439ZM360.508 92.4864H358.508V98.8141L362.144 93.6358L360.508 92.4864ZM374.724 72.2439V70.2439H373.684L373.087 71.0945L374.724 72.2439ZM403.001 72.2439L404.641 73.3892L406.838 70.2439H403.001V72.2439ZM380.441 104.539L378.801 103.394L377.841 104.768L379.027 105.953L380.441 104.539ZM389.712 113.81L391.127 112.396L391.127 112.396L389.712 113.81ZM403.001 114.738H405.001V112.738H403.001V114.738ZM403.001 132.053H386.776V136.053H403.001V132.053ZM386.776 132.053C382.343 132.053 377.671 129.845 372.738 124.913L369.91 127.741C375.279 133.11 380.908 136.053 386.776 136.053V132.053ZM372.738 124.913L361.922 114.096L359.093 116.924L369.91 127.741L372.738 124.913ZM358.508 115.51V134.053H362.508V115.51H358.508ZM360.508 132.053H337.329V136.053H360.508V132.053ZM339.329 134.053V91.5592H335.329V134.053H339.329ZM337.329 89.5592H329.603V93.5592H337.329V89.5592ZM331.603 91.5592V72.2439H327.603V91.5592H331.603ZM329.603 74.2439H360.508V70.2439H329.603V74.2439ZM358.508 72.2439V92.4864H362.508V72.2439H358.508ZM362.144 93.6358L376.36 73.3933L373.087 71.0945L358.871 91.3369L362.144 93.6358ZM374.724 74.2439H403.001V70.2439H374.724V74.2439ZM401.362 71.0986L378.801 103.394L382.08 105.684L404.641 73.3892L401.362 71.0986ZM379.027 105.953L388.298 115.225L391.127 112.396L381.855 103.125L379.027 105.953ZM388.298 115.225C388.962 115.889 389.822 116.246 390.647 116.448C391.487 116.654 392.452 116.738 393.498 116.738V112.738C392.638 112.738 392.019 112.666 391.598 112.563C391.161 112.456 391.08 112.35 391.127 112.396L388.298 115.225ZM393.498 116.738H403.001V112.738H393.498V116.738ZM401.001 114.738V134.053H405.001V114.738H401.001ZM88.7046 211.053V213.053H91.2974L90.6391 210.545L88.7046 211.053ZM64.7536 211.053L62.818 211.556L63.2071 213.053H64.7536V211.053ZM62.7448 203.327L64.6805 202.824L64.2913 201.327H62.7448V203.327ZM45.1292 203.327V201.327H43.5827L43.1936 202.824L45.1292 203.327ZM43.1204 211.053V213.053H44.6669L45.0561 211.556L43.1204 211.053ZM19.1694 211.053L17.2346 210.546L16.5784 213.053H19.1694V211.053ZM30.2951 168.559L32.2298 169.066L32.8861 166.559H30.2951V168.559ZM11.4433 168.559H9.4433V170.559H11.4433V168.559ZM11.4433 149.244V147.244H9.4433V149.244H11.4433ZM72.4797 149.244L74.4142 148.736L74.0225 147.244H72.4797V149.244ZM58.65 187.875V189.875H61.241L60.5848 187.368L58.65 187.875ZM53.937 169.873L55.8718 169.366L53.937 161.976L52.0022 169.366L53.937 169.873ZM49.2241 187.875L47.2893 187.368L46.6331 189.875H49.2241V187.875ZM88.7046 209.053H64.7536V213.053H88.7046V209.053ZM66.6893 210.55L64.6805 202.824L60.8092 203.83L62.818 211.556L66.6893 210.55ZM62.7448 201.327H45.1292V205.327H62.7448V201.327ZM43.1936 202.824L41.1848 210.55L45.0561 211.556L47.0649 203.83L43.1936 202.824ZM43.1204 209.053H19.1694V213.053H43.1204V209.053ZM21.1042 211.56L32.2298 169.066L28.3603 168.053L17.2346 210.546L21.1042 211.56ZM30.2951 166.559H11.4433V170.559H30.2951V166.559ZM13.4433 168.559V149.244H9.4433V168.559H13.4433ZM11.4433 151.244H72.4797V147.244H11.4433V151.244ZM70.5453 149.752L86.7702 211.561L90.6391 210.545L74.4142 148.736L70.5453 149.752ZM60.5848 187.368L55.8718 169.366L52.0022 170.379L56.7152 188.381L60.5848 187.368ZM52.0022 169.366L47.2893 187.368L51.1589 188.381L55.8718 170.379L52.0022 169.366ZM49.2241 189.875H58.65V185.875H49.2241V189.875ZM144.152 202.245L145.494 203.728L145.496 203.726L144.152 202.245ZM98.5675 202.245L99.9152 200.767L99.9117 200.764L98.5675 202.245ZM88.5235 168.559H90.5235V166.559H88.5235V168.559ZM80.7974 168.559H78.7974V170.559H80.7974V168.559ZM80.7974 149.244V147.244H78.7974V149.244H80.7974ZM109.384 149.244H111.384V147.244H109.384V149.244ZM112.938 188.338L111.54 189.768L111.555 189.783L111.571 189.798L112.938 188.338ZM129.704 188.338L131.071 189.798L131.079 189.79L131.087 189.783L129.704 188.338ZM133.335 149.244V147.244H131.335V149.244H133.335ZM154.196 149.244H156.196V147.244H154.196V149.244ZM152.196 180.148C152.196 188.21 149.107 195.046 142.807 200.764L145.496 203.726C152.588 197.288 156.196 189.394 156.196 180.148H152.196ZM142.81 200.762C136.685 206.303 129.565 209.053 121.36 209.053V213.053C130.563 213.053 138.638 209.931 145.494 203.728L142.81 200.762ZM121.36 209.053C113.099 209.053 105.983 206.301 99.9152 200.767L97.2198 203.723C104.029 209.933 112.107 213.053 121.36 213.053V209.053ZM99.9117 200.764C93.6121 195.046 90.5235 188.21 90.5235 180.148H86.5235C86.5235 189.394 90.131 197.288 97.2233 203.726L99.9117 200.764ZM90.5235 180.148V168.559H86.5235V180.148H90.5235ZM88.5235 166.559H80.7974V170.559H88.5235V166.559ZM82.7974 168.559V149.244H78.7974V168.559H82.7974ZM80.7974 151.244H109.384V147.244H80.7974V151.244ZM107.384 149.244V180.148H111.384V149.244H107.384ZM107.384 180.148C107.384 183.861 108.809 187.097 111.54 189.768L114.337 186.908C112.328 184.944 111.384 182.72 111.384 180.148H107.384ZM111.571 189.798C114.347 192.397 117.637 193.738 121.36 193.738V189.738C118.695 189.738 116.371 188.812 114.305 186.878L111.571 189.798ZM121.36 193.738C125.039 193.738 128.302 192.39 131.071 189.798L128.337 186.878C126.264 188.819 123.964 189.738 121.36 189.738V193.738ZM131.087 189.783C133.873 187.116 135.335 183.875 135.335 180.148H131.335C131.335 182.706 130.377 184.925 128.321 186.894L131.087 189.783ZM135.335 180.148V149.244H131.335V180.148H135.335ZM133.335 151.244H154.196V147.244H133.335V151.244ZM152.196 149.244V180.148H156.196V149.244H152.196ZM216.7 206.263L217.897 207.865L217.897 207.865L216.7 206.263ZM158.059 211.053H156.059V213.053H158.059V211.053ZM158.059 168.559H160.059V166.559H158.059V168.559ZM150.333 168.559H148.333V170.559H150.333V168.559ZM150.333 149.244V147.244H148.333V149.244H150.333ZM212.914 154.111L214.131 152.524L214.123 152.518L214.114 152.511L212.914 154.111ZM216.082 178.371L214.513 177.131L213.178 178.821L214.961 180.028L216.082 178.371ZM198.389 166.087L199.803 164.673L199.803 164.673L198.389 166.087ZM179.692 164.696V162.696H177.692V164.696H179.692ZM179.692 173.968H177.692V175.968H179.692V173.968ZM199.162 187.72L197.748 189.134L197.748 189.134L199.162 187.72ZM179.692 186.329V184.329H177.692V186.329H179.692ZM179.692 195.601H177.692V197.601H179.692V195.601ZM199.162 194.21L197.748 192.796L197.748 192.796L199.162 194.21ZM221.731 193.051C221.731 197.654 219.745 201.491 215.503 204.661L217.897 207.865C223.03 204.03 225.731 199.058 225.731 193.051H221.731ZM215.503 204.66C211.582 207.589 207.137 209.053 202.098 209.053V213.053C207.978 213.053 213.268 211.323 217.897 207.865L215.503 204.66ZM202.098 209.053H158.059V213.053H202.098V209.053ZM160.059 211.053V168.559H156.059V211.053H160.059ZM158.059 166.559H150.333V170.559H158.059V166.559ZM152.333 168.559V149.244H148.333V168.559H152.333ZM150.333 151.244H198.235V147.244H150.333V151.244ZM198.235 151.244C203.266 151.244 207.737 152.729 211.714 155.711L214.114 152.511C209.438 149.004 204.123 147.244 198.235 147.244V151.244ZM211.697 155.699C215.897 158.918 217.868 162.786 217.868 167.4H221.868C221.868 161.404 219.203 156.413 214.131 152.524L211.697 155.699ZM217.868 167.4C217.868 171.077 216.754 174.296 214.513 177.131L217.651 179.612C220.458 176.06 221.868 171.965 221.868 167.4H217.868ZM214.961 180.028C219.492 183.094 221.731 187.356 221.731 193.051H225.731C225.731 186.075 222.871 180.551 217.203 176.715L214.961 180.028ZM201.78 169.332C201.78 167.531 201.08 165.95 199.803 164.673L196.975 167.501C197.552 168.078 197.78 168.661 197.78 169.332H201.78ZM199.803 164.673C198.526 163.396 196.945 162.696 195.144 162.696V166.696C195.815 166.696 196.398 166.924 196.975 167.501L199.803 164.673ZM195.144 162.696H179.692V166.696H195.144V162.696ZM177.692 164.696V173.968H181.692V164.696H177.692ZM179.692 175.968H195.144V171.968H179.692V175.968ZM195.144 175.968C196.945 175.968 198.526 175.268 199.803 173.991L196.975 171.163C196.398 171.74 195.815 171.968 195.144 171.968V175.968ZM199.803 173.991C201.08 172.714 201.78 171.133 201.78 169.332H197.78C197.78 170.003 197.552 170.585 196.975 171.163L199.803 173.991ZM202.552 190.965C202.552 189.164 201.853 187.583 200.576 186.306L197.748 189.134C198.325 189.712 198.552 190.294 198.552 190.965H202.552ZM200.576 186.306C199.299 185.029 197.718 184.329 195.917 184.329V188.329C196.588 188.329 197.17 188.557 197.748 189.134L200.576 186.306ZM195.917 184.329H179.692V188.329H195.917V184.329ZM177.692 186.329V195.601H181.692V186.329H177.692ZM179.692 197.601H195.917V193.601H179.692V197.601ZM195.917 197.601C197.718 197.601 199.299 196.901 200.576 195.624L197.748 192.796C197.17 193.373 196.588 193.601 195.917 193.601V197.601ZM200.576 195.624C201.853 194.347 202.552 192.766 202.552 190.965H198.552C198.552 191.636 198.325 192.218 197.748 192.796L200.576 195.624ZM300.992 168.559V170.559H302.992V168.559H300.992ZM252.086 172.036L253.453 173.496L253.461 173.488L253.469 173.481L252.086 172.036ZM252.008 188.338L250.61 189.768L250.626 189.783L250.642 189.798L252.008 188.338ZM270.088 191.738V193.738H272.088V191.738H270.088ZM270.088 180.148V178.148H268.088V180.148H270.088ZM293.266 180.148H295.266V178.148H293.266V180.148ZM293.266 211.053V213.053H295.266V211.053H293.266ZM237.638 202.245L238.986 200.767L238.982 200.764L237.638 202.245ZM237.638 158.052L238.982 159.533L238.986 159.529L237.638 158.052ZM300.992 149.244H302.992V147.244H300.992V149.244ZM300.992 166.559H260.43V170.559H300.992V166.559ZM260.43 166.559C256.736 166.559 253.468 167.943 250.703 170.591L253.469 173.481C255.545 171.493 257.84 170.559 260.43 170.559V166.559ZM250.719 170.576C247.919 173.197 246.454 176.42 246.454 180.148H250.454C250.454 177.593 251.411 175.408 253.453 173.496L250.719 170.576ZM246.454 180.148C246.454 183.861 247.879 187.097 250.61 189.768L253.407 186.908C251.399 184.944 250.454 182.72 250.454 180.148H246.454ZM250.642 189.798C253.417 192.397 256.708 193.738 260.43 193.738V189.738C257.765 189.738 255.441 188.812 253.375 186.878L250.642 189.798ZM260.43 193.738H270.088V189.738H260.43V193.738ZM272.088 191.738V180.148H268.088V191.738H272.088ZM270.088 182.148H293.266V178.148H270.088V182.148ZM291.266 180.148V211.053H295.266V180.148H291.266ZM293.266 209.053H260.43V213.053H293.266V209.053ZM260.43 209.053C252.17 209.053 245.054 206.301 238.986 200.767L236.29 203.723C243.099 209.933 251.178 213.053 260.43 213.053V209.053ZM238.982 200.764C232.682 195.046 229.594 188.21 229.594 180.148H225.594C225.594 189.394 229.201 197.288 236.294 203.726L238.982 200.764ZM229.594 180.148C229.594 172.087 232.682 165.251 238.982 159.533L236.294 156.571C229.201 163.008 225.594 170.903 225.594 180.148H229.594ZM238.986 159.529C245.054 153.995 252.17 151.244 260.43 151.244V147.244C251.178 147.244 243.099 150.364 236.29 156.574L238.986 159.529ZM260.43 151.244H300.992V147.244H260.43V151.244ZM298.992 149.244V168.559H302.992V149.244H298.992ZM432.336 149.244L434.004 150.348L436.06 147.244H432.336V149.244ZM391.388 211.053V213.053H392.462L393.055 212.158L391.388 211.053ZM366.664 211.053L364.997 209.948L362.938 213.053H366.664V211.053ZM395.869 167.014L397.536 168.119L399.595 165.014H395.869V167.014ZM366.664 167.014H364.664V169.014H366.664V167.014ZM366.664 149.244V147.244H364.664V149.244H366.664ZM430.669 148.139L389.721 209.948L393.055 212.158L434.004 150.348L430.669 148.139ZM391.388 209.053H366.664V213.053H391.388V209.053ZM368.331 212.158L397.536 168.119L394.202 165.909L364.997 209.948L368.331 212.158ZM395.869 165.014H366.664V169.014H395.869V165.014ZM368.664 167.014V149.244H364.664V167.014H368.664ZM366.664 151.244H432.336V147.244H366.664V151.244ZM449.334 208.812L450.748 210.227L450.748 210.227L449.334 208.812ZM438.44 208.812L437.002 210.202L437.026 210.227L437.05 210.25L438.44 208.812ZM438.44 197.919L439.854 199.333L439.854 199.333L438.44 197.919ZM449.334 197.919L447.896 199.309L447.919 199.333L447.944 199.357L449.334 197.919ZM449.652 203.327C449.652 204.888 449.104 206.213 447.92 207.398L450.748 210.227C452.654 208.321 453.652 205.989 453.652 203.327H449.652ZM447.92 207.398C446.801 208.517 445.507 209.053 443.926 209.053V213.053C446.568 213.053 448.879 212.095 450.748 210.227L447.92 207.398ZM443.926 209.053C442.343 209.053 441.01 208.515 439.83 207.374L437.05 210.25C438.961 212.097 441.285 213.053 443.926 213.053V209.053ZM439.878 207.422C438.738 206.243 438.199 204.91 438.199 203.327H434.199C434.199 205.967 435.155 208.292 437.002 210.202L439.878 207.422ZM438.199 203.327C438.199 201.746 438.735 200.452 439.854 199.333L437.026 196.504C435.157 198.373 434.199 200.684 434.199 203.327H438.199ZM439.854 199.333C441.039 198.148 442.364 197.601 443.926 197.601V193.601C441.263 193.601 438.932 194.599 437.026 196.504L439.854 199.333ZM443.926 197.601C445.485 197.601 446.772 198.145 447.896 199.309L450.772 196.528C448.909 194.601 446.59 193.601 443.926 193.601V197.601ZM447.944 199.357C449.107 200.481 449.652 201.768 449.652 203.327H453.652C453.652 200.662 452.651 198.344 450.724 196.481L447.944 199.357ZM511.113 202.245L509.769 200.764L509.765 200.767L511.113 202.245ZM465.529 202.245L466.876 200.767L466.873 200.764L465.529 202.245ZM465.529 158.052L466.873 159.533L466.876 159.529L465.529 158.052ZM511.113 158.052L509.765 159.529L509.769 159.533L511.113 158.052ZM496.665 172.036L495.282 173.481L495.29 173.488L495.298 173.496L496.665 172.036ZM479.976 172.036L481.343 173.496L481.352 173.488L481.36 173.481L479.976 172.036ZM479.899 188.338L478.501 189.768L478.516 189.783L478.532 189.798L479.899 188.338ZM496.665 188.338L498.032 189.798L498.04 189.79L498.048 189.783L496.665 188.338ZM519.157 180.148C519.157 188.21 516.068 195.046 509.769 200.764L512.457 203.726C519.549 197.288 523.157 189.394 523.157 180.148H519.157ZM509.765 200.767C503.697 206.301 496.581 209.053 488.321 209.053V213.053C497.573 213.053 505.652 209.933 512.46 203.723L509.765 200.767ZM488.321 209.053C480.06 209.053 472.944 206.301 466.876 200.767L464.181 203.723C470.99 209.933 479.068 213.053 488.321 213.053V209.053ZM466.873 200.764C460.573 195.046 457.485 188.21 457.485 180.148H453.485C453.485 189.394 457.092 197.288 464.184 203.726L466.873 200.764ZM457.485 180.148C457.485 172.087 460.573 165.251 466.873 159.533L464.184 156.571C457.092 163.008 453.485 170.903 453.485 180.148H457.485ZM466.876 159.529C472.944 153.995 480.06 151.244 488.321 151.244V147.244C479.068 147.244 470.99 150.364 464.181 156.574L466.876 159.529ZM488.321 151.244C496.581 151.244 503.697 153.995 509.765 159.529L512.46 156.574C505.652 150.364 497.573 147.244 488.321 147.244V151.244ZM509.769 159.533C516.068 165.251 519.157 172.087 519.157 180.148H523.157C523.157 170.903 519.549 163.008 512.457 156.571L509.769 159.533ZM502.296 180.148C502.296 176.42 500.831 173.197 498.032 170.576L495.298 173.496C497.34 175.408 498.296 177.593 498.296 180.148H502.296ZM498.048 170.591C495.282 167.943 492.015 166.559 488.321 166.559V170.559C490.911 170.559 493.206 171.493 495.282 173.481L498.048 170.591ZM488.321 166.559C484.627 166.559 481.359 167.943 478.593 170.591L481.36 173.481C483.436 171.493 485.731 170.559 488.321 170.559V166.559ZM478.61 170.576C475.81 173.197 474.345 176.42 474.345 180.148H478.345C478.345 177.593 479.301 175.408 481.343 173.496L478.61 170.576ZM474.345 180.148C474.345 183.861 475.77 187.097 478.501 189.768L481.298 186.908C479.29 184.944 478.345 182.72 478.345 180.148H474.345ZM478.532 189.798C481.308 192.397 484.598 193.738 488.321 193.738V189.738C485.656 189.738 483.332 188.812 481.266 186.878L478.532 189.798ZM488.321 193.738C492 193.738 495.263 192.39 498.032 189.798L495.298 186.878C493.225 188.819 490.925 189.738 488.321 189.738V193.738ZM498.048 189.783C500.834 187.116 502.296 183.875 502.296 180.148H498.296C498.296 182.706 497.338 184.925 495.282 186.894L498.048 189.783Z" fill="#FFDE06" mask="url(#path-1-outside-1_666_2317)"/>
<g filter="url(#filter0_f_666_2317)">
<mask id="path-3-outside-2_666_2317" maskUnits="userSpaceOnUse" x="9.32617" y="70.0529" width="514" height="143" fill="black">
<rect fill="white" x="9.32617" y="70.0529" width="514" height="143"/>
<path d="M202.997 134.053H179.819V111.261H160.503V134.053H137.325V91.5592H129.599V72.2439H160.503V95.036H179.819V72.2439H202.997V134.053ZM276.395 134.053H252.444L250.436 126.327H232.82L230.811 134.053H206.86L217.986 91.5592H199.134V72.2439H260.17L276.395 134.053ZM246.341 110.875L241.628 92.8727L236.915 110.875H246.341ZM341.162 91.5592H308.326C305.184 91.5592 302.403 92.7181 299.982 95.036C297.561 97.3023 296.35 100.006 296.35 103.148C296.35 106.29 297.535 109.02 299.904 111.338C302.325 113.604 305.132 114.738 308.326 114.738H333.436V134.053H308.326C299.57 134.053 291.972 131.117 285.534 125.245C278.838 119.167 275.49 111.802 275.49 103.148C275.49 94.4952 278.838 87.1296 285.534 81.0517C292.024 75.1798 299.621 72.2439 308.326 72.2439H341.162V91.5592ZM403.001 134.053H386.776C381.626 134.053 376.475 131.478 371.324 126.327L360.508 115.51V134.053H337.329V91.5592H329.603V72.2439H360.508V92.4864L374.724 72.2439H403.001L380.441 104.539L389.712 113.81C390.33 114.429 391.592 114.738 393.498 114.738H403.001V134.053ZM88.7046 211.053H64.7536L62.7448 203.327H45.1292L43.1204 211.053H19.1694L30.2951 168.559H11.4433V149.244H72.4797L88.7046 211.053ZM58.65 187.875L53.937 169.873L49.2241 187.875H58.65ZM154.196 180.148C154.196 188.802 150.848 196.167 144.152 202.245C137.662 208.117 130.064 211.053 121.36 211.053C112.603 211.053 105.006 208.117 98.5675 202.245C91.8715 196.167 88.5235 188.802 88.5235 180.148V168.559H80.7974V149.244H109.384V180.148C109.384 183.29 110.569 186.02 112.938 188.338C115.359 190.604 118.166 191.738 121.36 191.738C124.502 191.738 127.283 190.604 129.704 188.338C132.125 186.02 133.335 183.29 133.335 180.148V149.244H154.196V180.148ZM223.731 193.051C223.731 198.356 221.387 202.76 216.7 206.263C212.425 209.456 207.557 211.053 202.098 211.053H158.059V168.559H150.333V149.244H198.235C203.694 149.244 208.588 150.866 212.914 154.111C217.55 157.665 219.868 162.095 219.868 167.4C219.868 171.521 218.606 175.178 216.082 178.371C221.181 181.822 223.731 186.716 223.731 193.051ZM199.78 169.332C199.78 168.096 199.316 167.014 198.389 166.087C197.462 165.16 196.38 164.696 195.144 164.696H179.692V173.968H195.144C196.38 173.968 197.462 173.504 198.389 172.577C199.316 171.65 199.78 170.568 199.78 169.332ZM200.552 190.965C200.552 189.729 200.089 188.647 199.162 187.72C198.235 186.793 197.153 186.329 195.917 186.329H179.692V195.601H195.917C197.153 195.601 198.235 195.137 199.162 194.21C200.089 193.283 200.552 192.201 200.552 190.965ZM300.992 168.559H260.43C257.288 168.559 254.507 169.718 252.086 172.036C249.665 174.302 248.454 177.006 248.454 180.148C248.454 183.29 249.639 186.02 252.008 188.338C254.429 190.604 257.236 191.738 260.43 191.738H270.088V180.148H293.266V211.053H260.43C251.674 211.053 244.076 208.117 237.638 202.245C230.942 196.167 227.594 188.802 227.594 180.148C227.594 171.495 230.942 164.13 237.638 158.052C244.076 152.18 251.674 149.244 260.43 149.244H300.992V168.559ZM432.336 149.244L391.388 211.053H366.664L395.869 167.014H366.664V149.244H432.336ZM451.652 203.327C451.652 205.439 450.879 207.267 449.334 208.812C447.84 210.306 446.037 211.053 443.926 211.053C441.814 211.053 439.985 210.306 438.44 208.812C436.946 207.267 436.199 205.439 436.199 203.327C436.199 201.215 436.946 199.412 438.44 197.919C439.985 196.373 441.814 195.601 443.926 195.601C446.037 195.601 447.84 196.373 449.334 197.919C450.879 199.412 451.652 201.215 451.652 203.327ZM521.157 180.148C521.157 188.802 517.809 196.167 511.113 202.245C504.674 208.117 497.077 211.053 488.321 211.053C479.564 211.053 471.967 208.117 465.529 202.245C458.833 196.167 455.485 188.802 455.485 180.148C455.485 171.495 458.833 164.13 465.529 158.052C471.967 152.18 479.564 149.244 488.321 149.244C497.077 149.244 504.674 152.18 511.113 158.052C517.809 164.13 521.157 171.495 521.157 180.148ZM500.296 180.148C500.296 177.006 499.086 174.302 496.665 172.036C494.244 169.718 491.463 168.559 488.321 168.559C485.179 168.559 482.397 169.718 479.976 172.036C477.556 174.302 476.345 177.006 476.345 180.148C476.345 183.29 477.53 186.02 479.899 188.338C482.32 190.604 485.127 191.738 488.321 191.738C491.463 191.738 494.244 190.604 496.665 188.338C499.086 186.02 500.296 183.29 500.296 180.148Z"/>
</mask>
<path d="M202.997 134.053V136.053H204.997V134.053H202.997ZM179.819 134.053H177.819V136.053H179.819V134.053ZM179.819 111.261H181.819V109.261H179.819V111.261ZM160.503 111.261V109.261H158.503V111.261H160.503ZM160.503 134.053V136.053H162.503V134.053H160.503ZM137.325 134.053H135.325V136.053H137.325V134.053ZM137.325 91.5592H139.325V89.5592H137.325V91.5592ZM129.599 91.5592H127.599V93.5592H129.599V91.5592ZM129.599 72.2439V70.2439H127.599V72.2439H129.599ZM160.503 72.2439H162.503V70.2439H160.503V72.2439ZM160.503 95.036H158.503V97.036H160.503V95.036ZM179.819 95.036V97.036H181.819V95.036H179.819ZM179.819 72.2439V70.2439H177.819V72.2439H179.819ZM202.997 72.2439H204.997V70.2439H202.997V72.2439ZM202.997 132.053H179.819V136.053H202.997V132.053ZM181.819 134.053V111.261H177.819V134.053H181.819ZM179.819 109.261H160.503V113.261H179.819V109.261ZM158.503 111.261V134.053H162.503V111.261H158.503ZM160.503 132.053H137.325V136.053H160.503V132.053ZM139.325 134.053V91.5592H135.325V134.053H139.325ZM137.325 89.5592H129.599V93.5592H137.325V89.5592ZM131.599 91.5592V72.2439H127.599V91.5592H131.599ZM129.599 74.2439H160.503V70.2439H129.599V74.2439ZM158.503 72.2439V95.036H162.503V72.2439H158.503ZM160.503 97.036H179.819V93.036H160.503V97.036ZM181.819 95.036V72.2439H177.819V95.036H181.819ZM179.819 74.2439H202.997V70.2439H179.819V74.2439ZM200.997 72.2439V134.053H204.997V72.2439H200.997ZM276.395 134.053V136.053H278.988L278.33 133.545L276.395 134.053ZM252.444 134.053L250.509 134.556L250.898 136.053H252.444V134.053ZM250.436 126.327L252.371 125.824L251.982 124.327H250.436V126.327ZM232.82 126.327V124.327H231.273L230.884 125.824L232.82 126.327ZM230.811 134.053V136.053H232.358L232.747 134.556L230.811 134.053ZM206.86 134.053L204.925 133.546L204.269 136.053H206.86V134.053ZM217.986 91.5592L219.921 92.0658L220.577 89.5592H217.986V91.5592ZM199.134 91.5592H197.134V93.5592H199.134V91.5592ZM199.134 72.2439V70.2439H197.134V72.2439H199.134ZM260.17 72.2439L262.105 71.7361L261.713 70.2439H260.17V72.2439ZM246.341 110.875V112.875H248.932L248.275 110.368L246.341 110.875ZM241.628 92.8727L243.563 92.3661L241.628 84.9759L239.693 92.3661L241.628 92.8727ZM236.915 110.875L234.98 110.368L234.324 112.875H236.915V110.875ZM276.395 132.053H252.444V136.053H276.395V132.053ZM254.38 133.55L252.371 125.824L248.5 126.83L250.509 134.556L254.38 133.55ZM250.436 124.327H232.82V128.327H250.436V124.327ZM230.884 125.824L228.875 133.55L232.747 134.556L234.756 126.83L230.884 125.824ZM230.811 132.053H206.86V136.053H230.811V132.053ZM208.795 134.56L219.921 92.0658L216.051 91.0527L204.925 133.546L208.795 134.56ZM217.986 89.5592H199.134V93.5592H217.986V89.5592ZM201.134 91.5592V72.2439H197.134V91.5592H201.134ZM199.134 74.2439H260.17V70.2439H199.134V74.2439ZM258.236 72.7517L274.461 134.561L278.33 133.545L262.105 71.7361L258.236 72.7517ZM248.275 110.368L243.563 92.3661L239.693 93.3792L244.406 111.381L248.275 110.368ZM239.693 92.3661L234.98 110.368L238.85 111.381L243.563 93.3792L239.693 92.3661ZM236.915 112.875H246.341V108.875H236.915V112.875ZM341.162 91.5592V93.5592H343.162V91.5592H341.162ZM299.982 95.036L301.349 96.496L301.357 96.4884L301.365 96.4806L299.982 95.036ZM299.904 111.338L298.506 112.768L298.522 112.783L298.538 112.798L299.904 111.338ZM333.436 114.738H335.436V112.738H333.436V114.738ZM333.436 134.053V136.053H335.436V134.053H333.436ZM285.534 125.245L286.882 123.767L286.878 123.764L285.534 125.245ZM285.534 81.0517L284.192 79.5686L284.19 79.5708L285.534 81.0517ZM341.162 72.2439H343.162V70.2439H341.162V72.2439ZM341.162 89.5592H308.326V93.5592H341.162V89.5592ZM308.326 89.5592C304.632 89.5592 301.364 90.9433 298.599 93.5914L301.365 96.4806C303.441 94.493 305.736 93.5592 308.326 93.5592V89.5592ZM298.615 93.5759C295.815 96.1969 294.35 99.4196 294.35 103.148H298.35C298.35 100.593 299.306 98.4078 301.349 96.496L298.615 93.5759ZM294.35 103.148C294.35 106.861 295.775 110.097 298.506 112.768L301.303 109.908C299.295 107.944 298.35 105.72 298.35 103.148H294.35ZM298.538 112.798C301.313 115.397 304.604 116.738 308.326 116.738V112.738C305.661 112.738 303.337 111.812 301.271 109.878L298.538 112.798ZM308.326 116.738H333.436V112.738H308.326V116.738ZM331.436 114.738V134.053H335.436V114.738H331.436ZM333.436 132.053H308.326V136.053H333.436V132.053ZM308.326 132.053C300.066 132.053 292.95 129.301 286.882 123.767L284.186 126.723C290.995 132.933 299.074 136.053 308.326 136.053V132.053ZM286.878 123.764C280.578 118.046 277.49 111.21 277.49 103.148H273.49C273.49 112.394 277.097 120.288 284.19 126.726L286.878 123.764ZM277.49 103.148C277.49 95.0873 280.578 88.2507 286.878 82.5326L284.19 79.5708C277.097 86.0084 273.49 93.903 273.49 103.148H277.49ZM286.876 82.5348C293 76.9936 300.12 74.2439 308.326 74.2439V70.2439C299.122 70.2439 291.047 73.3661 284.192 79.5686L286.876 82.5348ZM308.326 74.2439H341.162V70.2439H308.326V74.2439ZM339.162 72.2439V91.5592H343.162V72.2439H339.162ZM403.001 134.053V136.053H405.001V134.053H403.001ZM371.324 126.327L372.738 124.913L372.738 124.913L371.324 126.327ZM360.508 115.51L361.922 114.096L358.508 110.682V115.51H360.508ZM360.508 134.053V136.053H362.508V134.053H360.508ZM337.329 134.053H335.329V136.053H337.329V134.053ZM337.329 91.5592H339.329V89.5592H337.329V91.5592ZM329.603 91.5592H327.603V93.5592H329.603V91.5592ZM329.603 72.2439V70.2439H327.603V72.2439H329.603ZM360.508 72.2439H362.508V70.2439H360.508V72.2439ZM360.508 92.4864H358.508V98.8141L362.144 93.6358L360.508 92.4864ZM374.724 72.2439V70.2439H373.684L373.087 71.0945L374.724 72.2439ZM403.001 72.2439L404.641 73.3892L406.838 70.2439H403.001V72.2439ZM380.441 104.539L378.801 103.394L377.841 104.768L379.027 105.953L380.441 104.539ZM389.712 113.81L391.127 112.396L391.127 112.396L389.712 113.81ZM403.001 114.738H405.001V112.738H403.001V114.738ZM403.001 132.053H386.776V136.053H403.001V132.053ZM386.776 132.053C382.343 132.053 377.671 129.845 372.738 124.913L369.91 127.741C375.279 133.11 380.908 136.053 386.776 136.053V132.053ZM372.738 124.913L361.922 114.096L359.093 116.924L369.91 127.741L372.738 124.913ZM358.508 115.51V134.053H362.508V115.51H358.508ZM360.508 132.053H337.329V136.053H360.508V132.053ZM339.329 134.053V91.5592H335.329V134.053H339.329ZM337.329 89.5592H329.603V93.5592H337.329V89.5592ZM331.603 91.5592V72.2439H327.603V91.5592H331.603ZM329.603 74.2439H360.508V70.2439H329.603V74.2439ZM358.508 72.2439V92.4864H362.508V72.2439H358.508ZM362.144 93.6358L376.36 73.3933L373.087 71.0945L358.871 91.3369L362.144 93.6358ZM374.724 74.2439H403.001V70.2439H374.724V74.2439ZM401.362 71.0986L378.801 103.394L382.08 105.684L404.641 73.3892L401.362 71.0986ZM379.027 105.953L388.298 115.225L391.127 112.396L381.855 103.125L379.027 105.953ZM388.298 115.225C388.962 115.889 389.822 116.246 390.647 116.448C391.487 116.654 392.452 116.738 393.498 116.738V112.738C392.638 112.738 392.019 112.666 391.598 112.563C391.161 112.456 391.08 112.35 391.127 112.396L388.298 115.225ZM393.498 116.738H403.001V112.738H393.498V116.738ZM401.001 114.738V134.053H405.001V114.738H401.001ZM88.7046 211.053V213.053H91.2974L90.6391 210.545L88.7046 211.053ZM64.7536 211.053L62.818 211.556L63.2071 213.053H64.7536V211.053ZM62.7448 203.327L64.6805 202.824L64.2913 201.327H62.7448V203.327ZM45.1292 203.327V201.327H43.5827L43.1936 202.824L45.1292 203.327ZM43.1204 211.053V213.053H44.6669L45.0561 211.556L43.1204 211.053ZM19.1694 211.053L17.2346 210.546L16.5784 213.053H19.1694V211.053ZM30.2951 168.559L32.2298 169.066L32.8861 166.559H30.2951V168.559ZM11.4433 168.559H9.4433V170.559H11.4433V168.559ZM11.4433 149.244V147.244H9.4433V149.244H11.4433ZM72.4797 149.244L74.4142 148.736L74.0225 147.244H72.4797V149.244ZM58.65 187.875V189.875H61.241L60.5848 187.368L58.65 187.875ZM53.937 169.873L55.8718 169.366L53.937 161.976L52.0022 169.366L53.937 169.873ZM49.2241 187.875L47.2893 187.368L46.6331 189.875H49.2241V187.875ZM88.7046 209.053H64.7536V213.053H88.7046V209.053ZM66.6893 210.55L64.6805 202.824L60.8092 203.83L62.818 211.556L66.6893 210.55ZM62.7448 201.327H45.1292V205.327H62.7448V201.327ZM43.1936 202.824L41.1848 210.55L45.0561 211.556L47.0649 203.83L43.1936 202.824ZM43.1204 209.053H19.1694V213.053H43.1204V209.053ZM21.1042 211.56L32.2298 169.066L28.3603 168.053L17.2346 210.546L21.1042 211.56ZM30.2951 166.559H11.4433V170.559H30.2951V166.559ZM13.4433 168.559V149.244H9.4433V168.559H13.4433ZM11.4433 151.244H72.4797V147.244H11.4433V151.244ZM70.5453 149.752L86.7702 211.561L90.6391 210.545L74.4142 148.736L70.5453 149.752ZM60.5848 187.368L55.8718 169.366L52.0022 170.379L56.7152 188.381L60.5848 187.368ZM52.0022 169.366L47.2893 187.368L51.1589 188.381L55.8718 170.379L52.0022 169.366ZM49.2241 189.875H58.65V185.875H49.2241V189.875ZM144.152 202.245L145.494 203.728L145.496 203.726L144.152 202.245ZM98.5675 202.245L99.9152 200.767L99.9117 200.764L98.5675 202.245ZM88.5235 168.559H90.5235V166.559H88.5235V168.559ZM80.7974 168.559H78.7974V170.559H80.7974V168.559ZM80.7974 149.244V147.244H78.7974V149.244H80.7974ZM109.384 149.244H111.384V147.244H109.384V149.244ZM112.938 188.338L111.54 189.768L111.555 189.783L111.571 189.798L112.938 188.338ZM129.704 188.338L131.071 189.798L131.079 189.79L131.087 189.783L129.704 188.338ZM133.335 149.244V147.244H131.335V149.244H133.335ZM154.196 149.244H156.196V147.244H154.196V149.244ZM152.196 180.148C152.196 188.21 149.107 195.046 142.807 200.764L145.496 203.726C152.588 197.288 156.196 189.394 156.196 180.148H152.196ZM142.81 200.762C136.685 206.303 129.565 209.053 121.36 209.053V213.053C130.563 213.053 138.638 209.931 145.494 203.728L142.81 200.762ZM121.36 209.053C113.099 209.053 105.983 206.301 99.9152 200.767L97.2198 203.723C104.029 209.933 112.107 213.053 121.36 213.053V209.053ZM99.9117 200.764C93.6121 195.046 90.5235 188.21 90.5235 180.148H86.5235C86.5235 189.394 90.131 197.288 97.2233 203.726L99.9117 200.764ZM90.5235 180.148V168.559H86.5235V180.148H90.5235ZM88.5235 166.559H80.7974V170.559H88.5235V166.559ZM82.7974 168.559V149.244H78.7974V168.559H82.7974ZM80.7974 151.244H109.384V147.244H80.7974V151.244ZM107.384 149.244V180.148H111.384V149.244H107.384ZM107.384 180.148C107.384 183.861 108.809 187.097 111.54 189.768L114.337 186.908C112.328 184.944 111.384 182.72 111.384 180.148H107.384ZM111.571 189.798C114.347 192.397 117.637 193.738 121.36 193.738V189.738C118.695 189.738 116.371 188.812 114.305 186.878L111.571 189.798ZM121.36 193.738C125.039 193.738 128.302 192.39 131.071 189.798L128.337 186.878C126.264 188.819 123.964 189.738 121.36 189.738V193.738ZM131.087 189.783C133.873 187.116 135.335 183.875 135.335 180.148H131.335C131.335 182.706 130.377 184.925 128.321 186.894L131.087 189.783ZM135.335 180.148V149.244H131.335V180.148H135.335ZM133.335 151.244H154.196V147.244H133.335V151.244ZM152.196 149.244V180.148H156.196V149.244H152.196ZM216.7 206.263L217.897 207.865L217.897 207.865L216.7 206.263ZM158.059 211.053H156.059V213.053H158.059V211.053ZM158.059 168.559H160.059V166.559H158.059V168.559ZM150.333 168.559H148.333V170.559H150.333V168.559ZM150.333 149.244V147.244H148.333V149.244H150.333ZM212.914 154.111L214.131 152.524L214.123 152.518L214.114 152.511L212.914 154.111ZM216.082 178.371L214.513 177.131L213.178 178.821L214.961 180.028L216.082 178.371ZM198.389 166.087L199.803 164.673L199.803 164.673L198.389 166.087ZM179.692 164.696V162.696H177.692V164.696H179.692ZM179.692 173.968H177.692V175.968H179.692V173.968ZM199.162 187.72L197.748 189.134L197.748 189.134L199.162 187.72ZM179.692 186.329V184.329H177.692V186.329H179.692ZM179.692 195.601H177.692V197.601H179.692V195.601ZM199.162 194.21L197.748 192.796L197.748 192.796L199.162 194.21ZM221.731 193.051C221.731 197.654 219.745 201.491 215.503 204.661L217.897 207.865C223.03 204.03 225.731 199.058 225.731 193.051H221.731ZM215.503 204.66C211.582 207.589 207.137 209.053 202.098 209.053V213.053C207.978 213.053 213.268 211.323 217.897 207.865L215.503 204.66ZM202.098 209.053H158.059V213.053H202.098V209.053ZM160.059 211.053V168.559H156.059V211.053H160.059ZM158.059 166.559H150.333V170.559H158.059V166.559ZM152.333 168.559V149.244H148.333V168.559H152.333ZM150.333 151.244H198.235V147.244H150.333V151.244ZM198.235 151.244C203.266 151.244 207.737 152.729 211.714 155.711L214.114 152.511C209.438 149.004 204.123 147.244 198.235 147.244V151.244ZM211.697 155.699C215.897 158.918 217.868 162.786 217.868 167.4H221.868C221.868 161.404 219.203 156.413 214.131 152.524L211.697 155.699ZM217.868 167.4C217.868 171.077 216.754 174.296 214.513 177.131L217.651 179.612C220.458 176.06 221.868 171.965 221.868 167.4H217.868ZM214.961 180.028C219.492 183.094 221.731 187.356 221.731 193.051H225.731C225.731 186.075 222.871 180.551 217.203 176.715L214.961 180.028ZM201.78 169.332C201.78 167.531 201.08 165.95 199.803 164.673L196.975 167.501C197.552 168.078 197.78 168.661 197.78 169.332H201.78ZM199.803 164.673C198.526 163.396 196.945 162.696 195.144 162.696V166.696C195.815 166.696 196.398 166.924 196.975 167.501L199.803 164.673ZM195.144 162.696H179.692V166.696H195.144V162.696ZM177.692 164.696V173.968H181.692V164.696H177.692ZM179.692 175.968H195.144V171.968H179.692V175.968ZM195.144 175.968C196.945 175.968 198.526 175.268 199.803 173.991L196.975 171.163C196.398 171.74 195.815 171.968 195.144 171.968V175.968ZM199.803 173.991C201.08 172.714 201.78 171.133 201.78 169.332H197.78C197.78 170.003 197.552 170.585 196.975 171.163L199.803 173.991ZM202.552 190.965C202.552 189.164 201.853 187.583 200.576 186.306L197.748 189.134C198.325 189.712 198.552 190.294 198.552 190.965H202.552ZM200.576 186.306C199.299 185.029 197.718 184.329 195.917 184.329V188.329C196.588 188.329 197.17 188.557 197.748 189.134L200.576 186.306ZM195.917 184.329H179.692V188.329H195.917V184.329ZM177.692 186.329V195.601H181.692V186.329H177.692ZM179.692 197.601H195.917V193.601H179.692V197.601ZM195.917 197.601C197.718 197.601 199.299 196.901 200.576 195.624L197.748 192.796C197.17 193.373 196.588 193.601 195.917 193.601V197.601ZM200.576 195.624C201.853 194.347 202.552 192.766 202.552 190.965H198.552C198.552 191.636 198.325 192.218 197.748 192.796L200.576 195.624ZM300.992 168.559V170.559H302.992V168.559H300.992ZM252.086 172.036L253.453 173.496L253.461 173.488L253.469 173.481L252.086 172.036ZM252.008 188.338L250.61 189.768L250.626 189.783L250.642 189.798L252.008 188.338ZM270.088 191.738V193.738H272.088V191.738H270.088ZM270.088 180.148V178.148H268.088V180.148H270.088ZM293.266 180.148H295.266V178.148H293.266V180.148ZM293.266 211.053V213.053H295.266V211.053H293.266ZM237.638 202.245L238.986 200.767L238.982 200.764L237.638 202.245ZM237.638 158.052L238.982 159.533L238.986 159.529L237.638 158.052ZM300.992 149.244H302.992V147.244H300.992V149.244ZM300.992 166.559H260.43V170.559H300.992V166.559ZM260.43 166.559C256.736 166.559 253.468 167.943 250.703 170.591L253.469 173.481C255.545 171.493 257.84 170.559 260.43 170.559V166.559ZM250.719 170.576C247.919 173.197 246.454 176.42 246.454 180.148H250.454C250.454 177.593 251.411 175.408 253.453 173.496L250.719 170.576ZM246.454 180.148C246.454 183.861 247.879 187.097 250.61 189.768L253.407 186.908C251.399 184.944 250.454 182.72 250.454 180.148H246.454ZM250.642 189.798C253.417 192.397 256.708 193.738 260.43 193.738V189.738C257.765 189.738 255.441 188.812 253.375 186.878L250.642 189.798ZM260.43 193.738H270.088V189.738H260.43V193.738ZM272.088 191.738V180.148H268.088V191.738H272.088ZM270.088 182.148H293.266V178.148H270.088V182.148ZM291.266 180.148V211.053H295.266V180.148H291.266ZM293.266 209.053H260.43V213.053H293.266V209.053ZM260.43 209.053C252.17 209.053 245.054 206.301 238.986 200.767L236.29 203.723C243.099 209.933 251.178 213.053 260.43 213.053V209.053ZM238.982 200.764C232.682 195.046 229.594 188.21 229.594 180.148H225.594C225.594 189.394 229.201 197.288 236.294 203.726L238.982 200.764ZM229.594 180.148C229.594 172.087 232.682 165.251 238.982 159.533L236.294 156.571C229.201 163.008 225.594 170.903 225.594 180.148H229.594ZM238.986 159.529C245.054 153.995 252.17 151.244 260.43 151.244V147.244C251.178 147.244 243.099 150.364 236.29 156.574L238.986 159.529ZM260.43 151.244H300.992V147.244H260.43V151.244ZM298.992 149.244V168.559H302.992V149.244H298.992ZM432.336 149.244L434.004 150.348L436.06 147.244H432.336V149.244ZM391.388 211.053V213.053H392.462L393.055 212.158L391.388 211.053ZM366.664 211.053L364.997 209.948L362.938 213.053H366.664V211.053ZM395.869 167.014L397.536 168.119L399.595 165.014H395.869V167.014ZM366.664 167.014H364.664V169.014H366.664V167.014ZM366.664 149.244V147.244H364.664V149.244H366.664ZM430.669 148.139L389.721 209.948L393.055 212.158L434.004 150.348L430.669 148.139ZM391.388 209.053H366.664V213.053H391.388V209.053ZM368.331 212.158L397.536 168.119L394.202 165.909L364.997 209.948L368.331 212.158ZM395.869 165.014H366.664V169.014H395.869V165.014ZM368.664 167.014V149.244H364.664V167.014H368.664ZM366.664 151.244H432.336V147.244H366.664V151.244ZM449.334 208.812L450.748 210.227L450.748 210.227L449.334 208.812ZM438.44 208.812L437.002 210.202L437.026 210.227L437.05 210.25L438.44 208.812ZM438.44 197.919L439.854 199.333L439.854 199.333L438.44 197.919ZM449.334 197.919L447.896 199.309L447.919 199.333L447.944 199.357L449.334 197.919ZM449.652 203.327C449.652 204.888 449.104 206.213 447.92 207.398L450.748 210.227C452.654 208.321 453.652 205.989 453.652 203.327H449.652ZM447.92 207.398C446.801 208.517 445.507 209.053 443.926 209.053V213.053C446.568 213.053 448.879 212.095 450.748 210.227L447.92 207.398ZM443.926 209.053C442.343 209.053 441.01 208.515 439.83 207.374L437.05 210.25C438.961 212.097 441.285 213.053 443.926 213.053V209.053ZM439.878 207.422C438.738 206.243 438.199 204.91 438.199 203.327H434.199C434.199 205.967 435.155 208.292 437.002 210.202L439.878 207.422ZM438.199 203.327C438.199 201.746 438.735 200.452 439.854 199.333L437.026 196.504C435.157 198.373 434.199 200.684 434.199 203.327H438.199ZM439.854 199.333C441.039 198.148 442.364 197.601 443.926 197.601V193.601C441.263 193.601 438.932 194.599 437.026 196.504L439.854 199.333ZM443.926 197.601C445.485 197.601 446.772 198.145 447.896 199.309L450.772 196.528C448.909 194.601 446.59 193.601 443.926 193.601V197.601ZM447.944 199.357C449.107 200.481 449.652 201.768 449.652 203.327H453.652C453.652 200.662 452.651 198.344 450.724 196.481L447.944 199.357ZM511.113 202.245L509.769 200.764L509.765 200.767L511.113 202.245ZM465.529 202.245L466.876 200.767L466.873 200.764L465.529 202.245ZM465.529 158.052L466.873 159.533L466.876 159.529L465.529 158.052ZM511.113 158.052L509.765 159.529L509.769 159.533L511.113 158.052ZM496.665 172.036L495.282 173.481L495.29 173.488L495.298 173.496L496.665 172.036ZM479.976 172.036L481.343 173.496L481.352 173.488L481.36 173.481L479.976 172.036ZM479.899 188.338L478.501 189.768L478.516 189.783L478.532 189.798L479.899 188.338ZM496.665 188.338L498.032 189.798L498.04 189.79L498.048 189.783L496.665 188.338ZM519.157 180.148C519.157 188.21 516.068 195.046 509.769 200.764L512.457 203.726C519.549 197.288 523.157 189.394 523.157 180.148H519.157ZM509.765 200.767C503.697 206.301 496.581 209.053 488.321 209.053V213.053C497.573 213.053 505.652 209.933 512.46 203.723L509.765 200.767ZM488.321 209.053C480.06 209.053 472.944 206.301 466.876 200.767L464.181 203.723C470.99 209.933 479.068 213.053 488.321 213.053V209.053ZM466.873 200.764C460.573 195.046 457.485 188.21 457.485 180.148H453.485C453.485 189.394 457.092 197.288 464.184 203.726L466.873 200.764ZM457.485 180.148C457.485 172.087 460.573 165.251 466.873 159.533L464.184 156.571C457.092 163.008 453.485 170.903 453.485 180.148H457.485ZM466.876 159.529C472.944 153.995 480.06 151.244 488.321 151.244V147.244C479.068 147.244 470.99 150.364 464.181 156.574L466.876 159.529ZM488.321 151.244C496.581 151.244 503.697 153.995 509.765 159.529L512.46 156.574C505.652 150.364 497.573 147.244 488.321 147.244V151.244ZM509.769 159.533C516.068 165.251 519.157 172.087 519.157 180.148H523.157C523.157 170.903 519.549 163.008 512.457 156.571L509.769 159.533ZM502.296 180.148C502.296 176.42 500.831 173.197 498.032 170.576L495.298 173.496C497.34 175.408 498.296 177.593 498.296 180.148H502.296ZM498.048 170.591C495.282 167.943 492.015 166.559 488.321 166.559V170.559C490.911 170.559 493.206 171.493 495.282 173.481L498.048 170.591ZM488.321 166.559C484.627 166.559 481.359 167.943 478.593 170.591L481.36 173.481C483.436 171.493 485.731 170.559 488.321 170.559V166.559ZM478.61 170.576C475.81 173.197 474.345 176.42 474.345 180.148H478.345C478.345 177.593 479.301 175.408 481.343 173.496L478.61 170.576ZM474.345 180.148C474.345 183.861 475.77 187.097 478.501 189.768L481.298 186.908C479.29 184.944 478.345 182.72 478.345 180.148H474.345ZM478.532 189.798C481.308 192.397 484.598 193.738 488.321 193.738V189.738C485.656 189.738 483.332 188.812 481.266 186.878L478.532 189.798ZM488.321 193.738C492 193.738 495.263 192.39 498.032 189.798L495.298 186.878C493.225 188.819 490.925 189.738 488.321 189.738V193.738ZM498.048 189.783C500.834 187.116 502.296 183.875 502.296 180.148H498.296C498.296 182.706 497.338 184.925 495.282 186.894L498.048 189.783Z" fill="#FFDE06" mask="url(#path-3-outside-2_666_2317)"/>
</g>
<path d="M192.429 267.341V266.701L196.082 263.123C196.417 262.796 196.668 262.512 196.836 262.269C197.003 262.018 197.116 261.784 197.175 261.566C197.233 261.348 197.263 261.143 197.263 260.951C197.263 260.44 197.087 260.038 196.735 259.746C196.392 259.453 195.882 259.306 195.204 259.306C194.685 259.306 194.224 259.386 193.823 259.545C193.429 259.704 193.09 259.951 192.806 260.285L192.165 259.733C192.509 259.331 192.948 259.022 193.484 258.804C194.019 258.586 194.618 258.477 195.279 258.477C195.873 258.477 196.388 258.574 196.823 258.766C197.258 258.95 197.593 259.222 197.828 259.582C198.07 259.942 198.192 260.365 198.192 260.85C198.192 261.135 198.15 261.415 198.066 261.692C197.991 261.968 197.848 262.261 197.639 262.57C197.438 262.872 197.141 263.215 196.748 263.6L193.396 266.889L193.145 266.538H198.593V267.341H192.429ZM203.067 267.417C202.364 267.417 201.758 267.316 201.247 267.115C200.745 266.914 200.356 266.626 200.079 266.249C199.812 265.864 199.678 265.412 199.678 264.893C199.678 264.391 199.807 263.964 200.067 263.612C200.335 263.253 200.72 262.976 201.222 262.784C201.732 262.591 202.348 262.495 203.067 262.495C203.779 262.495 204.39 262.591 204.9 262.784C205.411 262.976 205.8 263.253 206.068 263.612C206.344 263.964 206.482 264.391 206.482 264.893C206.482 265.412 206.344 265.864 206.068 266.249C205.792 266.626 205.398 266.914 204.888 267.115C204.377 267.316 203.771 267.417 203.067 267.417ZM203.067 266.651C203.846 266.651 204.453 266.492 204.888 266.174C205.331 265.856 205.553 265.424 205.553 264.88C205.553 264.336 205.331 263.91 204.888 263.6C204.453 263.282 203.846 263.123 203.067 263.123C202.289 263.123 201.682 263.282 201.247 263.6C200.812 263.91 200.594 264.336 200.594 264.88C200.594 265.424 200.812 265.856 201.247 266.174C201.682 266.492 202.289 266.651 203.067 266.651ZM203.067 263.01C202.415 263.01 201.858 262.922 201.398 262.746C200.946 262.57 200.598 262.319 200.356 261.993C200.113 261.658 199.992 261.26 199.992 260.8C199.992 260.315 200.117 259.9 200.368 259.557C200.628 259.206 200.988 258.938 201.448 258.754C201.908 258.57 202.448 258.477 203.067 258.477C203.687 258.477 204.227 258.57 204.687 258.754C205.156 258.938 205.52 259.206 205.779 259.557C206.039 259.9 206.168 260.315 206.168 260.8C206.168 261.26 206.047 261.658 205.804 261.993C205.562 262.319 205.206 262.57 204.737 262.746C204.277 262.922 203.72 263.01 203.067 263.01ZM203.067 262.407C203.754 262.407 204.289 262.265 204.674 261.98C205.059 261.696 205.252 261.315 205.252 260.838C205.252 260.336 205.051 259.946 204.649 259.67C204.256 259.386 203.729 259.243 203.067 259.243C202.406 259.243 201.879 259.386 201.486 259.67C201.092 259.946 200.895 260.331 200.895 260.825C200.895 261.311 201.084 261.696 201.46 261.98C201.845 262.265 202.381 262.407 203.067 262.407ZM210.408 267.404C209.789 267.404 209.312 267.237 208.977 266.902C208.642 266.567 208.475 266.094 208.475 265.483V259.294H209.366V265.433C209.366 265.818 209.462 266.115 209.655 266.324C209.856 266.533 210.14 266.638 210.509 266.638C210.902 266.638 211.228 266.525 211.488 266.299L211.802 266.939C211.626 267.098 211.413 267.216 211.161 267.291C210.919 267.366 210.668 267.404 210.408 267.404ZM207.295 261.491V260.75H211.375V261.491H207.295ZM216.789 260.687C217.325 260.687 217.794 260.792 218.195 261.001C218.605 261.202 218.923 261.512 219.149 261.93C219.384 262.349 219.501 262.876 219.501 263.512V267.341H218.61V263.6C218.61 262.905 218.434 262.382 218.082 262.03C217.739 261.671 217.254 261.491 216.626 261.491C216.157 261.491 215.747 261.587 215.396 261.779C215.052 261.964 214.785 262.236 214.592 262.595C214.408 262.947 214.316 263.374 214.316 263.876V267.341H213.424V258.026H214.316V262.558L214.14 262.219C214.349 261.742 214.684 261.369 215.144 261.101C215.605 260.825 216.153 260.687 216.789 260.687ZM225.383 267.341V258.553H226.149L230.166 265.408H229.765L233.744 258.553H234.51V267.341H233.619V259.946H233.832L230.166 266.224H229.727L226.036 259.946H226.274V267.341H225.383ZM241.316 267.341V265.885L241.278 265.646V263.211C241.278 262.65 241.119 262.219 240.801 261.918C240.492 261.616 240.027 261.466 239.408 261.466C238.981 261.466 238.575 261.537 238.19 261.679C237.805 261.821 237.478 262.01 237.211 262.244L236.809 261.579C237.144 261.294 237.545 261.076 238.014 260.926C238.483 260.767 238.977 260.687 239.496 260.687C240.349 260.687 241.006 260.901 241.467 261.327C241.935 261.746 242.17 262.386 242.17 263.248V267.341H241.316ZM239.044 267.404C238.55 267.404 238.119 267.324 237.75 267.165C237.391 266.998 237.114 266.772 236.922 266.487C236.729 266.195 236.633 265.86 236.633 265.483C236.633 265.14 236.713 264.83 236.872 264.554C237.039 264.269 237.307 264.043 237.675 263.876C238.052 263.7 238.554 263.612 239.182 263.612H241.454V264.278H239.207C238.571 264.278 238.127 264.391 237.876 264.617C237.633 264.843 237.512 265.123 237.512 265.458C237.512 265.835 237.658 266.136 237.951 266.362C238.244 266.588 238.654 266.701 239.182 266.701C239.684 266.701 240.115 266.588 240.475 266.362C240.843 266.128 241.111 265.793 241.278 265.358L241.479 265.973C241.312 266.408 241.019 266.755 240.6 267.015C240.19 267.274 239.671 267.404 239.044 267.404ZM244.591 267.341V260.75H245.445V262.545L245.357 262.231C245.541 261.729 245.851 261.348 246.286 261.089C246.721 260.821 247.261 260.687 247.905 260.687V261.553C247.872 261.553 247.838 261.553 247.805 261.553C247.771 261.545 247.738 261.541 247.704 261.541C247.01 261.541 246.466 261.754 246.072 262.181C245.679 262.6 245.482 263.198 245.482 263.976V267.341H244.591ZM252.207 267.404C251.555 267.404 250.969 267.262 250.45 266.977C249.939 266.684 249.538 266.287 249.245 265.784C248.952 265.274 248.805 264.692 248.805 264.039C248.805 263.378 248.952 262.796 249.245 262.294C249.538 261.792 249.939 261.399 250.45 261.114C250.969 260.829 251.555 260.687 252.207 260.687C252.768 260.687 253.275 260.796 253.727 261.014C254.179 261.231 254.534 261.558 254.794 261.993L254.128 262.445C253.902 262.11 253.622 261.863 253.287 261.704C252.952 261.545 252.588 261.466 252.195 261.466C251.726 261.466 251.304 261.574 250.927 261.792C250.55 262.001 250.253 262.298 250.036 262.683C249.818 263.068 249.709 263.52 249.709 264.039C249.709 264.558 249.818 265.01 250.036 265.395C250.253 265.78 250.55 266.082 250.927 266.299C251.304 266.508 251.726 266.613 252.195 266.613C252.588 266.613 252.952 266.533 253.287 266.374C253.622 266.215 253.902 265.973 254.128 265.646L254.794 266.098C254.534 266.525 254.179 266.852 253.727 267.078C253.275 267.295 252.768 267.404 252.207 267.404ZM259.811 260.687C260.347 260.687 260.816 260.792 261.218 261.001C261.628 261.202 261.946 261.512 262.172 261.93C262.406 262.349 262.523 262.876 262.523 263.512V267.341H261.632V263.6C261.632 262.905 261.456 262.382 261.105 262.03C260.761 261.671 260.276 261.491 259.648 261.491C259.18 261.491 258.769 261.587 258.418 261.779C258.075 261.964 257.807 262.236 257.614 262.595C257.43 262.947 257.338 263.374 257.338 263.876V267.341H256.447V258.026H257.338V262.558L257.162 262.219C257.372 261.742 257.706 261.369 258.167 261.101C258.627 260.825 259.175 260.687 259.811 260.687ZM267.727 264.328V263.55H271.017V264.328H267.727ZM278.331 267.417C277.694 267.417 277.092 267.316 276.523 267.115C275.962 266.906 275.51 266.63 275.167 266.287L275.606 265.571C275.891 265.864 276.272 266.107 276.749 266.299C277.234 266.492 277.761 266.588 278.331 266.588C279.059 266.588 279.615 266.429 280 266.111C280.394 265.793 280.59 265.366 280.59 264.83C280.59 264.295 280.398 263.868 280.013 263.55C279.636 263.232 279.038 263.073 278.218 263.073H277.59V262.407L280.302 259.005L280.427 259.356H275.531V258.553H281.18V259.193L278.469 262.595L278.029 262.307H278.368C279.423 262.307 280.21 262.541 280.729 263.01C281.256 263.478 281.519 264.081 281.519 264.818C281.519 265.311 281.402 265.755 281.168 266.148C280.934 266.542 280.578 266.852 280.101 267.078C279.632 267.304 279.042 267.417 278.331 267.417ZM286.296 267.417C285.618 267.417 285.015 267.241 284.488 266.889C283.961 266.529 283.546 266.019 283.245 265.358C282.944 264.688 282.793 263.884 282.793 262.947C282.793 262.01 282.944 261.21 283.245 260.549C283.546 259.879 283.961 259.369 284.488 259.017C285.015 258.657 285.618 258.477 286.296 258.477C286.974 258.477 287.577 258.657 288.104 259.017C288.631 259.369 289.045 259.879 289.347 260.549C289.656 261.21 289.811 262.01 289.811 262.947C289.811 263.884 289.656 264.688 289.347 265.358C289.045 266.019 288.631 266.529 288.104 266.889C287.577 267.241 286.974 267.417 286.296 267.417ZM286.296 266.588C286.815 266.588 287.267 266.45 287.652 266.174C288.037 265.889 288.338 265.479 288.556 264.943C288.773 264.399 288.882 263.734 288.882 262.947C288.882 262.16 288.773 261.499 288.556 260.963C288.338 260.419 288.037 260.009 287.652 259.733C287.267 259.448 286.815 259.306 286.296 259.306C285.794 259.306 285.346 259.448 284.953 259.733C284.559 260.009 284.254 260.419 284.036 260.963C283.819 261.499 283.71 262.16 283.71 262.947C283.71 263.734 283.819 264.399 284.036 264.943C284.254 265.479 284.559 265.889 284.953 266.174C285.346 266.45 285.794 266.588 286.296 266.588ZM293.903 267.404C293.283 267.404 292.806 267.237 292.471 266.902C292.137 266.567 291.969 266.094 291.969 265.483V259.294H292.861V265.433C292.861 265.818 292.957 266.115 293.149 266.324C293.35 266.533 293.635 266.638 294.003 266.638C294.396 266.638 294.723 266.525 294.982 266.299L295.296 266.939C295.12 267.098 294.907 267.216 294.656 267.291C294.413 267.366 294.162 267.404 293.903 267.404ZM290.789 261.491V260.75H294.869V261.491H290.789ZM300.284 260.687C300.819 260.687 301.288 260.792 301.69 261.001C302.1 261.202 302.418 261.512 302.644 261.93C302.878 262.349 302.995 262.876 302.995 263.512V267.341H302.104V263.6C302.104 262.905 301.928 262.382 301.577 262.03C301.234 261.671 300.748 261.491 300.12 261.491C299.652 261.491 299.242 261.587 298.89 261.779C298.547 261.964 298.279 262.236 298.087 262.595C297.902 262.947 297.81 263.374 297.81 263.876V267.341H296.919V258.026H297.81V262.558L297.635 262.219C297.844 261.742 298.179 261.369 298.639 261.101C299.099 260.825 299.648 260.687 300.284 260.687ZM308.877 267.341V258.553H309.643L313.661 265.408H313.259L317.239 258.553H318.005V267.341H317.113V259.946H317.327L313.661 266.224H313.221L309.53 259.946H309.769V267.341H308.877ZM324.81 267.341V265.885L324.773 265.646V263.211C324.773 262.65 324.614 262.219 324.296 261.918C323.986 261.616 323.521 261.466 322.902 261.466C322.475 261.466 322.069 261.537 321.684 261.679C321.299 261.821 320.973 262.01 320.705 262.244L320.303 261.579C320.638 261.294 321.04 261.076 321.509 260.926C321.977 260.767 322.471 260.687 322.99 260.687C323.844 260.687 324.501 260.901 324.961 261.327C325.43 261.746 325.664 262.386 325.664 263.248V267.341H324.81ZM322.538 267.404C322.044 267.404 321.613 267.324 321.245 267.165C320.885 266.998 320.609 266.772 320.416 266.487C320.224 266.195 320.127 265.86 320.127 265.483C320.127 265.14 320.207 264.83 320.366 264.554C320.533 264.269 320.801 264.043 321.17 263.876C321.546 263.7 322.048 263.612 322.676 263.612H324.949V264.278H322.701C322.065 264.278 321.622 264.391 321.37 264.617C321.128 264.843 321.006 265.123 321.006 265.458C321.006 265.835 321.153 266.136 321.446 266.362C321.739 266.588 322.149 266.701 322.676 266.701C323.178 266.701 323.609 266.588 323.969 266.362C324.338 266.128 324.605 265.793 324.773 265.358L324.974 265.973C324.806 266.408 324.513 266.755 324.095 267.015C323.685 267.274 323.166 267.404 322.538 267.404ZM328.085 267.341V260.75H328.939V262.545L328.851 262.231C329.035 261.729 329.345 261.348 329.78 261.089C330.215 260.821 330.755 260.687 331.4 260.687V261.553C331.366 261.553 331.333 261.553 331.299 261.553C331.266 261.545 331.232 261.541 331.199 261.541C330.504 261.541 329.96 261.754 329.567 262.181C329.173 262.6 328.977 263.198 328.977 263.976V267.341H328.085ZM335.702 267.404C335.049 267.404 334.463 267.262 333.944 266.977C333.434 266.684 333.032 266.287 332.739 265.784C332.446 265.274 332.3 264.692 332.3 264.039C332.3 263.378 332.446 262.796 332.739 262.294C333.032 261.792 333.434 261.399 333.944 261.114C334.463 260.829 335.049 260.687 335.702 260.687C336.263 260.687 336.769 260.796 337.221 261.014C337.673 261.231 338.029 261.558 338.288 261.993L337.623 262.445C337.397 262.11 337.116 261.863 336.782 261.704C336.447 261.545 336.083 261.466 335.689 261.466C335.221 261.466 334.798 261.574 334.421 261.792C334.045 262.001 333.748 262.298 333.53 262.683C333.312 263.068 333.204 263.52 333.204 264.039C333.204 264.558 333.312 265.01 333.53 265.395C333.748 265.78 334.045 266.082 334.421 266.299C334.798 266.508 335.221 266.613 335.689 266.613C336.083 266.613 336.447 266.533 336.782 266.374C337.116 266.215 337.397 265.973 337.623 265.646L338.288 266.098C338.029 266.525 337.673 266.852 337.221 267.078C336.769 267.295 336.263 267.404 335.702 267.404ZM343.306 260.687C343.842 260.687 344.31 260.792 344.712 261.001C345.122 261.202 345.44 261.512 345.666 261.93C345.901 262.349 346.018 262.876 346.018 263.512V267.341H345.126V263.6C345.126 262.905 344.951 262.382 344.599 262.03C344.256 261.671 343.77 261.491 343.143 261.491C342.674 261.491 342.264 261.587 341.912 261.779C341.569 261.964 341.301 262.236 341.109 262.595C340.925 262.947 340.833 263.374 340.833 263.876V267.341H339.941V258.026H340.833V262.558L340.657 262.219C340.866 261.742 341.201 261.369 341.661 261.101C342.122 260.825 342.67 260.687 343.306 260.687Z" fill="white"/>
<path d="M189.225 13.8726H180.661V31H171.319V13.8726H159.642V6.08748H189.225V13.8726ZM217.252 31H207.91V21.8135H200.124V31H190.782V13.8726H187.668V6.08748H200.124V15.274H207.91V6.08748H217.252V31ZM243.721 31H218.809V13.8726H215.695V6.08748H243.721V13.8726H228.151V15.274H237.493V21.8135H228.151V23.2148H243.721V31ZM285.749 31H276.407V21.8135H268.622V31H259.279V13.8726H256.165V6.08748H268.622V15.274H276.407V6.08748H285.749V31ZM313.776 18.5437C313.776 22.0315 312.426 25.0002 309.727 27.45C307.111 29.8167 304.049 31 300.541 31C297.011 31 293.949 29.8167 291.354 27.45C288.655 25.0002 287.306 22.0315 287.306 18.5437V13.8726H284.192V6.08748H295.714V18.5437C295.714 19.8101 296.191 20.9104 297.146 21.8447C298.122 22.7581 299.254 23.2148 300.541 23.2148C301.807 23.2148 302.928 22.7581 303.904 21.8447C304.88 20.9104 305.368 19.8101 305.368 18.5437V6.08748H313.776V18.5437ZM341.802 23.7442C341.802 25.8826 340.858 27.6576 338.968 29.0693C337.245 30.3564 335.283 31 333.083 31H315.333V13.8726H312.218V6.08748H331.526C333.726 6.08748 335.699 6.74144 337.442 8.04934C339.311 9.48181 340.245 11.2672 340.245 13.4055C340.245 15.0664 339.736 16.5404 338.719 17.8275C340.774 19.2185 341.802 21.1907 341.802 23.7442ZM332.149 14.1841C332.149 13.6858 331.962 13.2498 331.588 12.8761C331.214 12.5025 330.778 12.3156 330.28 12.3156H324.052V16.0525H330.28C330.778 16.0525 331.214 15.8656 331.588 15.492C331.962 15.1183 332.149 14.6823 332.149 14.1841ZM332.46 22.9034C332.46 22.4052 332.273 21.9692 331.899 21.5955C331.526 21.2218 331.09 21.035 330.591 21.035H324.052V24.7719H330.591C331.09 24.7719 331.526 24.585 331.899 24.2113C332.273 23.8377 332.46 23.4017 332.46 22.9034ZM349.587 9.20155C349.587 9.92816 349.432 10.7171 349.12 11.5682C348.809 12.4194 348.352 13.2187 347.75 13.9661C347.003 14.8795 346.266 15.3674 345.539 15.4297L346.473 12.3156C345.622 12.3156 344.885 12.0146 344.262 11.4125C343.66 10.7897 343.359 10.0527 343.359 9.20155C343.359 8.37113 343.671 7.64452 344.293 7.0217C344.916 6.39889 345.643 6.08748 346.473 6.08748C347.304 6.08748 348.03 6.39889 348.653 7.0217C349.276 7.64452 349.587 8.37113 349.587 9.20155ZM379.159 13.8726H366.142C365.727 13.8726 365.519 14.1114 365.519 14.5889C365.519 14.7134 365.55 14.7965 365.613 14.838L370.128 18.2323C371.996 19.644 372.931 21.5332 372.931 23.8999C372.931 25.8514 372.111 27.5434 370.47 28.9759C368.893 30.3253 367.107 31 365.114 31H351.132V23.2148H360.381C360.796 23.2148 361.004 22.9657 361.004 22.4675C361.004 22.3637 360.973 22.291 360.91 22.2495L356.706 19.1666C355.066 17.9624 354.246 16.1252 354.246 13.6547C354.246 11.6201 355.035 9.8555 356.613 8.36075C358.191 6.84524 359.997 6.08748 362.031 6.08748H379.159V13.8726Z" fill="white"/>
<path d="M500.927 30.8559L506.483 26.9H377.095V30.8559H414.549H500.927Z" fill="url(#paint0_linear_666_2317)"/>
<path d="M38.9389 30.8559L33.3824 26.9H162.771V30.8559H125.316H38.9389Z" fill="url(#paint1_linear_666_2317)"/>
<path d="M38.9392 258.715L33.3826 262.671H162.771V258.715H125.316H38.9392Z" fill="url(#paint2_linear_666_2317)"/>
<path d="M500.927 258.715L506.484 262.671H377.095V258.715H414.55H500.927Z" fill="url(#paint3_linear_666_2317)"/>
<defs>
<filter id="filter0_f_666_2317" x="0.643359" y="61.4439" width="531.313" height="160.409" filterUnits="userSpaceOnUse" color-interpolation-filters="sRGB">
<feFlood flood-opacity="0" result="BackgroundImageFix"/>
<feBlend mode="normal" in="SourceGraphic" in2="BackgroundImageFix" result="shape"/>
<feGaussianBlur stdDeviation="4.4" result="effect1_foregroundBlur_666_2317"/>
</filter>
<linearGradient id="paint0_linear_666_2317" x1="377.095" y1="28.8779" x2="506.483" y2="28.8779" gradientUnits="userSpaceOnUse">
<stop stop-color="#6F7579"/>
<stop offset="1" stop-color="#6F7579" stop-opacity="0"/>
</linearGradient>
<linearGradient id="paint1_linear_666_2317" x1="162.771" y1="28.8779" x2="33.3824" y2="28.8779" gradientUnits="userSpaceOnUse">
<stop stop-color="#6F7579"/>
<stop offset="1" stop-color="#6F7579" stop-opacity="0"/>
</linearGradient>
<linearGradient id="paint2_linear_666_2317" x1="162.771" y1="260.693" x2="33.3826" y2="260.693" gradientUnits="userSpaceOnUse">
<stop stop-color="#6F7579"/>
<stop offset="1" stop-color="#6F7579" stop-opacity="0"/>
</linearGradient>
<linearGradient id="paint3_linear_666_2317" x1="377.095" y1="260.693" x2="506.484" y2="260.693" gradientUnits="userSpaceOnUse">
<stop stop-color="#6F7579"/>
<stop offset="1" stop-color="#6F7579" stop-opacity="0"/>
</linearGradient>
</defs>
</svg>
