<svg width="532" height="270" viewBox="0 0 532 270" fill="none" xmlns="http://www.w3.org/2000/svg">
<mask id="path-1-outside-1_666_2317" maskUnits="userSpaceOnUse" x="9" y="70.0529" width="514" height="143" fill="black">
<rect fill="white" x="9" y="70.0529" width="514" height="143"/>
<path d="M202.834 134.053H179.656V111.261H160.34V134.053H137.162V91.5592H129.436V72.2439H160.34V95.036H179.656V72.2439H202.834V134.053ZM276.232 134.053H252.281L250.272 126.327H232.657L230.648 134.053H206.697L217.823 91.5592H198.971V72.2439H260.007L276.232 134.053ZM246.178 110.875L241.465 92.8727L236.752 110.875H246.178ZM340.999 91.5592H308.163C305.021 91.5592 302.239 92.7181 299.819 95.036C297.398 97.3023 296.187 100.006 296.187 103.148C296.187 106.29 297.372 109.02 299.741 111.338C302.162 113.604 304.969 114.738 308.163 114.738H333.273V134.053H308.163C299.407 134.053 291.809 131.117 285.371 125.245C278.675 119.167 275.327 111.802 275.327 103.148C275.327 94.4952 278.675 87.1296 285.371 81.0517C291.861 75.1798 299.458 72.2439 308.163 72.2439H340.999V91.5592ZM402.838 134.053H386.613C381.463 134.053 376.312 131.478 371.161 126.327L360.344 115.51V134.053H337.166V91.5592H329.44V72.2439H360.344V92.4864L374.561 72.2439H402.838L380.278 104.539L389.549 113.81C390.167 114.429 391.429 114.738 393.335 114.738H402.838V134.053ZM88.5415 211.053H64.5905L62.5817 203.327H44.9661L42.9574 211.053H19.0063L30.132 168.559H11.2802V149.244H72.3167L88.5415 211.053ZM58.4869 187.875L53.7739 169.873L49.061 187.875H58.4869ZM154.033 180.148C154.033 188.802 150.685 196.167 143.989 202.245C137.499 208.117 129.901 211.053 121.197 211.053C112.44 211.053 104.843 208.117 98.4044 202.245C91.7084 196.167 88.3604 188.802 88.3604 180.148V168.559H80.6343V149.244H109.221V180.148C109.221 183.29 110.406 186.02 112.775 188.338C115.196 190.604 118.003 191.738 121.197 191.738C124.338 191.738 127.12 190.604 129.541 188.338C131.962 186.02 133.172 183.29 133.172 180.148V149.244H154.033V180.148ZM223.568 193.051C223.568 198.356 221.224 202.76 216.537 206.263C212.262 209.456 207.394 211.053 201.935 211.053H157.896V168.559H150.169V149.244H198.072C203.531 149.244 208.425 150.866 212.751 154.111C217.387 157.665 219.705 162.095 219.705 167.4C219.705 171.521 218.443 175.178 215.919 178.371C221.018 181.822 223.568 186.716 223.568 193.051ZM199.617 169.332C199.617 168.096 199.153 167.014 198.226 166.087C197.299 165.16 196.217 164.696 194.981 164.696H179.529V173.968H194.981C196.217 173.968 197.299 173.504 198.226 172.577C199.153 171.65 199.617 170.568 199.617 169.332ZM200.389 190.965C200.389 189.729 199.926 188.647 198.999 187.72C198.072 186.793 196.99 186.329 195.754 186.329H179.529V195.601H195.754C196.99 195.601 198.072 195.137 198.999 194.21C199.926 193.283 200.389 192.201 200.389 190.965ZM300.829 168.559H260.267C257.125 168.559 254.344 169.718 251.923 172.036C249.502 174.302 248.291 177.006 248.291 180.148C248.291 183.29 249.476 186.02 251.845 188.338C254.266 190.604 257.073 191.738 260.267 191.738H269.925V180.148H293.103V211.053H260.267C251.511 211.053 243.913 208.117 237.475 202.245C230.779 196.167 227.431 188.802 227.431 180.148C227.431 171.495 230.779 164.13 237.475 158.052C243.913 152.18 251.511 149.244 260.267 149.244H300.829V168.559ZM432.173 149.244L391.225 211.053H366.501L395.706 167.014H366.501V149.244H432.173ZM451.489 203.327C451.489 205.439 450.716 207.267 449.171 208.812C447.677 210.306 445.874 211.053 443.763 211.053C441.651 211.053 439.822 210.306 438.277 208.812C436.783 207.267 436.036 205.439 436.036 203.327C436.036 201.215 436.783 199.412 438.277 197.919C439.822 196.373 441.651 195.601 443.763 195.601C445.874 195.601 447.677 196.373 449.171 197.919C450.716 199.412 451.489 201.215 451.489 203.327ZM520.994 180.148C520.994 188.802 517.646 196.167 510.95 202.245C504.511 208.117 496.914 211.053 488.158 211.053C479.401 211.053 471.804 208.117 465.366 202.245C458.67 196.167 455.322 188.802 455.322 180.148C455.322 171.495 458.67 164.13 465.366 158.052C471.804 152.18 479.401 149.244 488.158 149.244C496.914 149.244 504.511 152.18 510.95 158.052C517.646 164.13 520.994 171.495 520.994 180.148ZM500.133 180.148C500.133 177.006 498.923 174.302 496.502 172.036C494.081 169.718 491.3 168.559 488.158 168.559C485.016 168.559 482.234 169.718 479.813 172.036C477.393 174.302 476.182 177.006 476.182 180.148C476.182 183.29 477.367 186.02 479.736 188.338C482.157 190.604 484.964 191.738 488.158 191.738C491.3 191.738 494.081 190.604 496.502 188.338C498.923 186.02 500.133 183.29 500.133 180.148Z"/>
</mask>
<path d="M202.834 134.053V136.053H204.834V134.053H202.834ZM179.656 134.053H177.656V136.053H179.656V134.053ZM179.656 111.261H181.656V109.261H179.656V111.261ZM160.34 111.261V109.261H158.34V111.261H160.34ZM160.34 134.053V136.053H162.34V134.053H160.34ZM137.162 134.053H135.162V136.053H137.162V134.053ZM137.162 91.5592H139.162V89.5592H137.162V91.5592ZM129.436 91.5592H127.436V93.5592H129.436V91.5592ZM129.436 72.2439V70.2439H127.436V72.2439H129.436ZM160.34 72.2439H162.34V70.2439H160.34V72.2439ZM160.34 95.036H158.34V97.036H160.34V95.036ZM179.656 95.036V97.036H181.656V95.036H179.656ZM179.656 72.2439V70.2439H177.656V72.2439H179.656ZM202.834 72.2439H204.834V70.2439H202.834V72.2439ZM202.834 132.053H179.656V136.053H202.834V132.053ZM181.656 134.053V111.261H177.656V134.053H181.656ZM179.656 109.261H160.34V113.261H179.656V109.261ZM158.34 111.261V134.053H162.34V111.261H158.34ZM160.34 132.053H137.162V136.053H160.34V132.053ZM139.162 134.053V91.5592H135.162V134.053H139.162ZM137.162 89.5592H129.436V93.5592H137.162V89.5592ZM131.436 91.5592V72.2439H127.436V91.5592H131.436ZM129.436 74.2439H160.34V70.2439H129.436V74.2439ZM158.34 72.2439V95.036H162.34V72.2439H158.34ZM160.34 97.036H179.656V93.036H160.34V97.036ZM181.656 95.036V72.2439H177.656V95.036H181.656ZM179.656 74.2439H202.834V70.2439H179.656V74.2439ZM200.834 72.2439V134.053H204.834V72.2439H200.834ZM276.232 134.053V136.053H278.825L278.167 133.545L276.232 134.053ZM252.281 134.053L250.346 134.556L250.735 136.053H252.281V134.053ZM250.272 126.327L252.208 125.824L251.819 124.327H250.272V126.327ZM232.657 126.327V124.327H231.11L230.721 125.824L232.657 126.327ZM230.648 134.053V136.053H232.195L232.584 134.556L230.648 134.053ZM206.697 134.053L204.762 133.546L204.106 136.053H206.697V134.053ZM217.823 91.5592L219.757 92.0658L220.414 89.5592H217.823V91.5592ZM198.971 91.5592H196.971V93.5592H198.971V91.5592ZM198.971 72.2439V70.2439H196.971V72.2439H198.971ZM260.007 72.2439L261.942 71.7361L261.55 70.2439H260.007V72.2439ZM246.178 110.875V112.875H248.769L248.112 110.368L246.178 110.875ZM241.465 92.8727L243.399 92.3661L241.465 84.9759L239.53 92.3661L241.465 92.8727ZM236.752 110.875L234.817 110.368L234.161 112.875H236.752V110.875ZM276.232 132.053H252.281V136.053H276.232V132.053ZM254.217 133.55L252.208 125.824L248.337 126.83L250.346 134.556L254.217 133.55ZM250.272 124.327H232.657V128.327H250.272V124.327ZM230.721 125.824L228.712 133.55L232.584 134.556L234.592 126.83L230.721 125.824ZM230.648 132.053H206.697V136.053H230.648V132.053ZM208.632 134.56L219.757 92.0658L215.888 91.0527L204.762 133.546L208.632 134.56ZM217.823 89.5592H198.971V93.5592H217.823V89.5592ZM200.971 91.5592V72.2439H196.971V91.5592H200.971ZM198.971 74.2439H260.007V70.2439H198.971V74.2439ZM258.073 72.7517L274.298 134.561L278.167 133.545L261.942 71.7361L258.073 72.7517ZM248.112 110.368L243.399 92.3661L239.53 93.3792L244.243 111.381L248.112 110.368ZM239.53 92.3661L234.817 110.368L238.686 111.381L243.399 93.3792L239.53 92.3661ZM236.752 112.875H246.178V108.875H236.752V112.875ZM340.999 91.5592V93.5592H342.999V91.5592H340.999ZM299.819 95.036L301.185 96.496L301.194 96.4884L301.202 96.4806L299.819 95.036ZM299.741 111.338L298.343 112.768L298.358 112.783L298.375 112.798L299.741 111.338ZM333.273 114.738H335.273V112.738H333.273V114.738ZM333.273 134.053V136.053H335.273V134.053H333.273ZM285.371 125.245L286.718 123.767L286.715 123.764L285.371 125.245ZM285.371 81.0517L284.029 79.5686L284.027 79.5708L285.371 81.0517ZM340.999 72.2439H342.999V70.2439H340.999V72.2439ZM340.999 89.5592H308.163V93.5592H340.999V89.5592ZM308.163 89.5592C304.469 89.5592 301.201 90.9433 298.435 93.5914L301.202 96.4806C303.278 94.493 305.573 93.5592 308.163 93.5592V89.5592ZM298.452 93.5759C295.652 96.1969 294.187 99.4196 294.187 103.148H298.187C298.187 100.593 299.143 98.4078 301.185 96.496L298.452 93.5759ZM294.187 103.148C294.187 106.861 295.612 110.097 298.343 112.768L301.14 109.908C299.132 107.944 298.187 105.72 298.187 103.148H294.187ZM298.375 112.798C301.15 115.397 304.441 116.738 308.163 116.738V112.738C305.498 112.738 303.174 111.812 301.108 109.878L298.375 112.798ZM308.163 116.738H333.273V112.738H308.163V116.738ZM331.273 114.738V134.053H335.273V114.738H331.273ZM333.273 132.053H308.163V136.053H333.273V132.053ZM308.163 132.053C299.902 132.053 292.786 129.301 286.718 123.767L284.023 126.723C290.832 132.933 298.911 136.053 308.163 136.053V132.053ZM286.715 123.764C280.415 118.046 277.327 111.21 277.327 103.148H273.327C273.327 112.394 276.934 120.288 284.027 126.726L286.715 123.764ZM277.327 103.148C277.327 95.0873 280.415 88.2507 286.715 82.5326L284.027 79.5708C276.934 86.0084 273.327 93.903 273.327 103.148H277.327ZM286.713 82.5348C292.837 76.9936 299.957 74.2439 308.163 74.2439V70.2439C298.959 70.2439 290.884 73.3661 284.029 79.5686L286.713 82.5348ZM308.163 74.2439H340.999V70.2439H308.163V74.2439ZM338.999 72.2439V91.5592H342.999V72.2439H338.999ZM402.838 134.053V136.053H404.838V134.053H402.838ZM371.161 126.327L372.575 124.913L371.161 126.327ZM360.344 115.51L361.759 114.096L358.344 110.682V115.51H360.344ZM360.344 134.053V136.053H362.344V134.053H360.344ZM337.166 134.053H335.166V136.053H337.166V134.053ZM337.166 91.5592H339.166V89.5592H337.166V91.5592ZM329.44 91.5592H327.44V93.5592H329.44V91.5592ZM329.44 72.2439V70.2439H327.44V72.2439H329.44ZM360.344 72.2439H362.344V70.2439H360.344V72.2439ZM360.344 92.4864H358.344V98.8141L361.981 93.6358L360.344 92.4864ZM374.561 72.2439V70.2439H373.521L372.924 71.0945L374.561 72.2439ZM402.838 72.2439L404.478 73.3892L406.675 70.2439H402.838V72.2439ZM380.278 104.539L378.638 103.394L377.678 104.768L378.864 105.953L380.278 104.539ZM389.549 113.81L390.963 112.396L389.549 113.81ZM402.838 114.738H404.838V112.738H402.838V114.738ZM402.838 132.053H386.613V136.053H402.838V132.053ZM386.613 132.053C382.18 132.053 377.508 129.845 372.575 124.913L369.747 127.741C375.116 133.11 380.745 136.053 386.613 136.053V132.053ZM372.575 124.913L361.759 114.096L358.93 116.924L369.747 127.741L372.575 124.913ZM358.344 115.51V134.053H362.344V115.51H358.344ZM360.344 132.053H337.166V136.053H360.344V132.053ZM339.166 134.053V91.5592H335.166V134.053H339.166ZM337.166 89.5592H329.44V93.5592H337.166V89.5592ZM331.44 91.5592V72.2439H327.44V91.5592H331.44ZM329.44 74.2439H360.344V70.2439H329.44V74.2439ZM358.344 72.2439V92.4864H362.344V72.2439H358.344ZM361.981 93.6358L376.197 73.3933L372.924 71.0945L358.708 91.3369L361.981 93.6358ZM374.561 74.2439H402.838V70.2439H374.561V74.2439ZM401.199 71.0985L378.638 103.394L381.917 105.684L404.478 73.3892L401.199 71.0985ZM378.864 105.953L388.135 115.225L390.963 112.396L381.692 103.125L378.864 105.953ZM388.135 115.225C388.799 115.889 389.658 116.246 390.483 116.448C391.324 116.654 392.289 116.738 393.335 116.738V112.738C392.475 112.738 391.856 112.666 391.435 112.563C390.998 112.456 390.917 112.35 390.963 112.396L388.135 115.225ZM393.335 116.738H402.838V112.738H393.335V116.738ZM400.838 114.738V134.053H404.838V114.738H400.838ZM88.5415 211.053V213.053H91.1343L90.476 210.545L88.5415 211.053ZM64.5905 211.053L62.6549 211.556L63.044 213.053H64.5905V211.053ZM62.5817 203.327L64.5174 202.824L64.1282 201.327H62.5817V203.327ZM44.9662 203.327V201.327H43.4197L43.0305 202.824L44.9662 203.327ZM42.9574 211.053V213.053H44.5038L44.893 211.556L42.9574 211.053ZM19.0063 211.053L17.0716 210.546L16.4153 213.053H19.0063V211.053ZM30.132 168.559L32.0668 169.066L32.723 166.559H30.132V168.559ZM11.2802 168.559H9.28022V170.559H11.2802V168.559ZM11.2802 149.244V147.244H9.28022V149.244H11.2802ZM72.3167 149.244L74.2511 148.736L73.8594 147.244H72.3167V149.244ZM58.4869 187.875V189.875H61.0779L60.4217 187.368L58.4869 187.875ZM53.7739 169.873L55.7087 169.366L53.7739 161.976L51.8391 169.366L53.7739 169.873ZM49.061 187.875L47.1262 187.368L46.47 189.875H49.061V187.875ZM88.5415 209.053H64.5905V213.053H88.5415V209.053ZM66.5262 210.55L64.5174 202.824L60.6461 203.83L62.6549 211.556L66.5262 210.55ZM62.5817 201.327H44.9662V205.327H62.5817V201.327ZM43.0305 202.824L41.0217 210.55L44.893 211.556L46.9018 203.83L43.0305 202.824ZM42.9574 209.053H19.0063V213.053H42.9574V209.053ZM20.9411 211.56L32.0668 169.066L28.1972 168.053L17.0716 210.546L20.9411 211.56ZM30.132 166.559H11.2802V170.559H30.132V166.559ZM13.2802 168.559V149.244H9.28022V168.559H13.2802ZM11.2802 151.244H72.3167V147.244H11.2802V151.244ZM70.3822 149.752L86.6071 211.561L90.476 210.545L74.2511 148.736L70.3822 149.752ZM60.4217 187.368L55.7087 169.366L51.8391 170.379L56.5521 188.381L60.4217 187.368ZM51.8391 169.366L47.1262 187.368L50.9958 188.381L55.7087 170.379L51.8391 169.366ZM49.061 189.875H58.4869V185.875H49.061V189.875ZM143.989 202.245L145.33 203.728L145.333 203.726L143.989 202.245ZM98.4044 202.245L99.7521 200.767L99.7486 200.764L98.4044 202.245ZM88.3605 168.559H90.3605V166.559H88.3605V168.559ZM80.6343 168.559H78.6343V170.559H80.6343V168.559ZM80.6343 149.244V147.244H78.6343V149.244H80.6343ZM109.221 149.244H111.221V147.244H109.221V149.244ZM112.775 188.338L111.376 189.768L111.392 189.783L111.408 189.798L112.775 188.338ZM129.541 188.338L130.908 189.798L130.916 189.79L130.924 189.783L129.541 188.338ZM133.172 149.244V147.244H131.172V149.244H133.172ZM154.033 149.244H156.033V147.244H154.033V149.244ZM152.033 180.148C152.033 188.21 148.944 195.046 142.644 200.764L145.333 203.726C152.425 197.288 156.033 189.394 156.033 180.148H152.033ZM142.647 200.762C136.522 206.303 129.402 209.053 121.197 209.053V213.053C130.4 213.053 138.475 209.931 145.33 203.728L142.647 200.762ZM121.197 209.053C112.936 209.053 105.82 206.301 99.7521 200.767L97.0567 203.723C103.866 209.933 111.944 213.053 121.197 213.053V209.053ZM99.7486 200.764C93.449 195.046 90.3605 188.21 90.3605 180.148H86.3605C86.3605 189.394 89.9679 197.288 97.0602 203.726L99.7486 200.764ZM90.3605 180.148V168.559H86.3605V180.148H90.3605ZM88.3605 166.559H80.6343V170.559H88.3605V166.559ZM82.6343 168.559V149.244H78.6343V168.559H82.6343ZM80.6343 151.244H109.221V147.244H80.6343V151.244ZM107.221 149.244V180.148H111.221V149.244H107.221ZM107.221 180.148C107.221 183.861 108.646 187.097 111.376 189.768L114.174 186.908C112.165 184.944 111.221 182.72 111.221 180.148H107.221ZM111.408 189.798C114.184 192.397 117.474 193.738 121.197 193.738V189.738C118.532 189.738 116.208 188.812 114.142 186.878L111.408 189.798ZM121.197 193.738C124.876 193.738 128.139 192.39 130.908 189.798L128.174 186.878C126.101 188.819 123.801 189.738 121.197 189.738V193.738ZM130.924 189.783C133.709 187.116 135.172 183.875 135.172 180.148H131.172C131.172 182.706 130.214 184.925 128.158 186.894L130.924 189.783ZM135.172 180.148V149.244H131.172V180.148H135.172ZM133.172 151.244H154.033V147.244H133.172V151.244ZM152.033 149.244V180.148H156.033V149.244H152.033ZM216.537 206.263L217.734 207.865L217.734 207.865L216.537 206.263ZM157.896 211.053H155.896V213.053H157.896V211.053ZM157.896 168.559H159.896V166.559H157.896V168.559ZM150.169 168.559H148.169V170.559H150.169V168.559ZM150.169 149.244V147.244H148.169V149.244H150.169ZM212.751 154.111L213.968 152.524L213.96 152.518L213.951 152.511L212.751 154.111ZM215.919 178.371L214.35 177.131L213.015 178.821L214.798 180.028L215.919 178.371ZM198.226 166.087L199.64 164.673V164.673L198.226 166.087ZM179.529 164.696V162.696H177.529V164.696H179.529ZM179.529 173.968H177.529V175.968H179.529V173.968ZM198.999 187.72L197.584 189.134H197.584L198.999 187.72ZM179.529 186.329V184.329H177.529V186.329H179.529ZM179.529 195.601H177.529V197.601H179.529V195.601ZM198.999 194.21L197.584 192.796H197.584L198.999 194.21ZM221.568 193.051C221.568 197.654 219.582 201.491 215.34 204.661L217.734 207.865C222.867 204.03 225.568 199.058 225.568 193.051H221.568ZM215.34 204.66C211.419 207.589 206.974 209.053 201.935 209.053V213.053C207.815 213.053 213.105 211.323 217.734 207.865L215.34 204.66ZM201.935 209.053H157.896V213.053H201.935V209.053ZM159.896 211.053V168.559H155.896V211.053H159.896ZM157.896 166.559H150.169V170.559H157.896V166.559ZM152.169 168.559V149.244H148.169V168.559H152.169ZM150.169 151.244H198.072V147.244H150.169V151.244ZM198.072 151.244C203.103 151.244 207.574 152.729 211.551 155.711L213.951 152.511C209.275 149.004 203.96 147.244 198.072 147.244V151.244ZM211.534 155.699C215.734 158.918 217.705 162.786 217.705 167.4H221.705C221.705 161.404 219.04 156.413 213.968 152.524L211.534 155.699ZM217.705 167.4C217.705 171.077 216.591 174.296 214.35 177.131L217.488 179.612C220.295 176.06 221.705 171.965 221.705 167.4H217.705ZM214.798 180.028C219.329 183.094 221.568 187.356 221.568 193.051H225.568C225.568 186.075 222.708 180.551 217.04 176.715L214.798 180.028ZM201.617 169.332C201.617 167.531 200.917 165.95 199.64 164.673L196.812 167.501C197.389 168.078 197.617 168.661 197.617 169.332H201.617ZM199.64 164.673C198.363 163.396 196.782 162.696 194.981 162.696V166.696C195.652 166.696 196.235 166.924 196.812 167.501L199.64 164.673ZM194.981 162.696H179.529V166.696H194.981V162.696ZM177.529 164.696V173.968H181.529V164.696H177.529ZM179.529 175.968H194.981V171.968H179.529V175.968ZM194.981 175.968C196.782 175.968 198.363 175.268 199.64 173.991L196.812 171.163C196.235 171.74 195.652 171.968 194.981 171.968V175.968ZM199.64 173.991C200.917 172.714 201.617 171.133 201.617 169.332H197.617C197.617 170.003 197.389 170.585 196.812 171.163L199.64 173.991ZM202.389 190.965C202.389 189.164 201.69 187.583 200.413 186.306L197.584 189.134C198.162 189.712 198.389 190.294 198.389 190.965H202.389ZM200.413 186.306C199.136 185.029 197.555 184.329 195.754 184.329V188.329C196.425 188.329 197.007 188.557 197.584 189.134L200.413 186.306ZM195.754 184.329H179.529V188.329H195.754V184.329ZM177.529 186.329V195.601H181.529V186.329H177.529ZM179.529 197.601H195.754V193.601H179.529V197.601ZM195.754 197.601C197.555 197.601 199.136 196.901 200.413 195.624L197.584 192.796C197.007 193.373 196.425 193.601 195.754 193.601V197.601ZM200.413 195.624C201.69 194.347 202.389 192.766 202.389 190.965H198.389C198.389 191.636 198.162 192.218 197.584 192.796L200.413 195.624ZM300.829 168.559V170.559H302.829V168.559H300.829ZM251.923 172.036L253.29 173.496L253.298 173.488L253.306 173.481L251.923 172.036ZM251.845 188.338L250.447 189.768L250.463 189.783L250.479 189.798L251.845 188.338ZM269.925 191.738V193.738H271.925V191.738H269.925ZM269.925 180.148V178.148H267.925V180.148H269.925ZM293.103 180.148H295.103V178.148H293.103V180.148ZM293.103 211.053V213.053H295.103V211.053H293.103ZM237.475 202.245L238.822 200.767L238.819 200.764L237.475 202.245ZM237.475 158.052L238.819 159.533L238.822 159.529L237.475 158.052ZM300.829 149.244H302.829V147.244H300.829V149.244ZM300.829 166.559H260.267V170.559H300.829V166.559ZM260.267 166.559C256.573 166.559 253.305 167.943 250.54 170.591L253.306 173.481C255.382 171.493 257.677 170.559 260.267 170.559V166.559ZM250.556 170.576C247.756 173.197 246.291 176.42 246.291 180.148H250.291C250.291 177.593 251.247 175.408 253.29 173.496L250.556 170.576ZM246.291 180.148C246.291 183.861 247.716 187.097 250.447 189.768L253.244 186.908C251.236 184.944 250.291 182.72 250.291 180.148H246.291ZM250.479 189.798C253.254 192.397 256.545 193.738 260.267 193.738V189.738C257.602 189.738 255.278 188.812 253.212 186.878L250.479 189.798ZM260.267 193.738H269.925V189.738H260.267V193.738ZM271.925 191.738V180.148H267.925V191.738H271.925ZM269.925 182.148H293.103V178.148H269.925V182.148ZM291.103 180.148V211.053H295.103V180.148H291.103ZM293.103 209.053H260.267V213.053H293.103V209.053ZM260.267 209.053C252.007 209.053 244.891 206.301 238.822 200.767L236.127 203.723C242.936 209.933 251.015 213.053 260.267 213.053V209.053ZM238.819 200.764C232.519 195.046 229.431 188.21 229.431 180.148H225.431C225.431 189.394 229.038 197.288 236.131 203.726L238.819 200.764ZM229.431 180.148C229.431 172.087 232.519 165.251 238.819 159.533L236.131 156.571C229.038 163.008 225.431 170.903 225.431 180.148H229.431ZM238.822 159.529C244.891 153.995 252.007 151.244 260.267 151.244V147.244C251.015 147.244 242.936 150.364 236.127 156.574L238.822 159.529ZM260.267 151.244H300.829V147.244H260.267V151.244ZM298.829 149.244V168.559H302.829V149.244H298.829ZM432.173 149.244L433.841 150.348L435.897 147.244H432.173V149.244ZM391.225 211.053V213.053H392.299L392.892 212.158L391.225 211.053ZM366.501 211.053L364.834 209.948L362.775 213.053H366.501V211.053ZM395.706 167.014L397.373 168.119L399.432 165.014H395.706V167.014ZM366.501 167.014H364.501V169.014H366.501V167.014ZM366.501 149.244V147.244H364.501V149.244H366.501ZM430.506 148.139L389.557 209.948L392.892 212.158L433.841 150.348L430.506 148.139ZM391.225 209.053H366.501V213.053H391.225V209.053ZM368.168 212.158L397.373 168.119L394.039 165.909L364.834 209.948L368.168 212.158ZM395.706 165.014H366.501V169.014H395.706V165.014ZM368.501 167.014V149.244H364.501V167.014H368.501ZM366.501 151.244H432.173V147.244H366.501V151.244ZM449.171 208.812L450.585 210.227L449.171 208.812ZM438.277 208.812L436.839 210.202L436.863 210.227L436.887 210.25L438.277 208.812ZM438.277 197.919L439.691 199.333L438.277 197.919ZM449.171 197.919L447.733 199.309L447.756 199.333L447.781 199.357L449.171 197.919ZM449.489 203.327C449.489 204.888 448.941 206.213 447.757 207.398L450.585 210.227C452.491 208.321 453.489 205.989 453.489 203.327H449.489ZM447.757 207.398C446.638 208.517 445.344 209.053 443.763 209.053V213.053C446.405 213.053 448.716 212.095 450.585 210.227L447.757 207.398ZM443.763 209.053C442.18 209.053 440.847 208.515 439.667 207.374L436.887 210.25C438.798 212.097 441.122 213.053 443.763 213.053V209.053ZM439.715 207.422C438.575 206.243 438.036 204.91 438.036 203.327H434.036C434.036 205.967 434.992 208.292 436.839 210.202L439.715 207.422ZM438.036 203.327C438.036 201.746 438.572 200.452 439.691 199.333L436.863 196.504C434.994 198.373 434.036 200.684 434.036 203.327H438.036ZM439.691 199.333C440.876 198.148 442.201 197.601 443.763 197.601V193.601C441.1 193.601 438.768 194.599 436.863 196.504L439.691 199.333ZM443.763 197.601C445.321 197.601 446.608 198.145 447.733 199.309L450.609 196.528C448.746 194.601 446.427 193.601 443.763 193.601V197.601ZM447.781 199.357C448.944 200.481 449.489 201.768 449.489 203.327H453.489C453.489 200.662 452.488 198.344 450.561 196.481L447.781 199.357ZM510.95 202.245L509.605 200.764L509.602 200.767L510.95 202.245ZM465.366 202.245L466.713 200.767L466.71 200.764L465.366 202.245ZM465.366 158.052L466.71 159.533L466.713 159.529L465.366 158.052ZM510.95 158.052L509.602 159.529L509.605 159.533L510.95 158.052ZM496.502 172.036L495.119 173.481L495.127 173.488L495.135 173.496L496.502 172.036ZM479.813 172.036L481.18 173.496L481.188 173.488L481.197 173.481L479.813 172.036ZM479.736 188.338L478.338 189.768L478.353 189.783L478.369 189.798L479.736 188.338ZM496.502 188.338L497.869 189.798L497.877 189.79L497.885 189.783L496.502 188.338ZM518.994 180.148C518.994 188.21 515.905 195.046 509.605 200.764L512.294 203.726C519.386 197.288 522.994 189.394 522.994 180.148H518.994ZM509.602 200.767C503.534 206.301 496.418 209.053 488.158 209.053V213.053C497.41 213.053 505.489 209.933 512.297 203.723L509.602 200.767ZM488.158 209.053C479.897 209.053 472.781 206.301 466.713 200.767L464.018 203.723C470.827 209.933 478.905 213.053 488.158 213.053V209.053ZM466.71 200.764C460.41 195.046 457.322 188.21 457.322 180.148H453.322C453.322 189.394 456.929 197.288 464.021 203.726L466.71 200.764ZM457.322 180.148C457.322 172.087 460.41 165.251 466.71 159.533L464.021 156.571C456.929 163.008 453.322 170.903 453.322 180.148H457.322ZM466.713 159.529C472.781 153.995 479.897 151.244 488.158 151.244V147.244C478.905 147.244 470.827 150.364 464.018 156.574L466.713 159.529ZM488.158 151.244C496.418 151.244 503.534 153.995 509.602 159.529L512.297 156.574C505.489 150.364 497.41 147.244 488.158 147.244V151.244ZM509.605 159.533C515.905 165.251 518.994 172.087 518.994 180.148H522.994C522.994 170.903 519.386 163.008 512.294 156.571L509.605 159.533ZM502.133 180.148C502.133 176.42 500.668 173.197 497.869 170.576L495.135 173.496C497.177 175.408 498.133 177.593 498.133 180.148H502.133ZM497.885 170.591C495.119 167.943 491.852 166.559 488.158 166.559V170.559C490.748 170.559 493.043 171.493 495.119 173.481L497.885 170.591ZM488.158 166.559C484.464 166.559 481.196 167.943 478.43 170.591L481.197 173.481C483.272 171.493 485.568 170.559 488.158 170.559V166.559ZM478.447 170.576C475.647 173.197 474.182 176.42 474.182 180.148H478.182C478.182 177.593 479.138 175.408 481.18 173.496L478.447 170.576ZM474.182 180.148C474.182 183.861 475.607 187.097 478.338 189.768L481.135 186.908C479.126 184.944 478.182 182.72 478.182 180.148H474.182ZM478.369 189.798C481.145 192.397 484.435 193.738 488.158 193.738V189.738C485.493 189.738 483.169 188.812 481.103 186.878L478.369 189.798ZM488.158 193.738C491.837 193.738 495.1 192.39 497.869 189.798L495.135 186.878C493.062 188.819 490.762 189.738 488.158 189.738V193.738ZM497.885 189.783C500.671 187.116 502.133 183.875 502.133 180.148H498.133C498.133 182.706 497.175 184.925 495.119 186.894L497.885 189.783Z" fill="#FFDE06" mask="url(#path-1-outside-1_666_2317)"/>
<g filter="url(#filter0_f_666_2317)">
<mask id="path-3-outside-2_666_2317" maskUnits="userSpaceOnUse" x="9" y="70.0529" width="514" height="143" fill="black">
<rect fill="white" x="9" y="70.0529" width="514" height="143"/>
<path d="M202.834 134.053H179.656V111.261H160.34V134.053H137.162V91.5592H129.436V72.2439H160.34V95.036H179.656V72.2439H202.834V134.053ZM276.232 134.053H252.281L250.272 126.327H232.657L230.648 134.053H206.697L217.823 91.5592H198.971V72.2439H260.007L276.232 134.053ZM246.178 110.875L241.465 92.8727L236.752 110.875H246.178ZM340.999 91.5592H308.163C305.021 91.5592 302.239 92.7181 299.819 95.036C297.398 97.3023 296.187 100.006 296.187 103.148C296.187 106.29 297.372 109.02 299.741 111.338C302.162 113.604 304.969 114.738 308.163 114.738H333.273V134.053H308.163C299.407 134.053 291.809 131.117 285.371 125.245C278.675 119.167 275.327 111.802 275.327 103.148C275.327 94.4952 278.675 87.1296 285.371 81.0517C291.861 75.1798 299.458 72.2439 308.163 72.2439H340.999V91.5592ZM402.838 134.053H386.613C381.463 134.053 376.312 131.478 371.161 126.327L360.344 115.51V134.053H337.166V91.5592H329.44V72.2439H360.344V92.4864L374.561 72.2439H402.838L380.278 104.539L389.549 113.81C390.167 114.429 391.429 114.738 393.335 114.738H402.838V134.053ZM88.5415 211.053H64.5905L62.5817 203.327H44.9661L42.9574 211.053H19.0063L30.132 168.559H11.2802V149.244H72.3167L88.5415 211.053ZM58.4869 187.875L53.7739 169.873L49.061 187.875H58.4869ZM154.033 180.148C154.033 188.802 150.685 196.167 143.989 202.245C137.499 208.117 129.901 211.053 121.197 211.053C112.44 211.053 104.843 208.117 98.4044 202.245C91.7084 196.167 88.3604 188.802 88.3604 180.148V168.559H80.6343V149.244H109.221V180.148C109.221 183.29 110.406 186.02 112.775 188.338C115.196 190.604 118.003 191.738 121.197 191.738C124.338 191.738 127.12 190.604 129.541 188.338C131.962 186.02 133.172 183.29 133.172 180.148V149.244H154.033V180.148ZM223.568 193.051C223.568 198.356 221.224 202.76 216.537 206.263C212.262 209.456 207.394 211.053 201.935 211.053H157.896V168.559H150.169V149.244H198.072C203.531 149.244 208.425 150.866 212.751 154.111C217.387 157.665 219.705 162.095 219.705 167.4C219.705 171.521 218.443 175.178 215.919 178.371C221.018 181.822 223.568 186.716 223.568 193.051ZM199.617 169.332C199.617 168.096 199.153 167.014 198.226 166.087C197.299 165.16 196.217 164.696 194.981 164.696H179.529V173.968H194.981C196.217 173.968 197.299 173.504 198.226 172.577C199.153 171.65 199.617 170.568 199.617 169.332ZM200.389 190.965C200.389 189.729 199.926 188.647 198.999 187.72C198.072 186.793 196.99 186.329 195.754 186.329H179.529V195.601H195.754C196.99 195.601 198.072 195.137 198.999 194.21C199.926 193.283 200.389 192.201 200.389 190.965ZM300.829 168.559H260.267C257.125 168.559 254.344 169.718 251.923 172.036C249.502 174.302 248.291 177.006 248.291 180.148C248.291 183.29 249.476 186.02 251.845 188.338C254.266 190.604 257.073 191.738 260.267 191.738H269.925V180.148H293.103V211.053H260.267C251.511 211.053 243.913 208.117 237.475 202.245C230.779 196.167 227.431 188.802 227.431 180.148C227.431 171.495 230.779 164.13 237.475 158.052C243.913 152.18 251.511 149.244 260.267 149.244H300.829V168.559ZM432.173 149.244L391.225 211.053H366.501L395.706 167.014H366.501V149.244H432.173ZM451.489 203.327C451.489 205.439 450.716 207.267 449.171 208.812C447.677 210.306 445.874 211.053 443.763 211.053C441.651 211.053 439.822 210.306 438.277 208.812C436.783 207.267 436.036 205.439 436.036 203.327C436.036 201.215 436.783 199.412 438.277 197.919C439.822 196.373 441.651 195.601 443.763 195.601C445.874 195.601 447.677 196.373 449.171 197.919C450.716 199.412 451.489 201.215 451.489 203.327ZM520.994 180.148C520.994 188.802 517.646 196.167 510.95 202.245C504.511 208.117 496.914 211.053 488.158 211.053C479.401 211.053 471.804 208.117 465.366 202.245C458.67 196.167 455.322 188.802 455.322 180.148C455.322 171.495 458.67 164.13 465.366 158.052C471.804 152.18 479.401 149.244 488.158 149.244C496.914 149.244 504.511 152.18 510.95 158.052C517.646 164.13 520.994 171.495 520.994 180.148ZM500.133 180.148C500.133 177.006 498.923 174.302 496.502 172.036C494.081 169.718 491.3 168.559 488.158 168.559C485.016 168.559 482.234 169.718 479.813 172.036C477.393 174.302 476.182 177.006 476.182 180.148C476.182 183.29 477.367 186.02 479.736 188.338C482.157 190.604 484.964 191.738 488.158 191.738C491.3 191.738 494.081 190.604 496.502 188.338C498.923 186.02 500.133 183.29 500.133 180.148Z"/>
</mask>
<path d="M202.834 134.053V136.053H204.834V134.053H202.834ZM179.656 134.053H177.656V136.053H179.656V134.053ZM179.656 111.261H181.656V109.261H179.656V111.261ZM160.34 111.261V109.261H158.34V111.261H160.34ZM160.34 134.053V136.053H162.34V134.053H160.34ZM137.162 134.053H135.162V136.053H137.162V134.053ZM137.162 91.5592H139.162V89.5592H137.162V91.5592ZM129.436 91.5592H127.436V93.5592H129.436V91.5592ZM129.436 72.2439V70.2439H127.436V72.2439H129.436ZM160.34 72.2439H162.34V70.2439H160.34V72.2439ZM160.34 95.036H158.34V97.036H160.34V95.036ZM179.656 95.036V97.036H181.656V95.036H179.656ZM179.656 72.2439V70.2439H177.656V72.2439H179.656ZM202.834 72.2439H204.834V70.2439H202.834V72.2439ZM202.834 132.053H179.656V136.053H202.834V132.053ZM181.656 134.053V111.261H177.656V134.053H181.656ZM179.656 109.261H160.34V113.261H179.656V109.261ZM158.34 111.261V134.053H162.34V111.261H158.34ZM160.34 132.053H137.162V136.053H160.34V132.053ZM139.162 134.053V91.5592H135.162V134.053H139.162ZM137.162 89.5592H129.436V93.5592H137.162V89.5592ZM131.436 91.5592V72.2439H127.436V91.5592H131.436ZM129.436 74.2439H160.34V70.2439H129.436V74.2439ZM158.34 72.2439V95.036H162.34V72.2439H158.34ZM160.34 97.036H179.656V93.036H160.34V97.036ZM181.656 95.036V72.2439H177.656V95.036H181.656ZM179.656 74.2439H202.834V70.2439H179.656V74.2439ZM200.834 72.2439V134.053H204.834V72.2439H200.834ZM276.232 134.053V136.053H278.825L278.167 133.545L276.232 134.053ZM252.281 134.053L250.346 134.556L250.735 136.053H252.281V134.053ZM250.272 126.327L252.208 125.824L251.819 124.327H250.272V126.327ZM232.657 126.327V124.327H231.11L230.721 125.824L232.657 126.327ZM230.648 134.053V136.053H232.195L232.584 134.556L230.648 134.053ZM206.697 134.053L204.762 133.546L204.106 136.053H206.697V134.053ZM217.823 91.5592L219.757 92.0658L220.414 89.5592H217.823V91.5592ZM198.971 91.5592H196.971V93.5592H198.971V91.5592ZM198.971 72.2439V70.2439H196.971V72.2439H198.971ZM260.007 72.2439L261.942 71.7361L261.55 70.2439H260.007V72.2439ZM246.178 110.875V112.875H248.769L248.112 110.368L246.178 110.875ZM241.465 92.8727L243.399 92.3661L241.465 84.9759L239.53 92.3661L241.465 92.8727ZM236.752 110.875L234.817 110.368L234.161 112.875H236.752V110.875ZM276.232 132.053H252.281V136.053H276.232V132.053ZM254.217 133.55L252.208 125.824L248.337 126.83L250.346 134.556L254.217 133.55ZM250.272 124.327H232.657V128.327H250.272V124.327ZM230.721 125.824L228.712 133.55L232.584 134.556L234.592 126.83L230.721 125.824ZM230.648 132.053H206.697V136.053H230.648V132.053ZM208.632 134.56L219.757 92.0658L215.888 91.0527L204.762 133.546L208.632 134.56ZM217.823 89.5592H198.971V93.5592H217.823V89.5592ZM200.971 91.5592V72.2439H196.971V91.5592H200.971ZM198.971 74.2439H260.007V70.2439H198.971V74.2439ZM258.073 72.7517L274.298 134.561L278.167 133.545L261.942 71.7361L258.073 72.7517ZM248.112 110.368L243.399 92.3661L239.53 93.3792L244.243 111.381L248.112 110.368ZM239.53 92.3661L234.817 110.368L238.686 111.381L243.399 93.3792L239.53 92.3661ZM236.752 112.875H246.178V108.875H236.752V112.875ZM340.999 91.5592V93.5592H342.999V91.5592H340.999ZM299.819 95.036L301.185 96.496L301.194 96.4884L301.202 96.4806L299.819 95.036ZM299.741 111.338L298.343 112.768L298.358 112.783L298.375 112.798L299.741 111.338ZM333.273 114.738H335.273V112.738H333.273V114.738ZM333.273 134.053V136.053H335.273V134.053H333.273ZM285.371 125.245L286.718 123.767L286.715 123.764L285.371 125.245ZM285.371 81.0517L284.029 79.5686L284.027 79.5708L285.371 81.0517ZM340.999 72.2439H342.999V70.2439H340.999V72.2439ZM340.999 89.5592H308.163V93.5592H340.999V89.5592ZM308.163 89.5592C304.469 89.5592 301.201 90.9433 298.435 93.5914L301.202 96.4806C303.278 94.493 305.573 93.5592 308.163 93.5592V89.5592ZM298.452 93.5759C295.652 96.1969 294.187 99.4196 294.187 103.148H298.187C298.187 100.593 299.143 98.4078 301.185 96.496L298.452 93.5759ZM294.187 103.148C294.187 106.861 295.612 110.097 298.343 112.768L301.14 109.908C299.132 107.944 298.187 105.72 298.187 103.148H294.187ZM298.375 112.798C301.15 115.397 304.441 116.738 308.163 116.738V112.738C305.498 112.738 303.174 111.812 301.108 109.878L298.375 112.798ZM308.163 116.738H333.273V112.738H308.163V116.738ZM331.273 114.738V134.053H335.273V114.738H331.273ZM333.273 132.053H308.163V136.053H333.273V132.053ZM308.163 132.053C299.902 132.053 292.786 129.301 286.718 123.767L284.023 126.723C290.832 132.933 298.911 136.053 308.163 136.053V132.053ZM286.715 123.764C280.415 118.046 277.327 111.21 277.327 103.148H273.327C273.327 112.394 276.934 120.288 284.027 126.726L286.715 123.764ZM277.327 103.148C277.327 95.0873 280.415 88.2507 286.715 82.5326L284.027 79.5708C276.934 86.0084 273.327 93.903 273.327 103.148H277.327ZM286.713 82.5348C292.837 76.9936 299.957 74.2439 308.163 74.2439V70.2439C298.959 70.2439 290.884 73.3661 284.029 79.5686L286.713 82.5348ZM308.163 74.2439H340.999V70.2439H308.163V74.2439ZM338.999 72.2439V91.5592H342.999V72.2439H338.999ZM402.838 134.053V136.053H404.838V134.053H402.838ZM371.161 126.327L372.575 124.913L371.161 126.327ZM360.344 115.51L361.759 114.096L358.344 110.682V115.51H360.344ZM360.344 134.053V136.053H362.344V134.053H360.344ZM337.166 134.053H335.166V136.053H337.166V134.053ZM337.166 91.5592H339.166V89.5592H337.166V91.5592ZM329.44 91.5592H327.44V93.5592H329.44V91.5592ZM329.44 72.2439V70.2439H327.44V72.2439H329.44ZM360.344 72.2439H362.344V70.2439H360.344V72.2439ZM360.344 92.4864H358.344V98.8141L361.981 93.6358L360.344 92.4864ZM374.561 72.2439V70.2439H373.521L372.924 71.0945L374.561 72.2439ZM402.838 72.2439L404.478 73.3892L406.675 70.2439H402.838V72.2439ZM380.278 104.539L378.638 103.394L377.678 104.768L378.864 105.953L380.278 104.539ZM389.549 113.81L390.963 112.396L389.549 113.81ZM402.838 114.738H404.838V112.738H402.838V114.738ZM402.838 132.053H386.613V136.053H402.838V132.053ZM386.613 132.053C382.18 132.053 377.508 129.845 372.575 124.913L369.747 127.741C375.116 133.11 380.745 136.053 386.613 136.053V132.053ZM372.575 124.913L361.759 114.096L358.93 116.924L369.747 127.741L372.575 124.913ZM358.344 115.51V134.053H362.344V115.51H358.344ZM360.344 132.053H337.166V136.053H360.344V132.053ZM339.166 134.053V91.5592H335.166V134.053H339.166ZM337.166 89.5592H329.44V93.5592H337.166V89.5592ZM331.44 91.5592V72.2439H327.44V91.5592H331.44ZM329.44 74.2439H360.344V70.2439H329.44V74.2439ZM358.344 72.2439V92.4864H362.344V72.2439H358.344ZM361.981 93.6358L376.197 73.3933L372.924 71.0945L358.708 91.3369L361.981 93.6358ZM374.561 74.2439H402.838V70.2439H374.561V74.2439ZM401.199 71.0985L378.638 103.394L381.917 105.684L404.478 73.3892L401.199 71.0985ZM378.864 105.953L388.135 115.225L390.963 112.396L381.692 103.125L378.864 105.953ZM388.135 115.225C388.799 115.889 389.658 116.246 390.483 116.448C391.324 116.654 392.289 116.738 393.335 116.738V112.738C392.475 112.738 391.856 112.666 391.435 112.563C390.998 112.456 390.917 112.35 390.963 112.396L388.135 115.225ZM393.335 116.738H402.838V112.738H393.335V116.738ZM400.838 114.738V134.053H404.838V114.738H400.838ZM88.5415 211.053V213.053H91.1343L90.476 210.545L88.5415 211.053ZM64.5905 211.053L62.6549 211.556L63.044 213.053H64.5905V211.053ZM62.5817 203.327L64.5174 202.824L64.1282 201.327H62.5817V203.327ZM44.9662 203.327V201.327H43.4197L43.0305 202.824L44.9662 203.327ZM42.9574 211.053V213.053H44.5038L44.893 211.556L42.9574 211.053ZM19.0063 211.053L17.0716 210.546L16.4153 213.053H19.0063V211.053ZM30.132 168.559L32.0668 169.066L32.723 166.559H30.132V168.559ZM11.2802 168.559H9.28022V170.559H11.2802V168.559ZM11.2802 149.244V147.244H9.28022V149.244H11.2802ZM72.3167 149.244L74.2511 148.736L73.8594 147.244H72.3167V149.244ZM58.4869 187.875V189.875H61.0779L60.4217 187.368L58.4869 187.875ZM53.7739 169.873L55.7087 169.366L53.7739 161.976L51.8391 169.366L53.7739 169.873ZM49.061 187.875L47.1262 187.368L46.47 189.875H49.061V187.875ZM88.5415 209.053H64.5905V213.053H88.5415V209.053ZM66.5262 210.55L64.5174 202.824L60.6461 203.83L62.6549 211.556L66.5262 210.55ZM62.5817 201.327H44.9662V205.327H62.5817V201.327ZM43.0305 202.824L41.0217 210.55L44.893 211.556L46.9018 203.83L43.0305 202.824ZM42.9574 209.053H19.0063V213.053H42.9574V209.053ZM20.9411 211.56L32.0668 169.066L28.1972 168.053L17.0716 210.546L20.9411 211.56ZM30.132 166.559H11.2802V170.559H30.132V166.559ZM13.2802 168.559V149.244H9.28022V168.559H13.2802ZM11.2802 151.244H72.3167V147.244H11.2802V151.244ZM70.3822 149.752L86.6071 211.561L90.476 210.545L74.2511 148.736L70.3822 149.752ZM60.4217 187.368L55.7087 169.366L51.8391 170.379L56.5521 188.381L60.4217 187.368ZM51.8391 169.366L47.1262 187.368L50.9958 188.381L55.7087 170.379L51.8391 169.366ZM49.061 189.875H58.4869V185.875H49.061V189.875ZM143.989 202.245L145.33 203.728L145.333 203.726L143.989 202.245ZM98.4044 202.245L99.7521 200.767L99.7486 200.764L98.4044 202.245ZM88.3605 168.559H90.3605V166.559H88.3605V168.559ZM80.6343 168.559H78.6343V170.559H80.6343V168.559ZM80.6343 149.244V147.244H78.6343V149.244H80.6343ZM109.221 149.244H111.221V147.244H109.221V149.244ZM112.775 188.338L111.376 189.768L111.392 189.783L111.408 189.798L112.775 188.338ZM129.541 188.338L130.908 189.798L130.916 189.79L130.924 189.783L129.541 188.338ZM133.172 149.244V147.244H131.172V149.244H133.172ZM154.033 149.244H156.033V147.244H154.033V149.244ZM152.033 180.148C152.033 188.21 148.944 195.046 142.644 200.764L145.333 203.726C152.425 197.288 156.033 189.394 156.033 180.148H152.033ZM142.647 200.762C136.522 206.303 129.402 209.053 121.197 209.053V213.053C130.4 213.053 138.475 209.931 145.33 203.728L142.647 200.762ZM121.197 209.053C112.936 209.053 105.82 206.301 99.7521 200.767L97.0567 203.723C103.866 209.933 111.944 213.053 121.197 213.053V209.053ZM99.7486 200.764C93.449 195.046 90.3605 188.21 90.3605 180.148H86.3605C86.3605 189.394 89.9679 197.288 97.0602 203.726L99.7486 200.764ZM90.3605 180.148V168.559H86.3605V180.148H90.3605ZM88.3605 166.559H80.6343V170.559H88.3605V166.559ZM82.6343 168.559V149.244H78.6343V168.559H82.6343ZM80.6343 151.244H109.221V147.244H80.6343V151.244ZM107.221 149.244V180.148H111.221V149.244H107.221ZM107.221 180.148C107.221 183.861 108.646 187.097 111.376 189.768L114.174 186.908C112.165 184.944 111.221 182.72 111.221 180.148H107.221ZM111.408 189.798C114.184 192.397 117.474 193.738 121.197 193.738V189.738C118.532 189.738 116.208 188.812 114.142 186.878L111.408 189.798ZM121.197 193.738C124.876 193.738 128.139 192.39 130.908 189.798L128.174 186.878C126.101 188.819 123.801 189.738 121.197 189.738V193.738ZM130.924 189.783C133.709 187.116 135.172 183.875 135.172 180.148H131.172C131.172 182.706 130.214 184.925 128.158 186.894L130.924 189.783ZM135.172 180.148V149.244H131.172V180.148H135.172ZM133.172 151.244H154.033V147.244H133.172V151.244ZM152.033 149.244V180.148H156.033V149.244H152.033ZM216.537 206.263L217.734 207.865L217.734 207.865L216.537 206.263ZM157.896 211.053H155.896V213.053H157.896V211.053ZM157.896 168.559H159.896V166.559H157.896V168.559ZM150.169 168.559H148.169V170.559H150.169V168.559ZM150.169 149.244V147.244H148.169V149.244H150.169ZM212.751 154.111L213.968 152.524L213.96 152.518L213.951 152.511L212.751 154.111ZM215.919 178.371L214.35 177.131L213.015 178.821L214.798 180.028L215.919 178.371ZM198.226 166.087L199.64 164.673V164.673L198.226 166.087ZM179.529 164.696V162.696H177.529V164.696H179.529ZM179.529 173.968H177.529V175.968H179.529V173.968ZM198.999 187.72L197.584 189.134H197.584L198.999 187.72ZM179.529 186.329V184.329H177.529V186.329H179.529ZM179.529 195.601H177.529V197.601H179.529V195.601ZM198.999 194.21L197.584 192.796H197.584L198.999 194.21ZM221.568 193.051C221.568 197.654 219.582 201.491 215.34 204.661L217.734 207.865C222.867 204.03 225.568 199.058 225.568 193.051H221.568ZM215.34 204.66C211.419 207.589 206.974 209.053 201.935 209.053V213.053C207.815 213.053 213.105 211.323 217.734 207.865L215.34 204.66ZM201.935 209.053H157.896V213.053H201.935V209.053ZM159.896 211.053V168.559H155.896V211.053H159.896ZM157.896 166.559H150.169V170.559H157.896V166.559ZM152.169 168.559V149.244H148.169V168.559H152.169ZM150.169 151.244H198.072V147.244H150.169V151.244ZM198.072 151.244C203.103 151.244 207.574 152.729 211.551 155.711L213.951 152.511C209.275 149.004 203.96 147.244 198.072 147.244V151.244ZM211.534 155.699C215.734 158.918 217.705 162.786 217.705 167.4H221.705C221.705 161.404 219.04 156.413 213.968 152.524L211.534 155.699ZM217.705 167.4C217.705 171.077 216.591 174.296 214.35 177.131L217.488 179.612C220.295 176.06 221.705 171.965 221.705 167.4H217.705ZM214.798 180.028C219.329 183.094 221.568 187.356 221.568 193.051H225.568C225.568 186.075 222.708 180.551 217.04 176.715L214.798 180.028ZM201.617 169.332C201.617 167.531 200.917 165.95 199.64 164.673L196.812 167.501C197.389 168.078 197.617 168.661 197.617 169.332H201.617ZM199.64 164.673C198.363 163.396 196.782 162.696 194.981 162.696V166.696C195.652 166.696 196.235 166.924 196.812 167.501L199.64 164.673ZM194.981 162.696H179.529V166.696H194.981V162.696ZM177.529 164.696V173.968H181.529V164.696H177.529ZM179.529 175.968H194.981V171.968H179.529V175.968ZM194.981 175.968C196.782 175.968 198.363 175.268 199.64 173.991L196.812 171.163C196.235 171.74 195.652 171.968 194.981 171.968V175.968ZM199.64 173.991C200.917 172.714 201.617 171.133 201.617 169.332H197.617C197.617 170.003 197.389 170.585 196.812 171.163L199.64 173.991ZM202.389 190.965C202.389 189.164 201.69 187.583 200.413 186.306L197.584 189.134C198.162 189.712 198.389 190.294 198.389 190.965H202.389ZM200.413 186.306C199.136 185.029 197.555 184.329 195.754 184.329V188.329C196.425 188.329 197.007 188.557 197.584 189.134L200.413 186.306ZM195.754 184.329H179.529V188.329H195.754V184.329ZM177.529 186.329V195.601H181.529V186.329H177.529ZM179.529 197.601H195.754V193.601H179.529V197.601ZM195.754 197.601C197.555 197.601 199.136 196.901 200.413 195.624L197.584 192.796C197.007 193.373 196.425 193.601 195.754 193.601V197.601ZM200.413 195.624C201.69 194.347 202.389 192.766 202.389 190.965H198.389C198.389 191.636 198.162 192.218 197.584 192.796L200.413 195.624ZM300.829 168.559V170.559H302.829V168.559H300.829ZM251.923 172.036L253.29 173.496L253.298 173.488L253.306 173.481L251.923 172.036ZM251.845 188.338L250.447 189.768L250.463 189.783L250.479 189.798L251.845 188.338ZM269.925 191.738V193.738H271.925V191.738H269.925ZM269.925 180.148V178.148H267.925V180.148H269.925ZM293.103 180.148H295.103V178.148H293.103V180.148ZM293.103 211.053V213.053H295.103V211.053H293.103ZM237.475 202.245L238.822 200.767L238.819 200.764L237.475 202.245ZM237.475 158.052L238.819 159.533L238.822 159.529L237.475 158.052ZM300.829 149.244H302.829V147.244H300.829V149.244ZM300.829 166.559H260.267V170.559H300.829V166.559ZM260.267 166.559C256.573 166.559 253.305 167.943 250.54 170.591L253.306 173.481C255.382 171.493 257.677 170.559 260.267 170.559V166.559ZM250.556 170.576C247.756 173.197 246.291 176.42 246.291 180.148H250.291C250.291 177.593 251.247 175.408 253.29 173.496L250.556 170.576ZM246.291 180.148C246.291 183.861 247.716 187.097 250.447 189.768L253.244 186.908C251.236 184.944 250.291 182.72 250.291 180.148H246.291ZM250.479 189.798C253.254 192.397 256.545 193.738 260.267 193.738V189.738C257.602 189.738 255.278 188.812 253.212 186.878L250.479 189.798ZM260.267 193.738H269.925V189.738H260.267V193.738ZM271.925 191.738V180.148H267.925V191.738H271.925ZM269.925 182.148H293.103V178.148H269.925V182.148ZM291.103 180.148V211.053H295.103V180.148H291.103ZM293.103 209.053H260.267V213.053H293.103V209.053ZM260.267 209.053C252.007 209.053 244.891 206.301 238.822 200.767L236.127 203.723C242.936 209.933 251.015 213.053 260.267 213.053V209.053ZM238.819 200.764C232.519 195.046 229.431 188.21 229.431 180.148H225.431C225.431 189.394 229.038 197.288 236.131 203.726L238.819 200.764ZM229.431 180.148C229.431 172.087 232.519 165.251 238.819 159.533L236.131 156.571C229.038 163.008 225.431 170.903 225.431 180.148H229.431ZM238.822 159.529C244.891 153.995 252.007 151.244 260.267 151.244V147.244C251.015 147.244 242.936 150.364 236.127 156.574L238.822 159.529ZM260.267 151.244H300.829V147.244H260.267V151.244ZM298.829 149.244V168.559H302.829V149.244H298.829ZM432.173 149.244L433.841 150.348L435.897 147.244H432.173V149.244ZM391.225 211.053V213.053H392.299L392.892 212.158L391.225 211.053ZM366.501 211.053L364.834 209.948L362.775 213.053H366.501V211.053ZM395.706 167.014L397.373 168.119L399.432 165.014H395.706V167.014ZM366.501 167.014H364.501V169.014H366.501V167.014ZM366.501 149.244V147.244H364.501V149.244H366.501ZM430.506 148.139L389.557 209.948L392.892 212.158L433.841 150.348L430.506 148.139ZM391.225 209.053H366.501V213.053H391.225V209.053ZM368.168 212.158L397.373 168.119L394.039 165.909L364.834 209.948L368.168 212.158ZM395.706 165.014H366.501V169.014H395.706V165.014ZM368.501 167.014V149.244H364.501V167.014H368.501ZM366.501 151.244H432.173V147.244H366.501V151.244ZM449.171 208.812L450.585 210.227L449.171 208.812ZM438.277 208.812L436.839 210.202L436.863 210.227L436.887 210.25L438.277 208.812ZM438.277 197.919L439.691 199.333L438.277 197.919ZM449.171 197.919L447.733 199.309L447.756 199.333L447.781 199.357L449.171 197.919ZM449.489 203.327C449.489 204.888 448.941 206.213 447.757 207.398L450.585 210.227C452.491 208.321 453.489 205.989 453.489 203.327H449.489ZM447.757 207.398C446.638 208.517 445.344 209.053 443.763 209.053V213.053C446.405 213.053 448.716 212.095 450.585 210.227L447.757 207.398ZM443.763 209.053C442.18 209.053 440.847 208.515 439.667 207.374L436.887 210.25C438.798 212.097 441.122 213.053 443.763 213.053V209.053ZM439.715 207.422C438.575 206.243 438.036 204.91 438.036 203.327H434.036C434.036 205.967 434.992 208.292 436.839 210.202L439.715 207.422ZM438.036 203.327C438.036 201.746 438.572 200.452 439.691 199.333L436.863 196.504C434.994 198.373 434.036 200.684 434.036 203.327H438.036ZM439.691 199.333C440.876 198.148 442.201 197.601 443.763 197.601V193.601C441.1 193.601 438.768 194.599 436.863 196.504L439.691 199.333ZM443.763 197.601C445.321 197.601 446.608 198.145 447.733 199.309L450.609 196.528C448.746 194.601 446.427 193.601 443.763 193.601V197.601ZM447.781 199.357C448.944 200.481 449.489 201.768 449.489 203.327H453.489C453.489 200.662 452.488 198.344 450.561 196.481L447.781 199.357ZM510.95 202.245L509.605 200.764L509.602 200.767L510.95 202.245ZM465.366 202.245L466.713 200.767L466.71 200.764L465.366 202.245ZM465.366 158.052L466.71 159.533L466.713 159.529L465.366 158.052ZM510.95 158.052L509.602 159.529L509.605 159.533L510.95 158.052ZM496.502 172.036L495.119 173.481L495.127 173.488L495.135 173.496L496.502 172.036ZM479.813 172.036L481.18 173.496L481.188 173.488L481.197 173.481L479.813 172.036ZM479.736 188.338L478.338 189.768L478.353 189.783L478.369 189.798L479.736 188.338ZM496.502 188.338L497.869 189.798L497.877 189.79L497.885 189.783L496.502 188.338ZM518.994 180.148C518.994 188.21 515.905 195.046 509.605 200.764L512.294 203.726C519.386 197.288 522.994 189.394 522.994 180.148H518.994ZM509.602 200.767C503.534 206.301 496.418 209.053 488.158 209.053V213.053C497.41 213.053 505.489 209.933 512.297 203.723L509.602 200.767ZM488.158 209.053C479.897 209.053 472.781 206.301 466.713 200.767L464.018 203.723C470.827 209.933 478.905 213.053 488.158 213.053V209.053ZM466.71 200.764C460.41 195.046 457.322 188.21 457.322 180.148H453.322C453.322 189.394 456.929 197.288 464.021 203.726L466.71 200.764ZM457.322 180.148C457.322 172.087 460.41 165.251 466.71 159.533L464.021 156.571C456.929 163.008 453.322 170.903 453.322 180.148H457.322ZM466.713 159.529C472.781 153.995 479.897 151.244 488.158 151.244V147.244C478.905 147.244 470.827 150.364 464.018 156.574L466.713 159.529ZM488.158 151.244C496.418 151.244 503.534 153.995 509.602 159.529L512.297 156.574C505.489 150.364 497.41 147.244 488.158 147.244V151.244ZM509.605 159.533C515.905 165.251 518.994 172.087 518.994 180.148H522.994C522.994 170.903 519.386 163.008 512.294 156.571L509.605 159.533ZM502.133 180.148C502.133 176.42 500.668 173.197 497.869 170.576L495.135 173.496C497.177 175.408 498.133 177.593 498.133 180.148H502.133ZM497.885 170.591C495.119 167.943 491.852 166.559 488.158 166.559V170.559C490.748 170.559 493.043 171.493 495.119 173.481L497.885 170.591ZM488.158 166.559C484.464 166.559 481.196 167.943 478.43 170.591L481.197 173.481C483.272 171.493 485.568 170.559 488.158 170.559V166.559ZM478.447 170.576C475.647 173.197 474.182 176.42 474.182 180.148H478.182C478.182 177.593 479.138 175.408 481.18 173.496L478.447 170.576ZM474.182 180.148C474.182 183.861 475.607 187.097 478.338 189.768L481.135 186.908C479.126 184.944 478.182 182.72 478.182 180.148H474.182ZM478.369 189.798C481.145 192.397 484.435 193.738 488.158 193.738V189.738C485.493 189.738 483.169 188.812 481.103 186.878L478.369 189.798ZM488.158 193.738C491.837 193.738 495.1 192.39 497.869 189.798L495.135 186.878C493.062 188.819 490.762 189.738 488.158 189.738V193.738ZM497.885 189.783C500.671 187.116 502.133 183.875 502.133 180.148H498.133C498.133 182.706 497.175 184.925 495.119 186.894L497.885 189.783Z" fill="#FFDE06" mask="url(#path-3-outside-2_666_2317)"/>
</g>
<path d="M197.317 266.538H202.151V267.341H195.986V266.701L199.64 263.123C200.632 262.143 200.82 261.553 200.82 260.951C200.82 259.934 200.104 259.306 198.761 259.306C197.731 259.306 196.94 259.62 196.363 260.285L195.723 259.733C196.401 258.929 197.493 258.477 198.836 258.477C200.619 258.477 201.749 259.381 201.749 260.85C201.749 261.692 201.485 262.445 200.305 263.6L197.317 266.538ZM206.022 258.477C208.357 258.477 209.625 260.097 209.625 262.872C209.625 265.86 207.993 267.417 205.608 267.417C204.817 267.417 204.076 267.278 203.524 266.939L203.888 266.211C204.34 266.513 204.942 266.626 205.595 266.626C207.491 266.626 208.709 265.408 208.709 263.022C208.709 262.821 208.696 262.57 208.671 262.307C208.232 263.273 207.202 263.813 205.984 263.813C204.239 263.813 203.022 262.784 203.022 261.177C203.022 259.532 204.315 258.477 206.022 258.477ZM206.123 263.047C207.466 263.047 208.382 262.219 208.382 261.127C208.382 260.16 207.579 259.243 206.06 259.243C204.792 259.243 203.913 259.984 203.913 261.152C203.913 262.307 204.767 263.047 206.123 263.047ZM214.812 266.299L215.126 266.939C214.775 267.253 214.247 267.404 213.733 267.404C212.49 267.404 211.799 266.701 211.799 265.483V261.491H210.619V260.737H211.799V259.294H212.69V260.737H214.699V261.491H212.69V265.433C212.69 266.211 213.092 266.638 213.833 266.638C214.197 266.638 214.561 266.525 214.812 266.299ZM220.114 260.687C221.721 260.687 222.825 261.616 222.825 263.512V267.341H221.934V263.6C221.934 262.206 221.206 261.491 219.95 261.491C218.532 261.491 217.64 262.369 217.64 263.876V267.341H216.749V258.026H217.64V261.892C218.13 261.127 218.996 260.687 220.114 260.687ZM237.081 258.553H237.847V267.341H236.956V260.31L233.503 266.224H233.064L229.611 260.348V267.341H228.72V258.553H229.485L233.302 265.069L237.081 258.553ZM242.832 260.687C244.54 260.687 245.506 261.541 245.506 263.248V267.341H244.653V266.312C244.251 266.99 243.472 267.404 242.38 267.404C240.886 267.404 239.97 266.626 239.97 265.483C239.97 264.466 240.623 263.612 242.518 263.612H244.615V263.211C244.615 262.081 243.975 261.466 242.744 261.466C241.891 261.466 241.087 261.767 240.547 262.244L240.145 261.579C240.811 261.014 241.79 260.687 242.832 260.687ZM242.518 266.701C243.523 266.701 244.263 266.224 244.615 265.358V264.278H242.543C241.263 264.278 240.848 264.78 240.848 265.458C240.848 266.224 241.464 266.701 242.518 266.701ZM248.781 262.03C249.195 261.152 250.037 260.687 251.254 260.687V261.553C251.179 261.553 251.104 261.541 251.041 261.541C249.66 261.541 248.819 262.42 248.819 263.976V267.341H247.927V260.737H248.781V262.03ZM255.544 267.404C253.573 267.404 252.142 266.01 252.142 264.039C252.142 262.068 253.573 260.687 255.544 260.687C256.661 260.687 257.603 261.127 258.13 261.993L257.465 262.445C257.013 261.779 256.31 261.466 255.544 261.466C254.1 261.466 253.046 262.495 253.046 264.039C253.046 265.596 254.1 266.613 255.544 266.613C256.31 266.613 257.013 266.312 257.465 265.646L258.13 266.098C257.603 266.952 256.661 267.404 255.544 267.404ZM263.148 260.687C264.755 260.687 265.86 261.616 265.86 263.512V267.341H264.969V263.6C264.969 262.206 264.24 261.491 262.985 261.491C261.566 261.491 260.675 262.369 260.675 263.876V267.341H259.783V258.026H260.675V261.892C261.164 261.127 262.031 260.687 263.148 260.687ZM271.076 264.328V263.55H274.366V264.328H271.076ZM282.044 262.319C283.927 262.42 284.868 263.412 284.868 264.818C284.868 266.287 283.801 267.417 281.679 267.417C280.411 267.417 279.194 266.977 278.516 266.287L278.955 265.571C279.52 266.161 280.537 266.588 281.679 266.588C283.136 266.588 283.939 265.91 283.939 264.818C283.939 263.763 283.199 263.073 281.566 263.073H280.939V262.407L283.374 259.356H278.88V258.553H284.529V259.193L282.044 262.319ZM285.602 258.553H288.578V267.341H287.674V259.356H285.602V258.553ZM293.039 267.404C291.947 267.404 290.892 267.052 290.352 266.588L290.754 265.885C291.281 266.299 292.173 266.626 293.102 266.626C294.357 266.626 294.872 266.199 294.872 265.546C294.872 263.826 290.591 265.182 290.591 262.57C290.591 261.491 291.52 260.687 293.202 260.687C294.056 260.687 294.985 260.926 295.537 261.302L295.148 262.018C294.57 261.616 293.88 261.453 293.202 261.453C292.009 261.453 291.482 261.918 291.482 262.545C291.482 264.328 295.763 262.985 295.763 265.521C295.763 266.663 294.759 267.404 293.039 267.404ZM300.575 266.299L300.889 266.939C300.537 267.253 300.01 267.404 299.495 267.404C298.252 267.404 297.562 266.701 297.562 265.483V261.491H296.382V260.737H297.562V259.294H298.453V260.737H300.462V261.491H298.453V265.433C298.453 266.211 298.855 266.638 299.596 266.638C299.96 266.638 300.324 266.525 300.575 266.299ZM314.347 258.553H315.113V267.341H314.222V260.31L310.769 266.224H310.33L306.877 260.348V267.341H305.986V258.553H306.751L310.568 265.069L314.347 258.553ZM320.098 260.687C321.806 260.687 322.772 261.541 322.772 263.248V267.341H321.919V266.312C321.517 266.99 320.739 267.404 319.646 267.404C318.152 267.404 317.236 266.626 317.236 265.483C317.236 264.466 317.889 263.612 319.784 263.612H321.881V263.211C321.881 262.081 321.241 261.466 320.01 261.466C319.157 261.466 318.353 261.767 317.813 262.244L317.412 261.579C318.077 261.014 319.056 260.687 320.098 260.687ZM319.784 266.701C320.789 266.701 321.529 266.224 321.881 265.358V264.278H319.809C318.529 264.278 318.115 264.78 318.115 265.458C318.115 266.224 318.73 266.701 319.784 266.701ZM326.047 262.03C326.462 261.152 327.303 260.687 328.521 260.687V261.553C328.445 261.553 328.37 261.541 328.307 261.541C326.926 261.541 326.085 262.42 326.085 263.976V267.341H325.194V260.737H326.047V262.03ZM332.81 267.404C330.839 267.404 329.408 266.01 329.408 264.039C329.408 262.068 330.839 260.687 332.81 260.687C333.928 260.687 334.869 261.127 335.396 261.993L334.731 262.445C334.279 261.779 333.576 261.466 332.81 261.466C331.366 261.466 330.312 262.495 330.312 264.039C330.312 265.596 331.366 266.613 332.81 266.613C333.576 266.613 334.279 266.312 334.731 265.646L335.396 266.098C334.869 266.952 333.928 267.404 332.81 267.404ZM340.414 260.687C342.021 260.687 343.126 261.616 343.126 263.512V267.341H342.235V263.6C342.235 262.206 341.506 261.491 340.251 261.491C338.832 261.491 337.941 262.369 337.941 263.876V267.341H337.05V258.026H337.941V261.892C338.431 261.127 339.297 260.687 340.414 260.687Z" fill="white"/>
<path d="M189.419 13.8726H180.855V31H171.513V13.8726H159.835V6.08748H189.419V13.8726ZM217.445 31H208.103V21.8135H200.318V31H190.976V13.8726H187.862V6.08748H200.318V15.274H208.103V6.08748H217.445V31ZM243.915 31H219.002V13.8726H215.888V6.08748H243.915V13.8726H228.345V15.274H237.687V21.8135H228.345V23.2148H243.915V31ZM285.943 31H276.6V21.8135H268.815V31H259.473V13.8726H256.359V6.08748H268.815V15.274H276.6V6.08748H285.943V31ZM313.969 18.5437C313.969 22.0315 312.62 25.0002 309.921 27.45C307.305 29.8167 304.243 31 300.734 31C297.205 31 294.143 29.8167 291.548 27.45C288.849 25.0002 287.5 22.0315 287.5 18.5437V13.8726H284.386V6.08748H295.908V18.5437C295.908 19.8101 296.385 20.9104 297.34 21.8447C298.316 22.7581 299.447 23.2148 300.734 23.2148C302.001 23.2148 303.122 22.7581 304.098 21.8447C305.073 20.9104 305.561 19.8101 305.561 18.5437V6.08748H313.969V18.5437ZM341.996 23.7442C341.996 25.8826 341.051 27.6576 339.162 29.0693C337.439 30.3564 335.477 31 333.276 31H315.526V13.8726H312.412V6.08748H331.719C333.92 6.08748 335.892 6.74144 337.636 8.04934C339.504 9.48181 340.439 11.2672 340.439 13.4055C340.439 15.0664 339.93 16.5404 338.913 17.8275C340.968 19.2185 341.996 21.1907 341.996 23.7442ZM332.342 14.1841C332.342 13.6858 332.155 13.2498 331.782 12.8761C331.408 12.5025 330.972 12.3156 330.474 12.3156H324.246V16.0525H330.474C330.972 16.0525 331.408 15.8656 331.782 15.492C332.155 15.1183 332.342 14.6823 332.342 14.1841ZM332.654 22.9034C332.654 22.4052 332.467 21.9692 332.093 21.5955C331.719 21.2218 331.283 21.035 330.785 21.035H324.246V24.7719H330.785C331.283 24.7719 331.719 24.585 332.093 24.2113C332.467 23.8377 332.654 23.4017 332.654 22.9034ZM349.781 9.20155C349.781 9.92816 349.625 10.7171 349.314 11.5682C349.002 12.4194 348.546 13.2187 347.944 13.9661C347.196 14.8795 346.459 15.3674 345.733 15.4297L346.667 12.3156C345.816 12.3156 345.079 12.0146 344.456 11.4125C343.854 10.7897 343.553 10.0527 343.553 9.20155C343.553 8.37113 343.864 7.64452 344.487 7.0217C345.11 6.39889 345.836 6.08748 346.667 6.08748C347.497 6.08748 348.224 6.39889 348.847 7.0217C349.469 7.64452 349.781 8.37113 349.781 9.20155ZM379.352 13.8726H366.336C365.92 13.8726 365.713 14.1114 365.713 14.5889C365.713 14.7134 365.744 14.7965 365.806 14.838L370.322 18.2323C372.19 19.644 373.124 21.5332 373.124 23.8999C373.124 25.8514 372.304 27.5434 370.664 28.9759C369.086 30.3253 367.301 31 365.308 31H351.326V23.2148H360.575C360.99 23.2148 361.197 22.9657 361.197 22.4675C361.197 22.3637 361.166 22.291 361.104 22.2495L356.9 19.1666C355.26 17.9624 354.44 16.1252 354.44 13.6547C354.44 11.6201 355.229 9.8555 356.806 8.36075C358.384 6.84524 360.19 6.08748 362.225 6.08748H379.352V13.8726Z" fill="white"/>
<path d="M500.003 30.8559L505.541 26.9H376.579V30.8559H413.91H500.003Z" fill="url(#paint0_linear_666_2317)"/>
<path d="M39.5381 30.8559L33.9999 26.9H162.962V30.8559H125.631H39.5381Z" fill="url(#paint1_linear_666_2317)"/>
<path d="M39.5384 258.715L34.0002 262.671H162.962V258.715H125.631H39.5384Z" fill="url(#paint2_linear_666_2317)"/>
<path d="M500.003 258.715L505.541 262.671H376.58V258.715H413.911H500.003Z" fill="url(#paint3_linear_666_2317)"/>
<defs>
<filter id="filter0_f_666_2317" x="0.480273" y="61.4439" width="531.313" height="160.409" filterUnits="userSpaceOnUse" color-interpolation-filters="sRGB">
<feFlood flood-opacity="0" result="BackgroundImageFix"/>
<feBlend mode="normal" in="SourceGraphic" in2="BackgroundImageFix" result="shape"/>
<feGaussianBlur stdDeviation="4.4" result="effect1_foregroundBlur_666_2317"/>
</filter>
<linearGradient id="paint0_linear_666_2317" x1="376.579" y1="28.8779" x2="505.541" y2="28.8779" gradientUnits="userSpaceOnUse">
<stop stop-color="#6F7579"/>
<stop offset="1" stop-color="#6F7579" stop-opacity="0"/>
</linearGradient>
<linearGradient id="paint1_linear_666_2317" x1="162.962" y1="28.8779" x2="33.9999" y2="28.8779" gradientUnits="userSpaceOnUse">
<stop stop-color="#6F7579"/>
<stop offset="1" stop-color="#6F7579" stop-opacity="0"/>
</linearGradient>
<linearGradient id="paint2_linear_666_2317" x1="162.962" y1="260.693" x2="34.0002" y2="260.693" gradientUnits="userSpaceOnUse">
<stop stop-color="#6F7579"/>
<stop offset="1" stop-color="#6F7579" stop-opacity="0"/>
</linearGradient>
<linearGradient id="paint3_linear_666_2317" x1="376.58" y1="260.693" x2="505.541" y2="260.693" gradientUnits="userSpaceOnUse">
<stop stop-color="#6F7579"/>
<stop offset="1" stop-color="#6F7579" stop-opacity="0"/>
</linearGradient>
</defs>
</svg>
