<svg width="1288" height="1521" viewBox="0 0 1288 1521" fill="none" xmlns="http://www.w3.org/2000/svg">
<path fill-rule="evenodd" clip-rule="evenodd" d="M565.082 1069.19C416.493 961.783 155.058 1059.87 50.4514 909.294C-44.3926 772.769 5.33233 547.765 117.801 425.351C232.663 300.332 447.98 377.68 602.827 308.072C709.482 260.128 758.367 131.186 867.219 88.4666C1000.24 36.2623 1174.17 -50.2775 1284.48 40.5515C1402.16 137.444 1287.16 344.23 1347.74 484.11C1399.47 603.55 1612.15 641.324 1600.85 770.994C1589.47 901.441 1367.06 899.631 1301.63 1013.05C1220.77 1153.21 1323.03 1378.73 1193.94 1476.29C1075.28 1565.97 884.975 1503.13 760.12 1422.3C644.911 1347.72 676.307 1149.6 565.082 1069.19Z" fill="#365ED4" fill-opacity="0.8"/>
</svg>
