<svg width="314" height="40" viewBox="0 0 314 40" fill="none" xmlns="http://www.w3.org/2000/svg">
<path d="M76.8683 6.29765H79.2824V34H76.4726V11.8381L65.5895 30.4778H64.2044L53.3213 11.9568V34H50.5115V6.29765H52.9256L64.9563 26.837L76.8683 6.29765ZM101.595 31.4672H118.256V34H98.666V6.29765H117.662V8.83043H101.595V18.6846H115.921V21.1778H101.595V31.4672ZM155.759 6.29765H158.648V34H156.234L138.425 11.5215V34H135.497V6.29765H137.911L155.759 28.7761V6.29765ZM183.43 34V8.83043H173.694V6.29765H196.094V8.83043H186.358V34H183.43ZM223.239 34.2374C214.85 34.2374 208.676 28.2221 208.676 20.1488C208.676 12.0756 214.85 6.0602 223.239 6.0602C231.55 6.0602 237.763 12.036 237.763 20.1488C237.763 28.2617 231.55 34.2374 223.239 34.2374ZM223.239 31.6255C229.888 31.6255 234.835 26.7578 234.835 20.1488C234.835 13.5398 229.888 8.67213 223.239 8.67213C216.551 8.67213 211.565 13.5398 211.565 20.1488C211.565 26.7578 216.551 31.6255 223.239 31.6255ZM276.807 34H273.602L267.27 25.0957C266.557 25.1748 265.845 25.2144 265.054 25.2144H257.613V34H254.685V6.29765H265.054C272.098 6.29765 276.372 9.85938 276.372 15.7956C276.372 20.1488 274.077 23.1961 270.04 24.5021L276.807 34ZM264.974 22.7212C270.515 22.7212 273.443 20.1488 273.443 15.7956C273.443 11.3632 270.515 8.83043 264.974 8.83043H257.613V22.7212H264.974ZM301.279 34.2374C297.124 34.2374 293.048 32.7732 290.99 30.6361L292.138 28.3804C294.116 30.3195 297.638 31.7442 301.279 31.7442C306.464 31.7442 308.719 29.5676 308.719 26.837C308.719 19.2386 291.663 23.9084 291.663 13.6586C291.663 9.58235 294.829 6.0602 301.873 6.0602C304.999 6.0602 308.244 6.97042 310.461 8.51383L309.471 10.8487C307.097 9.30533 304.327 8.55341 301.873 8.55341C296.807 8.55341 294.552 10.8092 294.552 13.5794C294.552 21.1778 311.608 16.5871 311.608 26.6787C311.608 30.7549 308.363 34.2374 301.279 34.2374Z" fill="white"/>
<path d="M24.8493 28.4419H20.7492L15.2823 16.7006L9.81547 28.4419H4.5557C2.20883 26.3021 1.03539 23.5411 1.03539 20.1588C1.03539 16.7903 2.20883 14.0293 4.5557 11.8757H7.86894C5.52206 13.9741 4.34862 16.7351 4.34862 20.1588C4.34862 22.6299 5.06649 24.8042 6.50223 26.6817L13.4186 11.8757H17.146L24.8493 28.4419Z" fill="#FFDE06"/>
</svg>
