<svg width="279" height="29" viewBox="0 0 279 29" fill="none" xmlns="http://www.w3.org/2000/svg">
<path d="M75.9121 0.297647H78.3262V28H75.5163V5.83812L64.6333 24.4778H63.2482L52.3651 5.95684V28H49.5553V0.297647H51.9693L64.0001 20.837L75.9121 0.297647ZM97.7098 28V0.297647H100.638V28H97.7098ZM127.647 28.2374C123.492 28.2374 119.416 26.7732 117.358 24.6361L118.505 22.3804C120.484 24.3195 124.006 25.7442 127.647 25.7442C132.831 25.7442 135.087 23.5676 135.087 20.837C135.087 13.2386 118.03 17.9084 118.03 7.65856C118.03 3.58235 121.196 0.0601991 128.241 0.0601991C131.367 0.0601991 134.612 0.970419 136.829 2.51383L135.839 4.84875C133.465 3.30533 130.694 2.55341 128.241 2.55341C123.175 2.55341 120.919 4.80917 120.919 7.57941C120.919 15.1778 137.976 10.5871 137.976 20.6787C137.976 24.7549 134.731 28.2374 127.647 28.2374ZM162.352 28.2374C158.197 28.2374 154.121 26.7732 152.063 24.6361L153.211 22.3804C155.189 24.3195 158.712 25.7442 162.352 25.7442C167.537 25.7442 169.792 23.5676 169.792 20.837C169.792 13.2386 152.736 17.9084 152.736 7.65856C152.736 3.58235 155.902 0.0601991 162.946 0.0601991C166.072 0.0601991 169.318 0.970419 171.534 2.51383L170.544 4.84875C168.17 3.30533 165.4 2.55341 162.946 2.55341C157.88 2.55341 155.625 4.80917 155.625 7.57941C155.625 15.1778 172.681 10.5871 172.681 20.6787C172.681 24.7549 169.436 28.2374 162.352 28.2374ZM189.42 28V0.297647H192.348V28H189.42ZM223.829 28.2374C215.439 28.2374 209.266 22.2221 209.266 14.1488C209.266 6.07557 215.439 0.0601991 223.829 0.0601991C232.14 0.0601991 238.353 6.03599 238.353 14.1488C238.353 22.2617 232.14 28.2374 223.829 28.2374ZM223.829 25.6255C230.478 25.6255 235.424 20.7578 235.424 14.1488C235.424 7.53983 230.478 2.67213 223.829 2.67213C217.141 2.67213 212.154 7.53983 212.154 14.1488C212.154 20.7578 217.141 25.6255 223.829 25.6255ZM275.537 0.297647H278.426V28H276.012L258.203 5.52152V28H255.275V0.297647H257.689L275.537 22.7761V0.297647Z" fill="white"/>
<path d="M24.8847 22.4419H19.6042L3.03801 5.8757H8.31848L21.1573 18.7145V5.8757H24.8847V22.4419ZM12.9984 18.8387L12.0459 22.4419L0.0353869 19.2322L1.00865 15.629L12.9984 18.8387Z" fill="#FFDE06"/>
</svg>
